<svg xmlns="http://www.w3.org/2000/svg" viewBox="0 0 259.76 50.13"><defs><style>.cls-1{isolation:isolate;}.cls-2,.cls-5{fill:#fff;}.cls-3,.cls-4{fill:#1b181c;}.cls-4,.cls-5,.cls-8{fill-rule:evenodd;}.cls-6,.cls-8{fill:#e1081b;}.cls-7{fill:#037658;}.cls-9{fill:#2e2e2d;}.cls-10{fill:#585857;}.cls-11{mix-blend-mode:multiply;}.cls-12{fill:#0099a8;}.cls-13{fill:#ff671d;}.cls-14{fill:#ffcd00;}</style></defs><title>Risorsa 2@350x</title><g class="cls-1"><g id="Livello_2" data-name="Livello 2"><g id="Livello_1-2" data-name="Livello 1"><path class="cls-2" d="M172.18,14.41a1.06,1.06,0,1,0-1.06-1.06A1.07,1.07,0,0,0,172.18,14.41Z"/><path class="cls-2" d="M172.18,19.44a1.06,1.06,0,1,0,1.06,1A1.06,1.06,0,0,0,172.18,19.44Z"/><path class="cls-2" d="M172.18,26.58a1.06,1.06,0,1,0,1.06,1.06A1.07,1.07,0,0,0,172.18,26.58Z"/><circle class="cls-2" cx="172.18" cy="34.79" r="1.06"/><path class="cls-2" d="M122.17,12.29a1.06,1.06,0,1,0,1,1.06A1.07,1.07,0,0,0,122.17,12.29Z"/><path class="cls-2" d="M122.17,26.58a1.06,1.06,0,1,0,1,1.06A1.07,1.07,0,0,0,122.17,26.58Z"/><circle class="cls-2" cx="122.17" cy="34.79" r="1.06"/><path class="cls-2" d="M129.31,14.41a1.06,1.06,0,1,0-1.06-1.06A1.06,1.06,0,0,0,129.31,14.41Z"/><path class="cls-2" d="M136.46,7.26a1.06,1.06,0,1,0-1.06-1A1,1,0,0,0,136.46,7.26Z"/><path class="cls-2" d="M136.46,14.41a1.06,1.06,0,1,0-1.06-1.06A1.06,1.06,0,0,0,136.46,14.41Z"/><path class="cls-2" d="M143.6,40.87a1.06,1.06,0,1,0,1.06,1.06A1.07,1.07,0,0,0,143.6,40.87Z"/><path class="cls-2" d="M150.75,48a1.06,1.06,0,1,0,1.05,1A1.05,1.05,0,0,0,150.75,48Z"/><path class="cls-2" d="M157.89,48a1.06,1.06,0,1,0,1.06,1A1.06,1.06,0,0,0,157.89,48Z"/><path class="cls-2" d="M165,7.26a1.06,1.06,0,1,0-1.05-1A1.05,1.05,0,0,0,165,7.26Z"/><path class="cls-2" d="M165,14.41A1.06,1.06,0,1,0,164,13.35,1.06,1.06,0,0,0,165,14.41Z"/><path class="cls-2" d="M165,21.55A1.06,1.06,0,1,0,164,20.49,1.05,1.05,0,0,0,165,21.55Z"/><path class="cls-2" d="M165,28.68l.06,0A1.06,1.06,0,1,0,164,27.64s0,0,0,.07a9.3,9.3,0,0,0-12.2,0s0-.05,0-.07a1.06,1.06,0,1,0-1.05,1.06l.06,0a9.31,9.31,0,0,0,0,12.21l-.06,0a1.06,1.06,0,1,0,1.05,1.06s0,0,0-.06a9.33,9.33,0,0,0,12.2,0s0,0,0,.06A1.06,1.06,0,1,0,165,40.87l-.06,0a9.34,9.34,0,0,0,0-12.21Z"/><path class="cls-2" d="M145.56,25.52a13.23,13.23,0,1,0-8.05-12.18,13.28,13.28,0,0,0,1.06,5.2,9.16,9.16,0,0,0-2.11-.25,9.29,9.29,0,0,0-6.1,2.27s0,0,0-.07a1.06,1.06,0,1,0-1.06,1.06h.07a9.34,9.34,0,0,0,13.18,13.18.19.19,0,0,0,0,.07,1.06,1.06,0,1,0,1.06-1.06h-.06a9.28,9.28,0,0,0,2-8.22Z"/><path class="cls-3" d="M55.21,19.86v-.35c-.58,0-.81,0-1.21,0s-.69,0-1.21,0l-2.71,6.6-2.74-6.6c-.51,0-.71,0-1.24,0s-.77,0-1.23,0v.35h.55c.49,0,.55,0,.55.34v8.08h.42V20.6l3,7.22h.39l3-7.22V27c0,1.16.37,1.46,1.17,1.46h.15v-8.2c0-.33.1-.33.55-.34Z"/><path class="cls-3" d="M58.23,28.39v-6c0-.1,0-.13-.16-.13s-1.1.08-2,.08v.32h.74c.16,0,.2.06.2.22v4.21c0,.74.27,1.25,1,1.25Z"/><path class="cls-3" d="M77.2,28.4V23.89a1.78,1.78,0,0,0-2-1.73,2.06,2.06,0,0,0-2,1.29v-1c0-.1,0-.13-.15-.13s-1.1.08-2,.08v.32h.75c.15,0,.19.06.19.22v5.35h1.19V24.67a1.85,1.85,0,0,1,1.63-2c.67,0,1.13.41,1.13,1.36v3.11c0,.74.27,1.25,1,1.25Z"/><path class="cls-3" d="M62.3,27.13V19.58c0-.11,0-.13-.16-.13s-1.09.08-2,.08v.31h.75c.15,0,.19.07.19.23v8.31h.22c.7,0,1-.51,1-1.26"/><path class="cls-4" d="M68.12,26.26c0,.86-.54,1.82-1.36,1.82s-1.17-.35-1.17-1.28.71-1.58,2-1.64h.28c.19,0,.2,0,.2.19Zm1.25,2.13c0-.29-.08-.9-.08-1.25V23.68c0-1-.93-1.53-2.09-1.53-1.51,0-2.46.85-2.46,1.23s.23.49.53.49c.86,0,.53-1.38,1.78-1.38a.94.94,0,0,1,1.07,1v1.1c0,.18,0,.2-.2.2h-.36c-1.85.07-3.26.88-3.26,2s.74,1.62,2.33,1.62a1.58,1.58,0,0,0,1.51-1.06c.06.79.45,1,1,1Z"/><path class="cls-4" d="M83.74,25.21c0,1.8-.29,2.87-1.66,2.87S80.44,27,80.44,25.21c0-1.49.26-2.71,1.64-2.71s1.66,1.22,1.66,2.71m1.35,0a3,3,0,1,0-6,0,3,3,0,1,0,6,0"/><path class="cls-4" d="M82.48,15.41c0,.76-.25,1.29-.76,1.29S81,16.15,81,15.41s.14-1.22.77-1.22.76.6.76,1.22M83,16.88V12.81c0-.05,0-.07-.07-.07s-.51,0-.91,0v.15h.34c.08,0,.1,0,.1.11v1.44a.83.83,0,0,0-.8-.49,1.39,1.39,0,0,0-1.35,1.42,1.31,1.31,0,0,0,1.31,1.48.83.83,0,0,0,.86-.6c0,.36.13.59.45.59Z"/><path class="cls-4" d="M84.72,16.88V14.12s0-.06-.07-.06-.51,0-.91,0v.14h.34c.07,0,.09,0,.09.1v2c0,.34.13.58.45.58Z"/><path class="cls-3" d="M49.59,16.14v-.43a2.48,2.48,0,0,1-2,1c-1.23,0-1.65-.81-1.65-2.87,0-1.75.41-2.71,1.71-2.71a1.53,1.53,0,0,1,1.67,1.39h.23c0-.19,0-.46,0-.66s0-.45,0-.66a9.22,9.22,0,0,0-1.9-.34,2.73,2.73,0,0,0-2.7,3C45,16,46.13,17,47.63,17a2.5,2.5,0,0,0,2-.88"/><path class="cls-4" d="M53.75,14.83c0,1.22-.19,2-1.12,2s-1.12-.73-1.12-2c0-1,.18-1.84,1.12-1.84s1.12.83,1.12,1.84m.92,0a2,2,0,0,0-2-2.08,2.07,2.07,0,0,0-2,2.08,2,2,0,1,0,4.08,0"/><path class="cls-3" d="M62.16,17V13.92a1.17,1.17,0,0,0-1.27-1.17,1.43,1.43,0,0,0-1.32.88,1.21,1.21,0,0,0-1.25-.88,1.38,1.38,0,0,0-1.3.88v-.69c0-.07,0-.09-.11-.09s-.74.06-1.34.06v.21h.51c.1,0,.13,0,.13.15v3.63H57V14.46c0-.7.49-1.36,1-1.36s.71.28.71.93v2.11c0,.5.19.85.66.85h.15V14.46c0-.69.48-1.36,1-1.36s.71.28.71.93v2.11c0,.5.19.85.66.85Z"/><path class="cls-3" d="M67.42,17V12.91h-.81v2.4a1.24,1.24,0,0,1-1.08,1.35c-.44,0-.74-.27-.74-.92v-2.8c0-.07,0-.09-.1-.09s-.75.06-1.35.06v.21h.51c.11,0,.13,0,.13.15v2.56A1.19,1.19,0,0,0,65.28,17a1.38,1.38,0,0,0,1.33-.88c0,.5.19.85.66.85Z"/><path class="cls-3" d="M72.73,17V13.92a1.2,1.2,0,0,0-1.32-1.17,1.41,1.41,0,0,0-1.36.88v-.69c0-.07,0-.09-.1-.09s-.75.06-1.35.06v.21h.51c.11,0,.13,0,.13.15v3.63h.81V14.46a1.27,1.27,0,0,1,1.1-1.36c.46,0,.77.28.77.93v2.11c0,.5.19.85.66.85Z"/><path class="cls-4" d="M76.94,14.52c0,.13,0,.15-.13.15H75.23c-.13,0-.13,0-.13-.13,0-.88.29-1.55,1-1.55s.88.68.88,1.53m.91.18a1.9,1.9,0,0,0-1.79-1.95,2,2,0,0,0-1.88,2.08A1.93,1.93,0,0,0,76.12,17a2,2,0,0,0,1.58-.66V16a1.84,1.84,0,0,1-1.53.78c-.84,0-1.09-.69-1.09-1.7,0-.13,0-.15.15-.15h2.49c.08,0,.13-.05.13-.21"/><path class="cls-5" d="M20,30.66a11.6,11.6,0,0,1,4.43-1.13A3.83,3.83,0,0,0,28,25.73V9.36H12V25.73a3.83,3.83,0,0,0,3.56,3.8A11.5,11.5,0,0,1,20,30.66"/><polygon class="cls-6" points="28.05 17.07 22.25 17.07 22.25 9.16 17.69 9.16 17.69 17.07 11.8 17.07 11.8 21.62 17.69 21.62 17.69 30.09 19.97 30.89 22.25 30.09 22.25 21.62 28.05 21.62 28.05 17.07"/><path class="cls-7" d="M8.33,7a3.27,3.27,0,0,1-.22,3.37,4.6,4.6,0,0,1-.93,1,6.59,6.59,0,0,0-1.67,2.05,0,0,0,0,1,0,0l0,0a12.4,12.4,0,0,1,.73-2.18A18.17,18.17,0,0,1,7.52,9a.83.83,0,0,0,.1-.51s-.06,0-.1,0a4.37,4.37,0,0,0-.76.85,13.69,13.69,0,0,0-1,1.67v0h0a11.9,11.9,0,0,0-.77,2s0,.11,0,.11c-.06-.6-.34-1.09-.42-1.67a5.25,5.25,0,0,1,2-3.33A4.17,4.17,0,0,0,7.8,6.72.22.22,0,0,1,8,6.66,1,1,0,0,1,8.33,7"/><path class="cls-7" d="M4.12,9.38c.07.11,0,.22,0,.34a5.35,5.35,0,0,0,.16,3.4,5.42,5.42,0,0,1,.06,2.47s-.06,0-.06,0A3.61,3.61,0,0,1,4,15.16a6.51,6.51,0,0,1-1-2.61c-.05-.42.08-.83,0-1.22a.18.18,0,0,0-.07-.1c-.14,0-.15.14-.22.21a4.86,4.86,0,0,0,.84,4,5.92,5.92,0,0,1,.45.91,5.69,5.69,0,0,1,.54,2.94,2.53,2.53,0,0,1-.12.56h0a2.22,2.22,0,0,0-.77-1l-.16-.07a7.3,7.3,0,0,0-.29-1.42c-.26-1-.9-1.81-1.23-2.79,0,0,0-.05,0-.08A4.64,4.64,0,0,1,1.72,12a3.83,3.83,0,0,1,1.81-2.6c.16-.06.44-.27.59,0"/><path class="cls-7" d="M8.88,11.5a4.26,4.26,0,0,1-.65,3.68c-.53.86-1.45,1.35-2.12,2.09a5.6,5.6,0,0,0-.91,1.11s0-.15,0-.22A4.84,4.84,0,0,0,5,17.21a3,3,0,0,0,.22-.31c.68-.91,1.72-1.46,2.31-2.43a3.36,3.36,0,0,0,.6-1.35c0-.08,0-.18-.07-.21s-.24.17-.33.28A7.2,7.2,0,0,1,5.87,15.4,5.55,5.55,0,0,0,4.8,16.6h0a3.23,3.23,0,0,1,0-.44,6.22,6.22,0,0,1,2.67-4A2.73,2.73,0,0,0,8.3,11s.07-.09.14-.09c.26,0,.34.34.44.55"/><path class="cls-7" d="M1.61,15.06a.58.58,0,0,1,.09.28,7.57,7.57,0,0,0,.6,2.3.27.27,0,0,1,.07.14A17.29,17.29,0,0,1,3.52,20c.08.19.13.39.19.58A4.73,4.73,0,0,1,4,21.78h0a14,14,0,0,1-1.78-1.93,5.11,5.11,0,0,1-.74-2,4.52,4.52,0,0,0-.12-.64.37.37,0,0,0-.13-.15c-.14,0-.14.21-.17.33a4.29,4.29,0,0,0,.22,1.79c.06.12.08.26.15.38A6.07,6.07,0,0,0,3,21.73a7.68,7.68,0,0,1,1.18,1.41,8.21,8.21,0,0,0-.51,1.27v0c-.16-.28-.34-.55-.52-.82a20.19,20.19,0,0,0-1.91-2.13A5.27,5.27,0,0,1,0,18.08a4.2,4.2,0,0,1,1.18-2.9c.1-.13.29-.24.43-.12"/><path class="cls-7" d="M8.48,16.59c.13.16,0,.36,0,.53C8.11,18,8.3,19,8,19.84A11.7,11.7,0,0,1,6,23c0,.13-.17.25-.24.41a5.13,5.13,0,0,0-.65,2.21h0a1.78,1.78,0,0,0-1-.74s0-.09,0-.14A8.23,8.23,0,0,1,5.63,22a7,7,0,0,0,1.76-3.37c0-.14,0-.31-.09-.39s-.24.25-.3.39a8.4,8.4,0,0,1-.55,1.27c-.21.31-.39.65-.62,1-.38.56-.89,1.06-1.25,1.64,0,0,0,0,0,0a6.37,6.37,0,0,1,2.4-5.15,6,6,0,0,1,1.11-.75c.13,0,.3-.09.43,0"/><path class="cls-7" d="M1.24,22.3A6.74,6.74,0,0,0,3.49,25a6.61,6.61,0,0,1,2,2.58s-.09,0-.13,0a7.25,7.25,0,0,1-3.6-2.89c-.1-.14-.15-.3-.34-.33s-.07.2,0,.31a4,4,0,0,0,1.55,2.09c1,.8,2.21,1.09,3.2,1.86a5.28,5.28,0,0,1,1.57,1.69s-.05,0-.07,0a2,2,0,0,0-.53-.19,1.35,1.35,0,0,0-.77,0h0A6.15,6.15,0,0,0,4.73,29a5.07,5.07,0,0,0-.84-.42,8,8,0,0,1-1.64-1,4.5,4.5,0,0,1-1.7-4.49,1.93,1.93,0,0,1,.34-.89.2.2,0,0,1,.2,0c.07,0,.11.11.15.17"/><path class="cls-7" d="M8.34,22.3A5.43,5.43,0,0,1,8,26.45a4.72,4.72,0,0,0-.54,2.47,1.62,1.62,0,0,1-.28-.25c-.22-.17-.45-.38-.69-.55,0-.09,0-.2.06-.29A4.24,4.24,0,0,1,6.75,27a2.35,2.35,0,0,1,.14-.37c.18-.45.43-.87.59-1.32a3.11,3.11,0,0,0,.29-1.78.16.16,0,0,0-.07-.07c-.11,0-.14.12-.19.19a11,11,0,0,1-.57,1.58A8.05,8.05,0,0,0,6,27.48s0-.05,0-.07A4.87,4.87,0,0,1,5.75,26a4.24,4.24,0,0,1,1-2.66,4.42,4.42,0,0,0,.82-1.72.24.24,0,0,1,.15-.13c.36.08.49.49.61.78"/><path class="cls-7" d="M3.28,28.89a7.61,7.61,0,0,0,2.5,1.51,6.4,6.4,0,0,1,.92.43.84.84,0,0,1,.23.12,7.88,7.88,0,0,1,1.23.9c.07.1.18.18.24.28-.29,0-.59-.08-.89-.09a.69.69,0,0,1-.2,0,5.34,5.34,0,0,1-2.93-1.35c-.11-.07-.21-.18-.36-.15s0,.27.09.39a4.8,4.8,0,0,0,3.17,1.66,10.63,10.63,0,0,1,2,.4c.05,0,0,.1.05.14a6.24,6.24,0,0,0,.46,1.1c-.06,0-.11,0-.16,0a13.89,13.89,0,0,0-2.69-.64,7.88,7.88,0,0,1-1.11-.31A5.15,5.15,0,0,1,3.28,31a4.52,4.52,0,0,1-.52-1.68c0-.23,0-.52.16-.65s.27.1.36.19"/><path class="cls-7" d="M9.3,26.33a3.72,3.72,0,0,1,.14.74c.18.76.68,1.39.82,2.16.26,1.15.3,2.37.62,3.49a5.85,5.85,0,0,0,.81,1.71,2.55,2.55,0,0,0-.84-.14,1.14,1.14,0,0,0-.32.07,8.17,8.17,0,0,1-1-4.16,13,13,0,0,0-.33-1.8A.51.51,0,0,0,9,28.12c-.13,0-.12.13-.17.21A17.16,17.16,0,0,0,9,30.48c.06.54,0,1.1.12,1.64A.11.11,0,0,1,9,32a1.74,1.74,0,0,1-.28-.34A4.59,4.59,0,0,1,8,28.58a6.46,6.46,0,0,1,.32-1.26s0-.08.05-.12A3.11,3.11,0,0,1,9,26.32c.09-.06.27-.1.32,0"/><path class="cls-7" d="M8.13,34.42a7.28,7.28,0,0,0,2.34.41,5.2,5.2,0,0,1,2.4.85l0,0c-1.27-.1-2.63.24-3.79-.25-.1,0-.23-.1-.34,0a.08.08,0,0,0,0,.08,1.48,1.48,0,0,0,.55.4,6,6,0,0,0,2.58.28,7.92,7.92,0,0,1,3.7.74v0a7.09,7.09,0,0,0-1.58.5,8.36,8.36,0,0,0-2.14-.22,2.41,2.41,0,0,1-.38,0,8.28,8.28,0,0,1-.87-.07,4.93,4.93,0,0,1-.86-.22,4.25,4.25,0,0,1-2.55-2.31.75.75,0,0,1,0-.49s.07-.07.12-.1a4.66,4.66,0,0,1,.93.38"/><path class="cls-7" d="M11.75,30.83A3.76,3.76,0,0,1,14.18,33a8.44,8.44,0,0,0,2.74,3.47.86.86,0,0,1,.19.11s-.1.06-.17.06a2.87,2.87,0,0,1-2.74-1.74c-.32-.6-.58-1.24-.94-1.83a2.84,2.84,0,0,0-.8-.89c-.05,0-.07,0-.1.07s.11.32.17.48c.62.87.83,2,1.5,2.82a.06.06,0,0,1,0,0,3.24,3.24,0,0,1-2-2,15.46,15.46,0,0,0-.85-2.54c0-.08,0-.18,0-.24s.39-.06.58,0Z"/><path class="cls-7" d="M31.88,30.81v-.49a.22.22,0,0,0,.21-.08c.39-.51.13-1.29.45-1.82a.42.42,0,0,1,.39-.28,1,1,0,0,1,.51.52c0,.11.1.24.21.26a.06.06,0,0,1,.06,0c.38-.2.45-.64.58-1a3.77,3.77,0,0,1,.31-.85A.8.8,0,0,1,35,26.7s.09,0,.11,0a.49.49,0,0,1,.29.47.2.2,0,0,0,.12.15c.23,0,.35-.17.49-.3a2.06,2.06,0,0,1,1.25-1.15.44.44,0,0,1,.44.19c.25.47,0,1-.18,1.41a.45.45,0,0,0,0,.36c.14,0,.3,0,.44.05a.31.31,0,0,1,.19.26c-.05.51-.53.82-.89,1.07a2.19,2.19,0,0,0-.84.64.57.57,0,0,0,0,.13c.06.08.15.07.22.1a.39.39,0,0,1,.36.26c0,.3-.27.45-.45.6a6,6,0,0,1-1.33.48,1.42,1.42,0,0,0-.58.39s-.05.11,0,.16.37.05.53.14a.45.45,0,0,1,.37.34c0,.36-.41.51-.7.63l-.14,0a1.55,1.55,0,0,1-.36.08,2.34,2.34,0,0,1-.7,0,1.31,1.31,0,0,0-.19-1.34l-.21-.16c.49-.42,1-.87,1.4-1.31,0,0,.06-.06.08-.09l.76-.84c.11-.12.19-.25.28-.36s.29-.41.44-.62a.11.11,0,0,1,.05-.08,2.22,2.22,0,0,0,.36-.78s0-.07,0-.1a.08.08,0,0,0-.1,0,1.27,1.27,0,0,0-.42.41,26.16,26.16,0,0,1-3.65,3.64l-.24.05a2,2,0,0,0-.42.12,1.3,1.3,0,0,1,0-.78Z"/><path class="cls-7" d="M34.13,17c.26-.1.75.32.78-.18s-.62-1-.8-1.58a1.06,1.06,0,0,1-.11-.68.4.4,0,0,1,.14-.18c.1-.07.36,0,.42,0a.38.38,0,0,0,.3,0,.18.18,0,0,0,.07-.18,3.22,3.22,0,0,0-.45-.81c-.13-.32-.35-.69-.16-1a.19.19,0,0,1,.13-.1.52.52,0,0,1,.33,0c.13.06.31.16.47-.09.25-.41,0-1,.06-1.44a.82.82,0,0,1,.43-.7.43.43,0,0,1,.31.06c.49.29.55.92.91,1.33a.41.41,0,0,0,.23.13c.17-.09.27-.31.49-.33a.36.36,0,0,1,.3.19c.32.76-.14,1.52-.09,2.3A.41.41,0,0,0,38,14c.1,0,.18,0,.26-.09a.57.57,0,0,1,.48-.26.32.32,0,0,1,.2.21c.1.72-.4,1.24-.64,1.85,0,.12-.07.28,0,.39a.23.23,0,0,0,.25,0c.14-.07.33-.16.49,0s.09.47,0,.68a3.25,3.25,0,0,1-.25.45,1,1,0,0,0-1.09.06A2.21,2.21,0,0,0,37,18.93a1.46,1.46,0,0,0-.44-.16c.08-.5.13-1,.22-1.55,0,0,0,0,0-.07,0-.44.06-.94.07-1.4a15.37,15.37,0,0,0-.25-3c-.11-.24-.11-.57-.37-.71-.09,0-.09.11-.12.18a6.33,6.33,0,0,0,.09,1,16.39,16.39,0,0,1-.06,3.64c-.05.28-.07.59-.13.87-.16,1.07-.37,2.11-.59,3.16h0a1.22,1.22,0,0,0-.47-.13c0-.09,0-.2,0-.3a4.87,4.87,0,0,0-.64-2.11,2.11,2.11,0,0,1-.3-1.08c0-.13.09-.28.22-.32"/><path class="cls-7" d="M35.88,22.23s0,0,0-.07a2.25,2.25,0,0,0-.07-.64c.1,0,.22.14.34.07a.21.21,0,0,0,.08-.16.91.91,0,0,0,0-.49A3.77,3.77,0,0,1,36,19.83a.51.51,0,0,1,.28-.49c.31,0,.45.2.65.37.07,0,.14.05.21,0a1.31,1.31,0,0,0,.38-.85,1.76,1.76,0,0,1,.66-1.12.45.45,0,0,1,.45,0A1.45,1.45,0,0,1,39,18.91a1.21,1.21,0,0,0,0,.2.38.38,0,0,0,.13.35c.16.05.23-.12.36-.12s.15,0,.24,0,.21.21.25.37a3.66,3.66,0,0,1-.86,1.87c0,.11-.1.25,0,.35s.31,0,.45,0a.61.61,0,0,1,.18.05.36.36,0,0,1,.11.36,1.19,1.19,0,0,1-.32.58,3.59,3.59,0,0,1-.32.35,1.06,1.06,0,0,1-.12.1c-.23.27-.61.43-.68.81a.16.16,0,0,0,.09.13,5.41,5.41,0,0,1,.59,0,.43.43,0,0,1,.32.17c.13.35-.2.62-.43.82a4,4,0,0,1-.79.43s0,0,0,0a1,1,0,0,0-.92-.36,1.51,1.51,0,0,0-.72.31.87.87,0,0,0-.34-.44c.29-.41.6-.85.85-1.26.14-.19.25-.43.39-.62.16-.37.37-.7.51-1.09.06-.19.16-.4.21-.61a4.34,4.34,0,0,0,.19-1.69.32.32,0,0,0-.1-.18c-.13,0-.16.16-.2.24-.09.32-.14.64-.26.95a11.46,11.46,0,0,1-1.21,2.61.73.73,0,0,0-.84-.5c0-.09,0-.15.06-.23a1.93,1.93,0,0,0,.12-.54"/><path class="cls-7" d="M31,8.7a.86.86,0,0,1,.45,0,.26.26,0,0,0,.15,0,.42.42,0,0,0,.22-.56c-.13-.34-.62-.71-.56-1.15a.46.46,0,0,1,.27-.31c.56-.22,1.18.53,1.62.82.18.1.35.26.58.21s.17-.35.37-.41a.49.49,0,0,1,.46.26A4.11,4.11,0,0,1,35,9.24c0,.23,0,.46.05.69a1.92,1.92,0,0,0-.26.68,3.67,3.67,0,0,0,0,1.05,1.16,1.16,0,0,0-.34,0,8.58,8.58,0,0,0-1.29-3.1c-.13-.16-.28-.38-.49-.39a.11.11,0,0,0,0,.14c0,.07,0,.15.07.2a1.46,1.46,0,0,0,.07.19A11.62,11.62,0,0,1,34,11.85c0,.11-.1.15-.13.26a3.12,3.12,0,0,0-.09.44l0,0c-.36-.54-1.3-.63-1.66-1.16A.45.45,0,0,1,32,11c.1-.2.36-.12.54-.17a.2.2,0,0,0,.09-.15c-.09-.29-.39-.47-.63-.62a2,2,0,0,1-1.05-1A.28.28,0,0,1,31,8.7"/><path class="cls-7" d="M31.17,11.9c.12-.08.25,0,.39,0l.15.05A11.68,11.68,0,0,0,33.55,13a.26.26,0,0,0,.23-.08,1.91,1.91,0,0,0,.3.7s0,.06.06.09a.86.86,0,0,0-.55.45l0,.08a2.58,2.58,0,0,0-.92-.8.1.1,0,0,0-.12.08c0,.29.25.51.4.72a6.89,6.89,0,0,1,1,2.2.94.94,0,0,0-.34.29,1.59,1.59,0,0,0,0,1.44c.11.26.29.5.39.77a5.85,5.85,0,0,1,.38,1.36,4,4,0,0,0,0,.6s0,.05,0,.06,0-.07,0-.1C34,19.91,32.59,19,32,18.29a1.82,1.82,0,0,1-.49-1.41.31.31,0,0,1,.3-.22c.14,0,.31.06.46.05a.22.22,0,0,0,.18-.12c.06-.23-.11-.42-.23-.6a7.75,7.75,0,0,0-.63-.66s0-.05,0-.06c-.23-.25-.48-.46-.38-.84.09-.16.27-.15.42-.17s.11-.08.12-.15c0-.45-.32-.76-.51-1.11a1.4,1.4,0,0,1-.2-.84.46.46,0,0,1,.18-.26"/><path class="cls-7" d="M30.91,25.93a2.83,2.83,0,0,1,.08-.52c.05-.19.12-.4.33-.45s.5.5.73.14a1.37,1.37,0,0,0,0-.8c-.07-.27-.23-.52-.29-.81a2.25,2.25,0,0,1-.2-.82c0-.15,0-.32.16-.41s.3,0,.45-.05.09-.06.13-.09c.09-.5-.23-.87-.17-1.37a.86.86,0,0,1,.34-.71.69.69,0,0,1,.82.2,4.34,4.34,0,0,1,.51.86c.19.42.29.81.79.46.16-.11.28-.28.5-.27a.34.34,0,0,1,.26.26,1.75,1.75,0,0,1-.06.91,2.57,2.57,0,0,0-.14.61,1,1,0,0,0,0,.42c0,.05,0,.11.11.12s.22-.11.34-.12a.49.49,0,0,1,.41,0,.34.34,0,0,1,.12.3c-.06.58-.6.91-.83,1.41a.37.37,0,0,0,0,.23.11.11,0,0,0,.11.07s0,0,0,0,.13,0,.19,0a.46.46,0,0,1,.44.17c.11.31-.14.55-.32.76h0a.83.83,0,0,0-.75-.29c-.78.19-1,1-1.23,1.83a1.19,1.19,0,0,0-.3-.29,9.13,9.13,0,0,0,.23-4.9,1.61,1.61,0,0,0-.35-.86.14.14,0,0,0-.12.06,1.58,1.58,0,0,0,0,.49,11.47,11.47,0,0,1-.31,5.07.83.83,0,0,0-.45.15,1.73,1.73,0,0,0-.57,1.51.88.88,0,0,1-.12.46c-.35-1-.83-1.07-1.17-.89a4.41,4.41,0,0,0,.35-2.78"/><path class="cls-7" d="M26.67,31.73c.17-.19.4-.43.65-.3s.08.49.32.63.39-.32.48-.57a8.71,8.71,0,0,1,.4-1.27c.11-.21.22-.45.51-.36s.18.56.49.53.62-1.24,1.23-1.11c.3.07.58.6.59,1.29a4.9,4.9,0,0,0,0,1.32.19.19,0,0,1,.05.11c-.17.15-.36.29-.54.43a.86.86,0,0,0-.26-.37,2.4,2.4,0,0,0-.26-.18,2.33,2.33,0,0,0,.24-1.08.14.14,0,0,0-.15,0c-.22.17-.36.68-.6,1.08a2.27,2.27,0,0,0-1.42,1.37s0,0-.05-.07a.77.77,0,0,0-.76-.28c-.76.16-1.15,1-1.59,1.62-.12-.32-.35-.37-.63-.47.67-.81.81-1.69,1.34-2.29"/><path class="cls-7" d="M24,35.77a4.25,4.25,0,0,1,1.06-1.23.43.43,0,0,1,.35,0c.15.09.17.48.41.46s.78-.61,1-.93a1.35,1.35,0,0,1,.81-.66.28.28,0,0,1,.3.11c.12.2,0,.52.16.68s.32-.14.44-.27a4.61,4.61,0,0,0,.36-.54.52.52,0,0,1,.11-.19A1.67,1.67,0,0,1,30,32.4a.29.29,0,0,1,.33.15.68.68,0,0,1,.07.32s0,.05,0,.08a.18.18,0,0,0,.1.16.64.64,0,0,0,.43-.08c.56-.21.86-.75,1.45-.9a.88.88,0,0,1,.76.07.69.69,0,0,1,.13.72s0,.06,0,.08c-.14.38-.4.71-.57,1.07,0,0,0,.08,0,.14a.35.35,0,0,0,.09.3,1.11,1.11,0,0,0,.19.09.55.55,0,0,1,.3.26.51.51,0,0,1-.3.49c-.62.39-1.46.24-2.12.55-.19.06-.44.16-.48.37s.05.13.1.18.29.16.31.31-.26.39-.47.47l-.18.06c-1,.22-2.1-.11-3.11.07a3,3,0,0,0-.75.18c-.08,0-.14,0-.21-.07a8.26,8.26,0,0,0-1.22-.39l.83-.18s.1,0,.13,0c.2-.08.41-.07.59-.16s.15-.06.22-.05l.94-.31.79-.3a.12.12,0,0,1,.1,0,.4.4,0,0,1,.18-.07,2,2,0,0,1,.3-.14c.4-.2.82-.37,1.19-.6a3.24,3.24,0,0,0,.36-.2,4.73,4.73,0,0,0,1.41-1.18s0-.13,0-.17-.22,0-.33,0a15,15,0,0,1-1.61,1l-.88.42-.23.08c-.3.14-.62.25-.92.36l-.66.2-.43.14c-.91.26-2.2.57-2.95.72-.26,0-.52.1-.78.13,0,0,0,0,0,0a3.12,3.12,0,0,0,1-.91"/><path class="cls-8" d="M18.26,36.82a5.69,5.69,0,0,0,1.71-1,6.22,6.22,0,0,0,2,1.06h0a8.35,8.35,0,0,1-2,1.45c-.05,0-.06,0-.11-.06a7.62,7.62,0,0,1-1.62-1.16,1.73,1.73,0,0,1-.24-.23l.27-.1"/><path class="cls-7" d="M14.19,38.06c.06,0,.14,0,.2-.07a18.53,18.53,0,0,1,2-.51c.32-.08.66-.16,1-.27a7.13,7.13,0,0,0,.64.6,6.46,6.46,0,0,1-.78.25c-.85.28-1.77.39-2.62.68a3.67,3.67,0,0,0-1.58.93,2.07,2.07,0,0,0-.46.71c-.19-.25-.31-.53-.5-.77a4.28,4.28,0,0,1,2.14-1.55"/><path class="cls-7" d="M21.25,38.26s.05,0,.07,0a3.16,3.16,0,0,0,.54.2,11.38,11.38,0,0,0,1.64.46c.15,0,.28.06.43.07.37.09.76.16,1.11.28.07,0,.16,0,.22.09a2.75,2.75,0,0,1,1.66,1.45l0,.08-.54.86c-.06,0,0-.14-.07-.21C26.09,40.43,24.92,40,24,39.78a15,15,0,0,1-3.47-1,6.39,6.39,0,0,0,.75-.48"/><path class="cls-6" d="M22.48,37.2c.89.3,1.86.39,2.75.68A5.65,5.65,0,0,1,27.33,39a2.33,2.33,0,0,1,.42.57c-.09.09-.12.2-.2.29s-.19.32-.3.47c0,0,0-.06,0-.07a2.7,2.7,0,0,0-.79-1,.61.61,0,0,1-.1-.07,10.49,10.49,0,0,0-3.43-1.07,10.45,10.45,0,0,1-1.08-.35c.21-.2.45-.4.66-.61"/><path class="cls-6" d="M13.51,40a4.89,4.89,0,0,1,2.34-1s.1,0,.15,0l.27,0c.25-.08.52-.11.77-.19a12,12,0,0,0,1.46-.5,7.85,7.85,0,0,0,.76.52,16,16,0,0,1-3.7,1.1,4,4,0,0,0-1.66.85,2.08,2.08,0,0,0-.5,1h0c-.16-.28-.34-.57-.51-.83a2.29,2.29,0,0,1,.64-.91"/><path class="cls-7" d="M17.59,33.26A2.86,2.86,0,0,0,16.42,33a26.27,26.27,0,0,0,2.46,2.92,2.48,2.48,0,0,0,.63-.42,22.7,22.7,0,0,1-1.92-2.21"/><path class="cls-6" d="M15.57,32.75a1.91,1.91,0,0,0-1.08-.26,27.91,27.91,0,0,0,3.06,4,4.51,4.51,0,0,0,.75-.3,25.91,25.91,0,0,1-2.73-3.41"/><path class="cls-7" d="M22.36,33.26A2.85,2.85,0,0,1,23.52,33a25.23,25.23,0,0,1-2.46,2.92,2.88,2.88,0,0,1-.63-.42,21.51,21.51,0,0,0,1.93-2.21"/><path class="cls-6" d="M24.37,32.75a1.91,1.91,0,0,1,1.08-.26,27.91,27.91,0,0,1-3.06,4,4.51,4.51,0,0,1-.75-.3,25.11,25.11,0,0,0,2.73-3.41"/><path class="cls-4" d="M20,30.66a11.6,11.6,0,0,1,4.43-1.13A3.83,3.83,0,0,0,28,25.73V9.36H12V25.73a3.83,3.83,0,0,0,3.56,3.8A11.5,11.5,0,0,1,20,30.66m0,.92a2.15,2.15,0,0,0-.6-.46,13.69,13.69,0,0,0-3.92-.89,4.52,4.52,0,0,1-4.16-4.53v-17H28.66v17a4.53,4.53,0,0,1-4.17,4.53,13.69,13.69,0,0,0-3.92.89,2.31,2.31,0,0,0-.6.46"/><rect class="cls-3" x="13.28" y="1.48" width="0.71" height="1.44"/><polygon class="cls-3" points="18.98 0 19.68 0 19.68 0.74 20.26 0.74 20.26 0 20.96 0 20.96 1.45 18.98 1.45 18.98 0"/><polygon class="cls-3" points="14.56 2.39 14.56 0.74 15.26 0.74 15.26 2.18 15.97 3.27 15.97 5.52 15.26 5.52 15.26 3.48 14.56 2.39"/><polygon class="cls-3" points="16.55 1.48 17.12 1.48 17.12 2.18 15.84 2.18 15.84 0.74 16.55 0.74 16.55 1.48"/><polygon class="cls-3" points="17.76 6.8 12.7 6.8 12.7 4.22 11.99 3.13 11.99 1.48 12.7 1.48 12.7 2.92 13.41 4.01 13.41 6.09 17.76 6.09 17.76 6.8"/><rect class="cls-3" x="25.96" y="1.48" width="0.71" height="1.44"/><polygon class="cls-3" points="25.39 2.39 25.39 0.74 24.68 0.74 24.68 2.18 23.97 3.27 23.97 5.52 24.68 5.52 24.68 3.48 25.39 2.39"/><polygon class="cls-3" points="23.4 1.48 22.82 1.48 22.82 2.18 24.1 2.18 24.1 0.74 23.4 0.74 23.4 1.48"/><path class="cls-3" d="M12.7,8.08V7.37h5.64V6.09a1.64,1.64,0,0,1,3.27,0V7.37h5.63v.71H20.9v-2a.93.93,0,0,0-1.86,0v2Z"/><polygon class="cls-3" points="22.18 6.8 27.25 6.8 27.25 4.22 27.95 3.13 27.95 1.48 27.25 1.48 27.25 2.92 26.54 4.01 26.54 6.09 22.18 6.09 22.18 6.8"/><path class="cls-3" d="M19,4.08V2.43l-.64-1V0h-.71V1.65l.65,1v2a2.41,2.41,0,0,1,.7-.52"/><path class="cls-3" d="M20.9,4.08V2.43l.64-1V0h.71V1.65l-.64,1v2a2.46,2.46,0,0,0-.71-.52"/><rect class="cls-9" x="102.72" y="12.29" width="0.75" height="23.55"/><path class="cls-10" d="M173.24,13.35a1.06,1.06,0,1,0-1.06,1.06,1.07,1.07,0,0,0,1.06-1.06"/><path class="cls-10" d="M173.24,20.49a1.06,1.06,0,1,0-1.06,1.06,1.06,1.06,0,0,0,1.06-1.06"/><path class="cls-10" d="M173.24,27.64a1.06,1.06,0,1,0-1.06,1.06,1.07,1.07,0,0,0,1.06-1.06"/><path class="cls-9" d="M173.24,34.79a1.06,1.06,0,1,0-1.06,1.05,1.06,1.06,0,0,0,1.06-1.05"/><path class="cls-9" d="M123.22,13.35a1.06,1.06,0,1,0-1,1.06,1.06,1.06,0,0,0,1-1.06"/><path class="cls-9" d="M123.22,27.64a1.06,1.06,0,1,0-1,1.06,1.06,1.06,0,0,0,1-1.06"/><path class="cls-10" d="M123.22,34.79a1.06,1.06,0,1,0-1,1.05,1.05,1.05,0,0,0,1-1.05"/><path class="cls-10" d="M130.37,13.35a1.06,1.06,0,1,0-1.06,1.06,1.06,1.06,0,0,0,1.06-1.06"/><path class="cls-10" d="M130.37,20.49a1.06,1.06,0,1,0-1.06,1.06,1.05,1.05,0,0,0,1.06-1.06"/><path class="cls-10" d="M130.37,27.64a1.06,1.06,0,1,0-1.06,1.06,1.06,1.06,0,0,0,1.06-1.06"/><path class="cls-9" d="M137.51,6.21a1.06,1.06,0,1,0-1,1,1.05,1.05,0,0,0,1-1"/><path class="cls-10" d="M137.51,13.35a1.06,1.06,0,1,0-1,1.06,1.06,1.06,0,0,0,1-1.06"/><path class="cls-10" d="M137.51,20.49a1.06,1.06,0,1,0-1,1.06,1,1,0,0,0,1-1.06"/><path class="cls-10" d="M137.51,34.79a1.06,1.06,0,1,0-1,1.05,1.05,1.05,0,0,0,1-1.05"/><path class="cls-10" d="M144.66,13.35a1.06,1.06,0,1,0-1.06,1.06,1.07,1.07,0,0,0,1.06-1.06"/><path class="cls-10" d="M144.66,20.49a1.06,1.06,0,1,0-1.06,1.06,1.06,1.06,0,0,0,1.06-1.06"/><path class="cls-9" d="M144.66,27.64a1.06,1.06,0,1,0-1.06,1.06,1.07,1.07,0,0,0,1.06-1.06"/><path class="cls-10" d="M144.66,34.79a1.06,1.06,0,1,0-1.06,1.05,1.06,1.06,0,0,0,1.06-1.05"/><path class="cls-10" d="M144.66,41.93A1.06,1.06,0,1,0,143.6,43a1.07,1.07,0,0,0,1.06-1.06"/><path class="cls-10" d="M151.8,49.07a1.06,1.06,0,1,0-1.05,1.06,1,1,0,0,0,1.05-1.06"/><path class="cls-10" d="M151.8,6.21a1.06,1.06,0,1,0-1.05,1,1.05,1.05,0,0,0,1.05-1"/><path class="cls-10" d="M151.8,20.49a1.06,1.06,0,1,0-1.05,1.06,1,1,0,0,0,1.05-1.06"/><path class="cls-10" d="M151.8,27.64a1.06,1.06,0,1,0-1.05,1.06,1.06,1.06,0,0,0,1.05-1.06"/><path class="cls-10" d="M151.8,34.79a1.06,1.06,0,1,0-1.05,1.05,1.05,1.05,0,0,0,1.05-1.05"/><path class="cls-10" d="M151.8,41.93A1.06,1.06,0,1,0,150.75,43a1.06,1.06,0,0,0,1.05-1.06"/><path class="cls-9" d="M159,49.07a1.06,1.06,0,1,0-1.06,1.06A1.06,1.06,0,0,0,159,49.07"/><path class="cls-9" d="M159,6.21a1.06,1.06,0,1,0-1.06,1,1.06,1.06,0,0,0,1.06-1"/><path class="cls-10" d="M159,13.35a1.06,1.06,0,1,0-1.06,1.06A1.07,1.07,0,0,0,159,13.35"/><path class="cls-9" d="M159,20.49a1.06,1.06,0,1,0-1.06,1.06A1.06,1.06,0,0,0,159,20.49"/><path class="cls-10" d="M159,27.64a1.06,1.06,0,1,0-1.06,1.06A1.07,1.07,0,0,0,159,27.64"/><path class="cls-10" d="M159,41.93A1.06,1.06,0,1,0,157.89,43,1.07,1.07,0,0,0,159,41.93"/><path class="cls-10" d="M166.09,6.21a1.06,1.06,0,1,0-1.06,1,1.05,1.05,0,0,0,1.06-1"/><path class="cls-10" d="M166.09,13.35A1.06,1.06,0,1,0,165,14.41a1.06,1.06,0,0,0,1.06-1.06"/><path class="cls-10" d="M166.09,20.49A1.06,1.06,0,1,0,165,21.55a1.05,1.05,0,0,0,1.06-1.06"/><path class="cls-10" d="M166.09,27.64A1.06,1.06,0,1,0,165,28.7a1.06,1.06,0,0,0,1.06-1.06"/><path class="cls-10" d="M166.09,34.79A1.06,1.06,0,1,0,165,35.84a1.05,1.05,0,0,0,1.06-1.05"/><path class="cls-10" d="M166.09,41.93A1.06,1.06,0,1,0,165,43a1.06,1.06,0,0,0,1.06-1.06"/><g class="cls-11"><path class="cls-12" d="M164,13.34a13.24,13.24,0,1,0-13.24,13.24A13.23,13.23,0,0,0,164,13.34"/></g><g class="cls-11"><path class="cls-13" d="M167.24,34.79a9.36,9.36,0,1,0-9.35,9.35,9.35,9.35,0,0,0,9.35-9.35"/></g><g class="cls-11"><path class="cls-14" d="M145.81,27.64A9.36,9.36,0,1,0,136.46,37a9.35,9.35,0,0,0,9.35-9.36"/></g><polygon class="cls-2" points="137.7 27.02 137.08 26.39 136.46 27.02 135.83 26.39 135.21 27.02 135.84 27.64 135.21 28.27 135.83 28.89 136.46 28.27 137.08 28.89 137.7 28.27 137.07 27.64 137.7 27.02"/><rect class="cls-2" x="156.79" y="33.68" width="2.21" height="2.21"/><polygon class="cls-2" points="150.75 13.71 151.46 14.42 152.17 13.71 150.75 12.28 149.32 13.71 150.03 14.42 150.75 13.71"/><polygon class="cls-9" points="207.42 12.76 209.89 12.76 212.63 17.17 215.37 12.76 217.84 12.76 217.84 23.18 215.58 23.18 215.58 16.38 212.65 20.83 212.59 20.83 209.69 16.42 209.69 23.18 207.42 23.18 207.42 12.76"/><rect class="cls-9" x="220.45" y="12.76" width="2.29" height="10.42"/><polygon class="cls-10" points="194.97 23.18 193.78 23.18 189.98 17.5 186.19 23.18 185 23.18 185 12.76 186.17 12.76 186.17 21.2 189.97 15.62 190.03 15.62 193.82 21.19 193.82 12.76 194.97 12.76 194.97 23.18"/><polygon class="cls-10" points="197.47 12.76 205 12.76 205 13.82 198.65 13.82 198.65 17.41 204.33 17.41 204.33 18.46 198.65 18.46 198.65 22.13 205.08 22.13 205.08 23.18 197.47 23.18 197.47 12.76"/><polygon class="cls-9" points="185 29.5 185 26.66 185.62 26.66 185.62 28.93 187.03 28.93 187.03 29.5 185 29.5"/><path class="cls-9" d="M190.51,29.5l-.26-.64h-1.19l-.26.64h-.64l1.21-2.86H190l1.21,2.86Zm-.86-2.11-.37.92H190Z"/><path class="cls-9" d="M196,29.54a1.43,1.43,0,0,1-1.45-1.45h0A1.44,1.44,0,0,1,196,26.61a1.45,1.45,0,0,1,1.12.44l-.4.46a1,1,0,0,0-.72-.32.84.84,0,0,0-.82.88h0A.83.83,0,0,0,196,29a1,1,0,0,0,.74-.33l.4.4a1.44,1.44,0,0,1-1.16.5"/><rect class="cls-9" x="198.54" y="26.66" width="0.62" height="2.83"/><polygon class="cls-9" points="202.06 27.24 202.06 29.5 201.44 29.5 201.44 27.24 200.57 27.24 200.57 26.66 202.92 26.66 202.92 27.24 202.06 27.24"/><polygon class="cls-9" points="205.59 27.24 205.59 29.5 204.96 29.5 204.96 27.24 204.1 27.24 204.1 26.66 206.45 26.66 206.45 27.24 205.59 27.24"/><path class="cls-9" d="M209.94,29.5l-.26-.64h-1.2l-.26.64h-.63l1.21-2.86h.58l1.21,2.86Zm-1.06-3.06-.52-.49.53-.23.46.72Zm.2.95-.38.92h.76Z"/><path class="cls-9" d="M215.13,28.65h-.47v.85H214V26.66h1.16a1,1,0,0,1,1.08,1h0a1,1,0,0,1-1.14,1m.51-1c0-.27-.19-.42-.5-.42h-.48v.86h.49a.44.44,0,0,0,.49-.43Z"/><polygon class="cls-9" points="217.64 29.5 217.64 26.66 219.78 26.66 219.78 27.22 218.26 27.22 218.26 27.79 219.59 27.79 219.59 28.35 218.26 28.35 218.26 28.94 219.8 28.94 219.8 29.5 217.64 29.5"/><path class="cls-9" d="M223,29.5l-.6-.91h-.49v.91h-.63V26.66h1.3c.67,0,1.07.35,1.07.94h0a.88.88,0,0,1-.61.87l.69,1Zm0-1.87c0-.27-.19-.4-.49-.4h-.62V28h.63c.3,0,.48-.16.48-.4Z"/><rect class="cls-9" x="227.23" y="26.66" width="0.62" height="2.83"/><polygon class="cls-9" points="229.47 29.5 229.47 26.66 230.09 26.66 230.09 28.93 231.5 28.93 231.5 29.5 229.47 29.5"/><polygon class="cls-9" points="235.61 26.66 235.61 28.51 236.41 27.3 236.43 27.3 237.22 28.5 237.22 26.66 237.83 26.66 237.83 29.5 237.16 29.5 236.41 28.3 235.67 29.5 235 29.5 235 26.66 235.61 26.66"/><polygon class="cls-9" points="239.41 29.5 239.41 26.66 241.55 26.66 241.55 27.22 240.03 27.22 240.03 27.79 241.37 27.79 241.37 28.35 240.03 28.35 240.03 28.94 241.57 28.94 241.57 29.5 239.41 29.5"/><polygon class="cls-9" points="243.03 29.5 243.03 26.66 243.65 26.66 243.65 28.93 245.06 28.93 245.06 29.5 243.03 29.5"/><polygon class="cls-9" points="247.06 27.23 247.06 27.83 248.41 27.83 248.41 28.4 247.06 28.4 247.06 29.5 246.44 29.5 246.44 26.66 248.59 26.66 248.59 27.23 247.06 27.23"/><path class="cls-9" d="M251.78,29.5l-.26-.64h-1.2l-.26.64h-.63l1.21-2.86h.57l1.22,2.86Zm-.86-2.11-.38.92h.76Z"/><path class="cls-9" d="M255.49,29.5l-.61-.91h-.49v.91h-.62V26.66h1.29c.67,0,1.07.35,1.07.94h0a.87.87,0,0,1-.6.87l.69,1Zm0-1.87c0-.27-.18-.4-.49-.4h-.62V28H255c.31,0,.48-.16.48-.4Z"/><polygon class="cls-9" points="257.6 29.5 257.6 26.66 259.74 26.66 259.74 27.22 258.22 27.22 258.22 27.79 259.55 27.79 259.55 28.35 258.22 28.35 258.22 28.94 259.76 28.94 259.76 29.5 257.6 29.5"/></g></g></g></svg>