<svg xmlns="http://www.w3.org/2000/svg" viewBox="0 0 409.56 58.79"><defs><style>.cls-1{fill:#595758;}.cls-2{fill:#004493;}.cls-3{fill:#12a5b0;}.cls-4{fill:#b0c700;}.cls-5{fill:#637bb6;}.cls-6{fill:#f9b600;}.cls-7{fill:#1a171b;}.cls-8{fill:#a55c44;}.cls-9{fill:#d8d9da;}.cls-10{fill:#fff;}.cls-11{fill:#e1001a;}.cls-12{fill:#008f36;}.cls-13{fill:#0d4f9b;}.cls-14{fill:#ffec0b;}.cls-15{fill:#231f20;}.cls-16{fill:none;stroke:#1d1d1b;stroke-miterlimit:10;stroke-width:0.75px;}</style></defs><title>Risorsa 19@350x</title><g id="Livello_2" data-name="Livello 2"><g id="Testata"><path class="cls-1" d="M.91,51.92.58,53.54H0l.47-1.62Zm1.13,0-.32,1.62H1.13l.47-1.62Z"/><path class="cls-1" d="M4.88,55.43H3.58v1.72H3V52H4.88a1.64,1.64,0,0,1,1.23.4,1.71,1.71,0,0,1,.4,1.25C6.51,54.85,6,55.43,4.88,55.43Zm-1.3-.5H4.87c.71,0,1.06-.42,1.06-1.24a1.24,1.24,0,0,0-.25-.87,1,1,0,0,0-.81-.28H3.58Z"/><path class="cls-1" d="M7.6,55.78v1.37H7.2V53.57H8.53a1.23,1.23,0,0,1,.86.27,1.06,1.06,0,0,1,.28.82,1,1,0,0,1-.65,1l.68,1.45H9.26l-.64-1.37Zm.93-.35a.65.65,0,0,0,.73-.75c0-.51-.24-.76-.73-.76H7.6v1.51Z"/><path class="cls-1" d="M13.08,55.39a2.34,2.34,0,0,1-.31,1.38,1.26,1.26,0,0,1-1.11.43,1.28,1.28,0,0,1-1.11-.43,2.54,2.54,0,0,1-.3-1.39,2.48,2.48,0,0,1,.31-1.4,1.22,1.22,0,0,1,1.1-.46,1.24,1.24,0,0,1,1.11.46A2.58,2.58,0,0,1,13.08,55.39Zm-2.42,0a2.42,2.42,0,0,0,.2,1.13.86.86,0,0,0,.8.34.87.87,0,0,0,.8-.33,2.27,2.27,0,0,0,.2-1.13,2.44,2.44,0,0,0-.21-1.16.83.83,0,0,0-.79-.36.83.83,0,0,0-.79.36A2.37,2.37,0,0,0,10.66,55.38Z"/><path class="cls-1" d="M15.23,55.68v-.36h1v1.76a6.63,6.63,0,0,1-1.17.12A1.2,1.2,0,0,1,14,56.75,3.27,3.27,0,0,1,14,54,1.19,1.19,0,0,1,15,53.52a5.06,5.06,0,0,1,1,.1l.18,0,0,.34a6.09,6.09,0,0,0-1.11-.11.87.87,0,0,0-.81.34,3.38,3.38,0,0,0,0,2.29.86.86,0,0,0,.8.34,3.78,3.78,0,0,0,.74-.07v-1.1Z"/><path class="cls-1" d="M17,57.15V53.57h2.17v.35H17.39v1.24h1.47v.35H17.39V56.8h1.78v.35Z"/><path class="cls-1" d="M19.49,53.93v-.36h2.58v.36H21v3.22h-.39V53.93Z"/><path class="cls-1" d="M22.21,53.93v-.36H24.8v.36H23.7v3.22h-.39V53.93Z"/><path class="cls-1" d="M27.89,55.39a2.43,2.43,0,0,1-.3,1.38,1.29,1.29,0,0,1-1.12.43,1.28,1.28,0,0,1-1.11-.43,2.54,2.54,0,0,1-.3-1.39,2.48,2.48,0,0,1,.31-1.4,1.22,1.22,0,0,1,1.1-.46,1.24,1.24,0,0,1,1.11.46A2.5,2.5,0,0,1,27.89,55.39Zm-2.42,0a2.28,2.28,0,0,0,.21,1.13.83.83,0,0,0,.79.34.86.86,0,0,0,.8-.33,2.26,2.26,0,0,0,.21-1.13,2.31,2.31,0,0,0-.22-1.16,1,1,0,0,0-1.58,0A2.37,2.37,0,0,0,25.47,55.38Z"/><path class="cls-1" d="M32.41,57.1a5.05,5.05,0,0,1-1,.1,1.72,1.72,0,0,1-.69-.11.88.88,0,0,1-.4-.36,1.75,1.75,0,0,1-.2-.57,6.35,6.35,0,0,1,0-1.59,1.6,1.6,0,0,1,.2-.57.84.84,0,0,1,.4-.37,1.8,1.8,0,0,1,.67-.11,5.52,5.52,0,0,1,1,.11l0,.34a5.58,5.58,0,0,0-.93-.09.76.76,0,0,0-.75.34,2.46,2.46,0,0,0-.19,1.15,4,4,0,0,0,0,.66,1.31,1.31,0,0,0,.13.45.53.53,0,0,0,.29.28,1.3,1.3,0,0,0,.55.09,4.21,4.21,0,0,0,.86-.1Z"/><path class="cls-1" d="M35.69,55.39a2.43,2.43,0,0,1-.3,1.38,1.28,1.28,0,0,1-1.11.43,1.26,1.26,0,0,1-1.11-.43,2.44,2.44,0,0,1-.31-1.39,2.48,2.48,0,0,1,.31-1.4,1.56,1.56,0,0,1,2.21,0A2.5,2.5,0,0,1,35.69,55.39Zm-2.42,0a2.28,2.28,0,0,0,.21,1.13,1.11,1.11,0,0,0,1.59,0,2.26,2.26,0,0,0,.21-1.13,2.44,2.44,0,0,0-.21-1.16.86.86,0,0,0-.8-.36.83.83,0,0,0-.79.36A2.37,2.37,0,0,0,33.27,55.38Z"/><path class="cls-1" d="M36.42,57.15V53.57h2.15v.35H36.82v1.4H38.3v.35H36.82v1.48Z"/><path class="cls-1" d="M39.14,57.15V53.57h.4v3.58Z"/><path class="cls-1" d="M40.42,57.15V53.57h.74l1.38,3.23h.1V53.57H43v3.58h-.73l-1.4-3.23h-.09v3.23Z"/><path class="cls-1" d="M43.6,57.15l1-3.58h.87l1,3.58H46l-.26-.92H44.25l-.26.92Zm1.28-3.24-.54,2H45.7l-.55-2Z"/><path class="cls-1" d="M47,57.15V53.57h.75l1.37,3.23h.11V53.57h.39v3.58h-.73L47.5,53.92h-.1v3.23Z"/><path class="cls-1" d="M50.28,53.92v-.35h2.33V54L50.74,56.7v.1h1.87v.36H50.28V56.7L52.15,54v-.12Z"/><path class="cls-1" d="M53.27,57.15V53.57h.4v3.58Z"/><path class="cls-1" d="M54.23,57.15l1-3.58h.86l1,3.58h-.4l-.25-.92H54.88l-.26.92Zm1.29-3.24-.55,2h1.36l-.55-2Z"/><path class="cls-1" d="M57,53.93v-.36H59.6v.36H58.51v3.22h-.39V53.93Z"/><path class="cls-1" d="M62.7,55.39a2.34,2.34,0,0,1-.31,1.38,1.26,1.26,0,0,1-1.11.43,1.28,1.28,0,0,1-1.11-.43,2.54,2.54,0,0,1-.3-1.39,2.48,2.48,0,0,1,.31-1.4,1.22,1.22,0,0,1,1.1-.46,1.24,1.24,0,0,1,1.11.46A2.58,2.58,0,0,1,62.7,55.39Zm-2.42,0a2.42,2.42,0,0,0,.2,1.13,1.12,1.12,0,0,0,1.6,0,2.27,2.27,0,0,0,.2-1.13,2.44,2.44,0,0,0-.21-1.16,1,1,0,0,0-1.58,0A2.37,2.37,0,0,0,60.28,55.38Z"/><path class="cls-1" d="M66.32,57.15H65V53.57h1.28a1.12,1.12,0,0,1,1.16.7,2.72,2.72,0,0,1,.17,1c0,.9-.23,1.47-.67,1.7A1.34,1.34,0,0,1,66.32,57.15Zm.92-1.84c0-.69-.15-1.11-.46-1.28a1,1,0,0,0-.46-.11h-.88V56.8h.88C66.93,56.8,67.24,56.3,67.24,55.31Z"/><path class="cls-1" d="M68,57.15l1-3.58h.87l1,3.58h-.4l-.26-.92H68.65l-.26.92Zm1.28-3.24-.54,2H70.1l-.55-2Z"/><path class="cls-1" d="M73.37,57.15h-2V53.57h.4V56.8h1.57Z"/><path class="cls-1" d="M75.85,57.15h-2V53.57h.4V56.8h1.57Z"/><path class="cls-1" d="M76.31,53.54l.32-1.62h.59l-.48,1.62Z"/><path class="cls-1" d="M78.67,55.61q0,1.11,1.2,1.11a1.42,1.42,0,0,0,.94-.26,1.07,1.07,0,0,0,.31-.85V52h.56V55.6a1.54,1.54,0,0,1-.45,1.24,2,2,0,0,1-1.35.39,2,2,0,0,1-1.33-.39,1.54,1.54,0,0,1-.45-1.24V52h.57Z"/><path class="cls-1" d="M82.71,57.15V53.57h.75l1.37,3.23h.11V53.57h.39v3.58H84.6l-1.39-3.23h-.1v3.23Z"/><path class="cls-1" d="M86.21,57.15V53.57h.4v3.58Z"/><path class="cls-1" d="M90.17,55.39a2.43,2.43,0,0,1-.3,1.38,1.66,1.66,0,0,1-2.23,0,2.54,2.54,0,0,1-.3-1.39,2.48,2.48,0,0,1,.31-1.4,1.22,1.22,0,0,1,1.1-.46,1.24,1.24,0,0,1,1.11.46A2.5,2.5,0,0,1,90.17,55.39Zm-2.42,0A2.28,2.28,0,0,0,88,56.51a.83.83,0,0,0,.79.34.86.86,0,0,0,.8-.33,2.26,2.26,0,0,0,.21-1.13,2.31,2.31,0,0,0-.22-1.16,1,1,0,0,0-1.58,0A2.37,2.37,0,0,0,87.75,55.38Z"/><path class="cls-1" d="M90.9,57.15V53.57h.75L93,56.8h.11V53.57h.39v3.58h-.73L91.4,53.92h-.1v3.23Z"/><path class="cls-1" d="M94.4,57.15V53.57h2.18v.35H94.8v1.24h1.47v.35H94.8V56.8h1.78v.35Z"/><path class="cls-1" d="M98.89,57.15V53.57h2.18v.35H99.28v1.24h1.47v.35H99.28V56.8h1.79v.35Z"/><path class="cls-1" d="M102.12,56.08c0,.51.28.77.84.77a1,1,0,0,0,.65-.18.72.72,0,0,0,.23-.59V53.57h.39v2.5a1.09,1.09,0,0,1-.32.87,1.81,1.81,0,0,1-1.87,0,1.09,1.09,0,0,1-.32-.87v-2.5h.4Z"/><path class="cls-1" d="M105.48,55.78v1.37h-.4V53.57h1.33a1.19,1.19,0,0,1,.85.27,1,1,0,0,1,.29.82,1,1,0,0,1-.66,1l.69,1.45h-.44l-.64-1.37Zm.93-.35a.65.65,0,0,0,.73-.75c0-.51-.24-.76-.73-.76h-.93v1.51Z"/><path class="cls-1" d="M111,55.39a2.42,2.42,0,0,1-.31,1.38,1.65,1.65,0,0,1-2.22,0,2.53,2.53,0,0,1-.31-1.39,2.47,2.47,0,0,1,.32-1.4,1.55,1.55,0,0,1,2.2,0A2.49,2.49,0,0,1,111,55.39Zm-2.43,0a2.28,2.28,0,0,0,.21,1.13,1.12,1.12,0,0,0,1.6,0,2.39,2.39,0,0,0,.2-1.13,2.44,2.44,0,0,0-.21-1.16,1.06,1.06,0,0,0-1.59,0A2.37,2.37,0,0,0,108.53,55.38Z"/><path class="cls-1" d="M113,56h-.92v1.2h-.39V53.57H113a1.16,1.16,0,0,1,.86.29,1.18,1.18,0,0,1,.28.87C114.14,55.54,113.76,56,113,56Zm-.92-.35H113c.49,0,.74-.29.74-.87a.87.87,0,0,0-.18-.61.7.7,0,0,0-.56-.2h-.91Z"/><path class="cls-1" d="M114.75,57.15V53.57h2.18v.35h-1.78v1.24h1.47v.35h-1.47V56.8h1.78v.35Z"/><path class="cls-1" d="M117.3,57.15l1-3.58h.87l1,3.58h-.4l-.25-.92H118l-.26.92Zm1.29-3.24-.55,2h1.36l-.55-2Z"/><path class="cls-1" d="M122.39,55.38v-.52h2.24v.52Z"/><path class="cls-1" d="M127.38,57.15V52h3.06v.5H128v2h2.11V55H128v2.11Z"/><path class="cls-1" d="M133.77,55.39a2.43,2.43,0,0,1-.3,1.38,1.66,1.66,0,0,1-2.23,0,2.54,2.54,0,0,1-.3-1.39,2.48,2.48,0,0,1,.31-1.4,1.22,1.22,0,0,1,1.1-.46,1.24,1.24,0,0,1,1.11.46A2.5,2.5,0,0,1,133.77,55.39Zm-2.42,0a2.28,2.28,0,0,0,.21,1.13.83.83,0,0,0,.79.34.86.86,0,0,0,.8-.33,2.26,2.26,0,0,0,.21-1.13,2.31,2.31,0,0,0-.22-1.16,1,1,0,0,0-1.58,0A2.37,2.37,0,0,0,131.35,55.38Z"/><path class="cls-1" d="M134.5,57.15V53.57h.75l1.37,3.23h.11V53.57h.39v3.58h-.73L135,53.92h-.1v3.23Z"/><path class="cls-1" d="M139.28,57.15H138V53.57h1.28a1.12,1.12,0,0,1,1.16.7,2.74,2.74,0,0,1,.16,1c0,.9-.22,1.47-.67,1.7A1.33,1.33,0,0,1,139.28,57.15Zm.91-1.84c0-.69-.15-1.11-.46-1.28a.88.88,0,0,0-.45-.11h-.88V56.8h.88C139.89,56.8,140.19,56.3,140.19,55.31Z"/><path class="cls-1" d="M141.34,57.15V53.57h.4v3.58Z"/><path class="cls-1" d="M145.84,52.46c-.74,0-1.11.28-1.11.83a.71.71,0,0,0,.25.64,3.17,3.17,0,0,0,1,.35,2.68,2.68,0,0,1,1.1.45,1.14,1.14,0,0,1,.33.91,1.43,1.43,0,0,1-1.64,1.58,8.4,8.4,0,0,1-1.35-.13l-.26,0,.05-.48a12.82,12.82,0,0,0,1.54.14c.72,0,1.09-.35,1.09-1a.7.7,0,0,0-.24-.6,2.3,2.3,0,0,0-.9-.3,3.18,3.18,0,0,1-1.23-.48,1.19,1.19,0,0,1-.36-1c0-.92.55-1.37,1.65-1.37a8.19,8.19,0,0,1,1.29.11l.25,0-.05.48A14.45,14.45,0,0,0,145.84,52.46Z"/><path class="cls-1" d="M147.87,53.93v-.36h2.59v.36h-1.09v3.22H149V53.93Z"/><path class="cls-1" d="M151.36,55.78v1.37H151V53.57h1.32a1.22,1.22,0,0,1,.86.27,1.06,1.06,0,0,1,.29.82,1,1,0,0,1-.66,1l.69,1.45H153l-.65-1.37Zm.94-.35a.76.76,0,0,0,0-1.51h-.93v1.51Z"/><path class="cls-1" d="M154.53,56.08c0,.51.28.77.84.77a1,1,0,0,0,.65-.18.71.71,0,0,0,.22-.59V53.57h.39v2.5a1.09,1.09,0,0,1-.31.87,1.44,1.44,0,0,1-.94.26,1.41,1.41,0,0,1-.94-.26,1.09,1.09,0,0,1-.31-.87v-2.5h.4Z"/><path class="cls-1" d="M157.11,53.93v-.36h2.59v.36h-1.09v3.22h-.39V53.93Z"/><path class="cls-1" d="M159.84,53.93v-.36h2.59v.36h-1.1v3.22h-.39V53.93Z"/><path class="cls-1" d="M163.31,56.08c0,.51.27.77.83.77a1,1,0,0,0,.66-.18.75.75,0,0,0,.22-.59V53.57h.39v2.5a1.06,1.06,0,0,1-.32.87,1.81,1.81,0,0,1-1.87,0,1.09,1.09,0,0,1-.31-.87v-2.5h.4Z"/><path class="cls-1" d="M166.66,55.78v1.37h-.4V53.57h1.33a1.22,1.22,0,0,1,.86.27,1.06,1.06,0,0,1,.28.82,1,1,0,0,1-.65,1l.68,1.45h-.43l-.65-1.37Zm.93-.35a.76.76,0,0,0,0-1.51h-.93v1.51Z"/><path class="cls-1" d="M169.1,57.15l1-3.58H171l1,3.58h-.4l-.26-.92h-1.53l-.26.92Zm1.28-3.24-.54,2h1.36l-.55-2Z"/><path class="cls-1" d="M174.47,57.15h-2V53.57h.4V56.8h1.57Z"/><path class="cls-1" d="M175,57.15V53.57h.4v3.58Z"/><path class="cls-1" d="M177.88,57.15V53.57h2.18v.35h-1.78v1.24h1.47v.35h-1.47V56.8h1.78v.35Z"/><path class="cls-1" d="M183.65,57.15h-1.28V53.57h1.28a1.12,1.12,0,0,1,1.16.7,2.74,2.74,0,0,1,.16,1c0,.9-.22,1.47-.67,1.7A1.33,1.33,0,0,1,183.65,57.15Zm.91-1.84c0-.69-.15-1.11-.46-1.28a.88.88,0,0,0-.45-.11h-.88V56.8h.88C184.26,56.8,184.56,56.3,184.56,55.31Z"/><path class="cls-1" d="M185.71,57.15V53.57h.4v3.58Z"/><path class="cls-1" d="M188.8,57.15V52h.57v5.11Z"/><path class="cls-1" d="M190.43,57.15V53.57h.74l1.37,3.23h.11V53.57h.4v3.58h-.73l-1.4-3.23h-.09v3.23Z"/><path class="cls-1" d="M196,53.57h.41l-.93,3.58h-.89l-.94-3.58H194l.83,3.23h.29Z"/><path class="cls-1" d="M196.94,57.15V53.57h2.18v.35h-1.78v1.24h1.47v.35h-1.47V56.8h1.78v.35Z"/><path class="cls-1" d="M200.78,53.87c-.52,0-.78.19-.78.58a.5.5,0,0,0,.18.45,2.4,2.4,0,0,0,.73.24,1.81,1.81,0,0,1,.77.32.8.8,0,0,1,.23.64c0,.73-.39,1.1-1.15,1.1a6.1,6.1,0,0,1-.94-.09l-.19,0,0-.34a7.77,7.77,0,0,0,1.07.1c.51,0,.77-.24.77-.72a.5.5,0,0,0-.17-.42,1.73,1.73,0,0,0-.63-.21,2.15,2.15,0,0,1-.86-.34.81.81,0,0,1-.25-.68c0-.64.38-1,1.15-1a6.73,6.73,0,0,1,.91.08l.17,0,0,.33C201.32,53.9,201,53.87,200.78,53.87Z"/><path class="cls-1" d="M202.22,53.93v-.36h2.59v.36h-1.09v3.22h-.4V53.93Z"/><path class="cls-1" d="M205.32,57.15V53.57h.4v3.58Z"/><path class="cls-1" d="M206.59,57.15V53.57h.72l1,3,1-3h.72v3.58h-.4V54h-.07l-1,3h-.45l-1-3H207v3.15Z"/><path class="cls-1" d="M210.94,57.15V53.57h2.18v.35h-1.78v1.24h1.47v.35h-1.47V56.8h1.78v.35Z"/><path class="cls-1" d="M213.8,57.15V53.57h.74l1.38,3.23h.1V53.57h.4v3.58h-.73l-1.39-3.23h-.1v3.23Z"/><path class="cls-1" d="M216.93,53.93v-.36h2.58v.36h-1.09v3.22H218V53.93Z"/><path class="cls-1" d="M222.61,55.39a2.34,2.34,0,0,1-.31,1.38,1.26,1.26,0,0,1-1.11.43,1.28,1.28,0,0,1-1.11-.43,2.54,2.54,0,0,1-.3-1.39,2.48,2.48,0,0,1,.31-1.4,1.22,1.22,0,0,1,1.1-.46,1.24,1.24,0,0,1,1.11.46A2.58,2.58,0,0,1,222.61,55.39Zm-2.42,0a2.42,2.42,0,0,0,.2,1.13,1.12,1.12,0,0,0,1.6,0,2.27,2.27,0,0,0,.2-1.13,2.44,2.44,0,0,0-.21-1.16,1,1,0,0,0-1.58,0A2.37,2.37,0,0,0,220.19,55.38Z"/><path class="cls-1" d="M225.14,57.15V52h3.12v.5h-2.55v1.77h2.1v.49h-2.1v1.85h2.55v.5Z"/><path class="cls-1" d="M229.42,56.08c0,.51.27.77.83.77a1,1,0,0,0,.66-.18.71.71,0,0,0,.22-.59V53.57h.39v2.5a1.06,1.06,0,0,1-.32.87,1.81,1.81,0,0,1-1.87,0,1.09,1.09,0,0,1-.31-.87v-2.5h.4Z"/><path class="cls-1" d="M232.77,55.78v1.37h-.39V53.57h1.32a1.22,1.22,0,0,1,.86.27,1.06,1.06,0,0,1,.29.82,1,1,0,0,1-.66,1l.69,1.45h-.44l-.65-1.37Zm.94-.35a.76.76,0,0,0,0-1.51h-.93v1.51Z"/><path class="cls-1" d="M238.25,55.39a2.34,2.34,0,0,1-.31,1.38,1.26,1.26,0,0,1-1.11.43,1.28,1.28,0,0,1-1.11-.43,2.54,2.54,0,0,1-.3-1.39,2.48,2.48,0,0,1,.31-1.4,1.22,1.22,0,0,1,1.1-.46,1.24,1.24,0,0,1,1.11.46A2.5,2.5,0,0,1,238.25,55.39Zm-2.42,0a2.28,2.28,0,0,0,.21,1.13.83.83,0,0,0,.79.34.86.86,0,0,0,.8-.33,2.26,2.26,0,0,0,.21-1.13,2.31,2.31,0,0,0-.22-1.16,1,1,0,0,0-1.58,0A2.37,2.37,0,0,0,235.83,55.38Z"/><path class="cls-1" d="M240.29,56h-.91v1.2H239V53.57h1.31a1.14,1.14,0,0,1,.86.29,1.18,1.18,0,0,1,.28.87C241.43,55.54,241.05,56,240.29,56Zm-.91-.35h.9c.5,0,.74-.29.74-.87a.87.87,0,0,0-.17-.61.74.74,0,0,0-.57-.2h-.9Z"/><path class="cls-1" d="M242.05,57.15V53.57h2.18v.35h-1.78v1.24h1.47v.35h-1.47V56.8h1.78v.35Z"/><path class="cls-1" d="M244.91,57.15V53.57h.4v3.58Z"/><path class="cls-1" d="M248,58.79V51.84h.55v6.95Z"/><path class="cls-1" d="M253.2,55.43h-1.3v1.72h-.57V52h1.87a1.66,1.66,0,0,1,1.23.4,1.71,1.71,0,0,1,.4,1.25C254.83,54.85,254.29,55.43,253.2,55.43Zm-1.3-.5h1.29c.71,0,1.06-.42,1.06-1.24a1.29,1.29,0,0,0-.25-.87,1,1,0,0,0-.81-.28H251.9Z"/><path class="cls-1" d="M255.92,55.78v1.37h-.4V53.57h1.33a1.19,1.19,0,0,1,.85.27,1,1,0,0,1,.29.82,1,1,0,0,1-.66,1l.69,1.45h-.44l-.64-1.37Zm.93-.35a.65.65,0,0,0,.73-.75c0-.51-.24-.76-.73-.76h-.93v1.51Z"/><path class="cls-1" d="M261.4,55.39a2.42,2.42,0,0,1-.31,1.38,1.65,1.65,0,0,1-2.22,0,2.54,2.54,0,0,1-.3-1.39,2.48,2.48,0,0,1,.31-1.4,1.55,1.55,0,0,1,2.2,0A2.49,2.49,0,0,1,261.4,55.39Zm-2.43,0a2.28,2.28,0,0,0,.21,1.13,1.12,1.12,0,0,0,1.6,0,2.39,2.39,0,0,0,.2-1.13,2.44,2.44,0,0,0-.21-1.16,1.06,1.06,0,0,0-1.59,0A2.37,2.37,0,0,0,259,55.38Z"/><path class="cls-1" d="M263.54,55.68v-.36h1v1.76a6.44,6.44,0,0,1-1.16.12,1.23,1.23,0,0,1-1.09-.45,3.37,3.37,0,0,1,0-2.78,1.21,1.21,0,0,1,1.08-.45,5.06,5.06,0,0,1,1,.1l.17,0V54a6.11,6.11,0,0,0-1.12-.11.86.86,0,0,0-.8.34,3.38,3.38,0,0,0,0,2.29.86.86,0,0,0,.8.34,3.78,3.78,0,0,0,.74-.07v-1.1Z"/><path class="cls-1" d="M265.71,55.78v1.37h-.4V53.57h1.33a1.23,1.23,0,0,1,.86.27,1.06,1.06,0,0,1,.28.82,1,1,0,0,1-.65,1l.68,1.45h-.44l-.64-1.37Zm.93-.35a.65.65,0,0,0,.73-.75c0-.51-.24-.76-.73-.76h-.93v1.51Z"/><path class="cls-1" d="M268.16,57.15l1-3.58H270l1,3.58h-.39l-.26-.92h-1.53l-.26.92Zm1.28-3.24-.54,2h1.35l-.54-2Z"/><path class="cls-1" d="M271.56,57.15V53.57h.72l1,3,1-3H275v3.58h-.39V54h-.08l-1,3h-.44l-1-3H272v3.15Z"/><path class="cls-1" d="M275.9,57.15V53.57h.72l1,3,1-3h.72v3.58H279V54h-.07l-1,3h-.44l-1-3h-.08v3.15Z"/><path class="cls-1" d="M279.94,57.15l1-3.58h.87l1,3.58h-.39l-.26-.92h-1.53l-.26.92Zm1.28-3.24-.54,2H282l-.54-2Z"/><path class="cls-1" d="M289,54.63a3.5,3.5,0,0,1-.43,2,1.82,1.82,0,0,1-1.59.62,1.79,1.79,0,0,1-1.58-.63,3.54,3.54,0,0,1-.44-2,3.64,3.64,0,0,1,.44-2A1.77,1.77,0,0,1,287,52a1.8,1.8,0,0,1,1.58.65A3.63,3.63,0,0,1,289,54.63Zm-3.46,0a3.23,3.23,0,0,0,.3,1.61,1.58,1.58,0,0,0,2.28,0,3.19,3.19,0,0,0,.29-1.61,3.46,3.46,0,0,0-.3-1.65,1.52,1.52,0,0,0-2.27,0A3.39,3.39,0,0,0,285.52,54.62Z"/><path class="cls-1" d="M291.15,56h-.91v1.2h-.4V53.57h1.31a1.14,1.14,0,0,1,.86.29,1.18,1.18,0,0,1,.28.87C292.29,55.54,291.91,56,291.15,56Zm-.91-.35h.9c.5,0,.74-.29.74-.87a.93.93,0,0,0-.17-.61.74.74,0,0,0-.57-.2h-.9Z"/><path class="cls-1" d="M292.91,57.15V53.57h2.18v.35h-1.78v1.24h1.47v.35h-1.47V56.8h1.78v.35Z"/><path class="cls-1" d="M296.17,55.78v1.37h-.4V53.57h1.32a1.22,1.22,0,0,1,.86.27,1.06,1.06,0,0,1,.29.82,1,1,0,0,1-.66,1l.69,1.45h-.44l-.65-1.37Zm.93-.35a.65.65,0,0,0,.73-.75.66.66,0,0,0-.74-.76h-.92v1.51Z"/><path class="cls-1" d="M298.61,57.15l1-3.58h.87l1,3.58h-.4l-.26-.92h-1.53l-.26.92Zm1.28-3.24-.54,2h1.36l-.55-2Z"/><path class="cls-1" d="M301.4,53.93v-.36H304v.36H302.9v3.22h-.4V53.93Z"/><path class="cls-1" d="M304.5,57.15V53.57h.39v3.58Z"/><path class="cls-1" d="M307.8,53.57h.42l-.94,3.58h-.89l-.94-3.58h.42l.82,3.23H307Z"/><path class="cls-1" d="M311.41,55.39a2.34,2.34,0,0,1-.31,1.38,1.26,1.26,0,0,1-1.11.43,1.28,1.28,0,0,1-1.11-.43,2.54,2.54,0,0,1-.3-1.39,2.48,2.48,0,0,1,.31-1.4,1.22,1.22,0,0,1,1.1-.46,1.24,1.24,0,0,1,1.11.46A2.5,2.5,0,0,1,311.41,55.39Zm-2.42,0a2.42,2.42,0,0,0,.2,1.13,1.12,1.12,0,0,0,1.6,0,2.26,2.26,0,0,0,.21-1.13,2.31,2.31,0,0,0-.22-1.16,1,1,0,0,0-1.58,0A2.37,2.37,0,0,0,309,55.38Z"/><path class="cls-1" d="M317,57.07a6.49,6.49,0,0,1-1.37.16,2.46,2.46,0,0,1-1-.17,1.2,1.2,0,0,1-.57-.52,2.23,2.23,0,0,1-.28-.8,6.14,6.14,0,0,1-.08-1.14,6.21,6.21,0,0,1,.08-1.14,2.34,2.34,0,0,1,.28-.82,1.14,1.14,0,0,1,.57-.51,2.39,2.39,0,0,1,1-.17,7,7,0,0,1,1.39.17l0,.48a7.62,7.62,0,0,0-1.33-.14,1.11,1.11,0,0,0-1.08.49,3.79,3.79,0,0,0-.26,1.65,7.69,7.69,0,0,0,.05.94,1.91,1.91,0,0,0,.19.64.8.8,0,0,0,.41.4,1.82,1.82,0,0,0,.79.13,6.8,6.8,0,0,0,1.23-.14Z"/><path class="cls-1" d="M317.77,57.15V53.57h.4v3.58Z"/><path class="cls-1" d="M318.67,53.93v-.36h2.59v.36h-1.09v3.22h-.39V53.93Z"/><path class="cls-1" d="M321.4,53.93v-.36H324v.36h-1.1v3.22h-.39V53.93Z"/><path class="cls-1" d="M323.94,57.15l1-3.58h.87l1,3.58h-.39l-.26-.92h-1.53l-.26.92Zm.85-4.82,1.12.52-.12.28-1.13-.45Zm.43,1.58-.54,2H326l-.54-2Z"/><path class="cls-1" d="M329.15,57.15V52h1l1.45,4.32L333.08,52h1v5.11h-.57V52.64h-.1L331.94,57h-.63l-1.49-4.33h-.1v4.51Z"/><path class="cls-1" d="M335.17,57.15V53.57h2.18v.35h-1.78v1.24H337v.35h-1.47V56.8h1.78v.35Z"/><path class="cls-1" d="M337.66,53.93v-.36h2.59v.36h-1.09v3.22h-.4V53.93Z"/><path class="cls-1" d="M341.15,55.78v1.37h-.39V53.57h1.32a1.22,1.22,0,0,1,.86.27,1.06,1.06,0,0,1,.29.82,1,1,0,0,1-.66,1l.69,1.45h-.44l-.65-1.37Zm.94-.35a.76.76,0,0,0,0-1.51h-.93v1.51Z"/><path class="cls-1" d="M346.63,55.39a2.34,2.34,0,0,1-.31,1.38,1.26,1.26,0,0,1-1.11.43,1.28,1.28,0,0,1-1.11-.43,2.54,2.54,0,0,1-.3-1.39,2.48,2.48,0,0,1,.31-1.4,1.22,1.22,0,0,1,1.1-.46,1.24,1.24,0,0,1,1.11.46A2.5,2.5,0,0,1,346.63,55.39Zm-2.42,0a2.28,2.28,0,0,0,.21,1.13.83.83,0,0,0,.79.34.86.86,0,0,0,.8-.33,2.26,2.26,0,0,0,.21-1.13,2.31,2.31,0,0,0-.22-1.16,1,1,0,0,0-1.58,0A2.37,2.37,0,0,0,344.21,55.38Z"/><path class="cls-1" d="M348.67,56h-.91v1.2h-.4V53.57h1.31a1.14,1.14,0,0,1,.86.29,1.18,1.18,0,0,1,.28.87C349.81,55.54,349.43,56,348.67,56Zm-.91-.35h.91c.49,0,.73-.29.73-.87a.87.87,0,0,0-.17-.61.73.73,0,0,0-.56-.2h-.91Z"/><path class="cls-1" d="M353.12,55.39a2.42,2.42,0,0,1-.31,1.38,1.65,1.65,0,0,1-2.22,0,2.53,2.53,0,0,1-.31-1.39,2.47,2.47,0,0,1,.32-1.4,1.55,1.55,0,0,1,2.2,0A2.49,2.49,0,0,1,353.12,55.39Zm-2.43,0a2.28,2.28,0,0,0,.21,1.13.85.85,0,0,0,.8.34.87.87,0,0,0,.8-.33,2.39,2.39,0,0,0,.2-1.13,2.44,2.44,0,0,0-.21-1.16,1.06,1.06,0,0,0-1.59,0A2.37,2.37,0,0,0,350.69,55.38Z"/><path class="cls-1" d="M355.82,57.15h-2V53.57h.4V56.8h1.58Z"/><path class="cls-1" d="M356.32,57.15V53.57h.4v3.58Z"/><path class="cls-1" d="M357.22,53.93v-.36h2.59v.36h-1.09v3.22h-.39V53.93Z"/><path class="cls-1" d="M359.77,57.15l1-3.58h.87l1,3.58h-.39l-.26-.92h-1.53l-.26.92Zm1.28-3.24-.54,2h1.35l-.54-2Z"/><path class="cls-1" d="M363.17,57.15V53.57h.74l1.37,3.23h.11V53.57h.4v3.58h-.73l-1.4-3.23h-.1v3.23Z"/><path class="cls-1" d="M366.66,57.15V53.57h2.18v.35h-1.78v1.24h1.47v.35h-1.47V56.8h1.78v.35Z"/><path class="cls-1" d="M374.34,57.15h-3.12v-.48l1.43-1.5.54-.58a2.46,2.46,0,0,0,.3-.48,1.09,1.09,0,0,0,.14-.54.79.79,0,0,0-.26-.67,1.33,1.33,0,0,0-.8-.19,5.56,5.56,0,0,0-1.08.12l-.19,0,0-.47a5.4,5.4,0,0,1,1.45-.2,1.72,1.72,0,0,1,1.12.31,1.2,1.2,0,0,1,.38,1,1.77,1.77,0,0,1-.22.9,4.86,4.86,0,0,1-.8.92l-1.3,1.33h2.45Z"/><path class="cls-1" d="M376.91,52.19a1.93,1.93,0,0,1,1,.23c.53.32.79,1.11.79,2.37a3.05,3.05,0,0,1-.44,1.89,1.62,1.62,0,0,1-1.33.55,1.59,1.59,0,0,1-1.33-.55,3.08,3.08,0,0,1-.45-1.93,3.33,3.33,0,0,1,.44-2A1.55,1.55,0,0,1,376.91,52.19Zm0,.51a1.08,1.08,0,0,0-.66.18c-.35.24-.53.88-.53,1.91a2.89,2.89,0,0,0,.29,1.52,1.18,1.18,0,0,0,1.8,0,3,3,0,0,0,.29-1.56,3.19,3.19,0,0,0-.28-1.59A1,1,0,0,0,376.92,52.7Z"/><path class="cls-1" d="M381.87,52.27v4.88h-.57V52.91l-1.26.83-.26-.43,1.56-1Z"/><path class="cls-1" d="M385.79,57.15V56.2h-2.36v-.44l1.39-3.49h.62L384,55.7h1.76V54.17h.57V55.7H387v.5h-.62v.95Z"/><path class="cls-1" d="M387.77,55.38v-.52H390v.52Z"/><path class="cls-1" d="M394.14,57.15H391v-.48l1.43-1.5.54-.58a2.46,2.46,0,0,0,.3-.48,1.09,1.09,0,0,0,.14-.54.79.79,0,0,0-.26-.67,1.33,1.33,0,0,0-.8-.19,5.56,5.56,0,0,0-1.08.12l-.19,0,0-.47a5.4,5.4,0,0,1,1.45-.2,1.72,1.72,0,0,1,1.12.31,1.2,1.2,0,0,1,.38,1,1.77,1.77,0,0,1-.22.9,4.86,4.86,0,0,1-.8.92l-1.3,1.33h2.45Z"/><path class="cls-1" d="M396.71,52.19a1.91,1.91,0,0,1,1,.23c.53.32.8,1.11.8,2.37a3,3,0,0,1-.45,1.89,1.62,1.62,0,0,1-1.33.55,1.59,1.59,0,0,1-1.33-.55,3.08,3.08,0,0,1-.45-1.93,3.4,3.4,0,0,1,.44-2A1.55,1.55,0,0,1,396.71,52.19Zm0,.51a1.08,1.08,0,0,0-.66.18c-.35.24-.53.88-.53,1.91a2.89,2.89,0,0,0,.29,1.52,1.18,1.18,0,0,0,1.8,0,2.88,2.88,0,0,0,.29-1.56,3.19,3.19,0,0,0-.28-1.59A1,1,0,0,0,396.72,52.7Z"/><path class="cls-1" d="M402.42,57.15H399.3v-.48l1.43-1.5.54-.58a2.46,2.46,0,0,0,.3-.48,1.09,1.09,0,0,0,.14-.54.76.76,0,0,0-.26-.67,1.33,1.33,0,0,0-.8-.19,5.56,5.56,0,0,0-1.08.12l-.19,0,0-.47a5.4,5.4,0,0,1,1.45-.2,1.75,1.75,0,0,1,1.13.31,1.23,1.23,0,0,1,.38,1,1.77,1.77,0,0,1-.23.9,5.13,5.13,0,0,1-.79.92L400,56.66h2.45Z"/><path class="cls-1" d="M405,52.19a1.89,1.89,0,0,1,1,.23c.53.32.8,1.11.8,2.37a3,3,0,0,1-.45,1.89,1.88,1.88,0,0,1-2.66,0,3.08,3.08,0,0,1-.45-1.93,3.4,3.4,0,0,1,.44-2A1.56,1.56,0,0,1,405,52.19Zm0,.51a1.08,1.08,0,0,0-.66.18c-.35.24-.53.88-.53,1.91a2.89,2.89,0,0,0,.29,1.52,1.18,1.18,0,0,0,1.8,0,2.88,2.88,0,0,0,.29-1.56,3.33,3.33,0,0,0-.27-1.59A1,1,0,0,0,405,52.7Z"/><path class="cls-1" d="M407.46,53.53l.33-1.62h.58l-.47,1.62Zm1.19,0,.32-1.62h.59l-.48,1.62Z"/><path class="cls-2" d="M7.29,23.29A25.58,25.58,0,0,1,23.07,20.9a14.81,14.81,0,0,1,6.08,2.92,51.17,51.17,0,0,1,5,5.18c6.3,6.48,17.64,11.1,26,5.64.29-.19.7-.73.32-1s-1-.05-1.39.19c-3.93,2.57-9.07,1.92-13.25.48a25.5,25.5,0,0,1-6.69-3.67,36.22,36.22,0,0,1-5.5-5.36,17.3,17.3,0,0,0-11.32-6.07,29.69,29.69,0,0,0-15.61,3c-1.18.58-.6,1.74.58,1.17"/><path class="cls-3" d="M11.48,21.91,5.12,9.16c-.44-.87-1.74-.11-1.31.76Q7,16.3,10.18,22.67c.43.87,1.74.1,1.3-.76"/><path class="cls-3" d="M19.57,22.07V7.18a.76.76,0,0,0-1.51,0V22.07a.76.76,0,0,0,1.51,0"/><path class="cls-3" d="M9,12l1.72,3.89c.4.89,1.7.12,1.31-.76l-1.73-3.89c-.39-.88-1.69-.12-1.3.76"/><path class="cls-3" d="M14,11c.21,1.22.43,2.44.64,3.66.17,1,1.63.56,1.46-.4-.22-1.22-.43-2.44-.65-3.66-.17-1-1.62-.56-1.45.4"/><path class="cls-3" d="M3.84,10.4,19.49,7.51c1-.18.55-1.63-.41-1.46L3.44,9c-1,.18-.55,1.63.4,1.45"/><path class="cls-4" d="M25.37,22.7,29,13.1c.35-.91-1.11-1.3-1.45-.4l-3.62,9.6c-.34.92,1.12,1.31,1.46.4"/><path class="cls-4" d="M22.69,13.69l-1.08,2.8c-.35.91,1.11,1.3,1.46.4l1.08-2.8c.35-.91-1.11-1.3-1.46-.4"/><path class="cls-4" d="M29.16,11.94,19.3,9a.75.75,0,0,0-.4,1.45l9.85,3a.75.75,0,0,0,.41-1.45"/><path class="cls-5" d="M27.31,11.7l4-10.25c.36-.91-1.1-1.3-1.45-.4q-2,5.12-4,10.25c-.35.91,1.11,1.3,1.46.4"/><path class="cls-5" d="M30.9,27.42,43,8.21c.52-.82-.79-1.58-1.31-.76L29.6,26.65c-.52.83.78,1.59,1.3.77"/><path class="cls-5" d="M34,8.76c-.58,1.08-1.16,2.16-1.73,3.24-.46.86.84,1.62,1.3.76l1.73-3.24c.46-.86-.85-1.62-1.3-.76"/><path class="cls-5" d="M31,14.74l-1.73,2.8c-.51.83.8,1.59,1.31.76l1.72-2.8c.51-.83-.79-1.59-1.3-.76"/><path class="cls-5" d="M29.51,1.41,42.82,8.79c.86.47,1.62-.84.77-1.31L30.27.1a.76.76,0,0,0-.76,1.31"/><path class="cls-6" d="M35.32,31.88l11.43-9.71c.74-.63-.33-1.69-1.07-1.06L34.25,30.82c-.75.63.33,1.69,1.07,1.06"/><path class="cls-6" d="M38.45,18.47c-.44.72-.87,1.44-1.3,2.16a.75.75,0,0,0,1.3.76c.44-.72.87-1.44,1.3-2.16a.75.75,0,0,0-1.3-.76"/><path class="cls-6" d="M38.13,23.5,36.84,25a.75.75,0,0,0,0,1.06.74.74,0,0,0,1.06,0c.44-.5.87-1,1.3-1.51a.75.75,0,1,0-1.07-1.06"/><path class="cls-6" d="M47.86,21.42l-8.08-7.66c-.71-.66-1.78.4-1.07,1.07l8.08,7.66c.71.67,1.78-.39,1.07-1.07"/><path class="cls-7" d="M9.15,28.06a1.09,1.09,0,0,0-.26-.76.89.89,0,0,0-.7-.29.55.55,0,0,0-.63.62v1.48a1.41,1.41,0,0,0,.73.19A.72.72,0,0,0,9,28.89a1.64,1.64,0,0,0,.19-.83m1,0a2.49,2.49,0,0,1-.49,1.57,1.66,1.66,0,0,1-1.41.7,2.32,2.32,0,0,1-.74-.1v1a.49.49,0,0,1-.15.38.57.57,0,0,1-.37.14.52.52,0,0,1-.36-.14.46.46,0,0,1-.16-.38V26.49a.49.49,0,0,1,.15-.38A.57.57,0,0,1,7,26a.49.49,0,0,1,.39.17A1.67,1.67,0,0,1,8.19,26a1.91,1.91,0,0,1,1.46.62,2.09,2.09,0,0,1,.55,1.47"/><path class="cls-7" d="M14.31,28.18a1.22,1.22,0,0,0-.31-.85,1.11,1.11,0,0,0-.82-.32,1.06,1.06,0,0,0-.8.33,1.16,1.16,0,0,0-.31.84c0,.79.37,1.18,1.11,1.18a1.11,1.11,0,0,0,.84-.31,1.25,1.25,0,0,0,.29-.87m1,0a2.22,2.22,0,0,1-.59,1.59,2.06,2.06,0,0,1-1.58.62,2.09,2.09,0,0,1-1.6-.62A2.25,2.25,0,0,1,11,28.18a2.22,2.22,0,0,1,.61-1.57,2.22,2.22,0,0,1,3.12,0,2.2,2.2,0,0,1,.6,1.57"/><path class="cls-7" d="M20.3,29.81a.5.5,0,0,1-.15.39.56.56,0,0,1-.37.13.54.54,0,0,1-.37-.13.5.5,0,0,1-.15-.39V27.59a.52.52,0,0,0-.36-.51,2,2,0,0,0-.77-.09c-.82,0-1.06,0-.74,0v2.8a.51.51,0,0,1-.15.39.52.52,0,0,1-.37.13.52.52,0,0,1-.36-.13.47.47,0,0,1-.16-.39V26h2.33a1.61,1.61,0,0,1,1.17.45,1.58,1.58,0,0,1,.45,1.17Z"/><path class="cls-7" d="M13.56,35.85a.5.5,0,0,1-.15.39.59.59,0,0,1-.74,0,.5.5,0,0,1-.15-.39V33.64a.52.52,0,0,0-.36-.52,2,2,0,0,0-.77-.09c-.82,0-1.06,0-.73,0v2.81a.46.46,0,0,1-.16.38.52.52,0,0,1-.36.13.54.54,0,0,1-.37-.13.5.5,0,0,1-.15-.39V33.64a.52.52,0,0,0-.36-.52A2.08,2.08,0,0,0,8.48,33c-.82,0-1.06,0-.74,0v2.8a.5.5,0,0,1-.15.39.52.52,0,0,1-.37.13.52.52,0,0,1-.36-.13.47.47,0,0,1-.16-.39V32h5.24a1.62,1.62,0,0,1,1.17.45,1.59,1.59,0,0,1,.45,1.18Z"/><path class="cls-7" d="M17.62,33.89c-.12-.58-.42-.88-.92-.88a1,1,0,0,0-1.13.88Zm1.09,1h-3a1.05,1.05,0,0,0,1,.47.54.54,0,0,1,.42.16.53.53,0,0,1,.15.37.49.49,0,0,1-.15.36.57.57,0,0,1-.42.15,2.14,2.14,0,0,1-1.57-.6,2.17,2.17,0,0,1-.6-1.59,2.29,2.29,0,0,1,.58-1.65A2.09,2.09,0,0,1,16.7,32a1.8,1.8,0,0,1,1.54.74,2.77,2.77,0,0,1,.47,1.67Z"/><path class="cls-7" d="M21.72,32.09a.49.49,0,0,1,.38.15.51.51,0,0,1,.14.36.52.52,0,0,1-.14.36.46.46,0,0,1-.38.16H21V35a1.16,1.16,0,0,0,0,.33c0,.06.12.09.26.09a1.8,1.8,0,0,0,.37,0,.5.5,0,0,1,.41.14.46.46,0,0,1,.19.38c0,.38-.33.56-1,.56-.89,0-1.33-.48-1.33-1.45V33.11A.46.46,0,0,1,19.6,33a.55.55,0,0,1-.12-.35c0-.16.16-.33.46-.51v-.42a.46.46,0,0,1,.16-.38.52.52,0,0,1,.36-.14.53.53,0,0,1,.37.14.46.46,0,0,1,.16.38v.42Z"/><path class="cls-7" d="M25.58,32a.51.51,0,0,1,.43.54.53.53,0,0,1-.12.35.4.4,0,0,1-.34.14.32.32,0,0,1-.12,0h-.12a1.27,1.27,0,0,0-.76.32.9.9,0,0,0-.41.67v1.84a.5.5,0,0,1-.15.39.56.56,0,0,1-.37.13.52.52,0,0,1-.36-.13.47.47,0,0,1-.16-.39V32.6a.49.49,0,0,1,.15-.38.57.57,0,0,1,.37-.14.48.48,0,0,1,.51.42,1.27,1.27,0,0,1,.47-.37,1.52,1.52,0,0,1,.66-.15,1.17,1.17,0,0,1,.32,0"/><path class="cls-7" d="M29.92,34.23a1.18,1.18,0,0,0-.31-.86,1.1,1.1,0,0,0-.81-.32,1,1,0,0,0-.8.33,1.18,1.18,0,0,0-.32.85c0,.78.37,1.17,1.12,1.17a1.1,1.1,0,0,0,.83-.31,1.24,1.24,0,0,0,.29-.86m1,0a2.23,2.23,0,0,1-.59,1.59,2.07,2.07,0,0,1-1.57.61,2.09,2.09,0,0,1-1.6-.62,2.43,2.43,0,0,1,.05-3.16A2,2,0,0,1,28.8,32a2.09,2.09,0,0,1,1.56.63,2.21,2.21,0,0,1,.6,1.58"/><path class="cls-8" d="M139.72,23l.1.09a.78.78,0,0,1,.25.18l.23.14c.14.07.25.06.32-.05s0-.16-.16-.24l-.22,0,0-.07.28-.14a4.72,4.72,0,0,0,.55-.34c.16-.12.3-.24.42-.35h.09l-.17.2a10.26,10.26,0,0,1-.85.63l.11.05a8.26,8.26,0,0,0,.93-.8c.1-.09.1-.17,0-.23a1.26,1.26,0,0,0-.5.14.71.71,0,0,1-.48.08l0,.18a.15.15,0,0,1-.12.17l-.35.23,0,.18h-.09l-.29-.12Z"/><path class="cls-8" d="M145.4,23.28l.17,0a.82.82,0,0,0,.38-.2l.26-.08,0-.05-.1,0L146,23l-.23,0a1,1,0,0,0-.24.07l-.15.13Z"/><path class="cls-8" d="M144.86,22.52a2.62,2.62,0,0,0,.45.38h.14a.55.55,0,0,1,.33-.06L145,22.2c-.28-.09-.46-.1-.54-.05Z"/><polygon class="cls-8" points="144.83 22.79 144.87 22.93 145.02 22.96 144.83 22.79"/><path class="cls-9" d="M137.54,9.88a11.22,11.22,0,0,1,1.16,0l.18.92a7.07,7.07,0,0,1,1.22.21l.44-.83c.18.05.92.3,1.1.38l-.1.94a7.76,7.76,0,0,1,1.1.59l.66-.64c.17.1.79.59.94.72l-.37.86a8.39,8.39,0,0,1,.87.92l.81-.39a10.72,10.72,0,0,1,.68,1l-.6.7a8.37,8.37,0,0,1,.56,1.17l.89-.12c.07.19.31,1,.36,1.16l-.78.47a8.2,8.2,0,0,1,.19,1.29l.88.18c0,.2,0,1,0,1.22l-.88.19a9.11,9.11,0,0,1-.19,1.29l.78.47c0,.19-.29,1-.36,1.15l-.89-.1a9.53,9.53,0,0,1-.56,1.16l.6.7c-.1.16-.54.82-.67,1l-.82-.39a9.56,9.56,0,0,1-.88.92l.38.86c-.15.12-.77.6-.93.71l-.68-.64a8.31,8.31,0,0,1-1.09.6l.1.94c-.18.07-.92.32-1.1.37l-.45-.82a10,10,0,0,1-1.22.21l-.17.92c-.19,0-1,0-1.16,0l-.18-.93a10.17,10.17,0,0,1-1.23-.2l-.44.82c-.18-.05-.91-.3-1.09-.37l.1-.95a8.38,8.38,0,0,1-1.11-.59l-.66.64c-.16-.11-.78-.58-.93-.71l.37-.86a12.65,12.65,0,0,1-.88-.92l-.82.39-.67-1,.61-.71A8.31,8.31,0,0,1,130,23.6l-.89.11c-.07-.19-.3-1-.36-1.15l.79-.47a9.8,9.8,0,0,1-.19-1.29l-.89-.19c0-.2,0-1,0-1.22l.89-.19a9.33,9.33,0,0,1,.19-1.29l-.79-.46c.06-.2.29-1,.36-1.16l.9.11a8.29,8.29,0,0,1,.56-1.16l-.61-.7c.1-.17.56-.83.67-1l.83.38a7.52,7.52,0,0,1,.87-.91l-.37-.86c.15-.13.77-.62.93-.72l.67.64a7.83,7.83,0,0,1,1.1-.59l-.1-.94c.18-.08.91-.33,1.09-.38l.45.83a6.6,6.6,0,0,1,1.23-.21l.17-.92h0"/><polygon class="cls-10" points="138.12 13.01 136.55 17.72 131.81 17.84 135.58 20.86 134.22 25.66 138.12 22.82 142.01 25.66 140.66 20.88 144.43 17.84 139.69 17.73 138.12 13.01"/><path class="cls-10" d="M132,16.31a7,7,0,0,1,4.73-3.57l-.21,5ZM132.9,25a7.68,7.68,0,0,1-1.76-5.85l4.44,1.74Zm8.1,1.79-2.88-3.94-3,3.91a6.73,6.73,0,0,0,5.83,0m4.11-7.55A7.67,7.67,0,0,1,143.28,25l-2.62-4.16Zm-5.55-6.46a7.05,7.05,0,0,1,4.7,3.64l-4.57,1.34Z"/><path class="cls-11" d="M138.12,13.16,136.6,17.7l0,.07h-.07l-4.57.12,3.63,2.91.06.05,0,.07-1.31,4.61,3.75-2.73.07,0,3.81,2.77-1.32-4.67,3.68-3-4.56-.11h-.07l0-.06Zm-1.68,4.4L138,12.8l.1-.3.09.3,1.6,4.76,5.08.13-4,3.25,1.36,4.83.09.3-4.18-3-4.19,3,.09-.3,1.37-4.84-4-3.24Z"/><path class="cls-7" d="M145.47,26.79s-.39-.2-.5-.09a2.4,2.4,0,0,0-.28.37l.06.59a1,1,0,0,1-.37.83,2.42,2.42,0,0,0-.58.85,1.33,1.33,0,0,1-.59.63,1,1,0,0,0-.25-.31l-.12-.05a15.67,15.67,0,0,0-2.1,1,3.18,3.18,0,0,0-.78.85h-.59a2.2,2.2,0,0,1-.52-.4c-.14-.11-.37-.07-.71.12a1.14,1.14,0,0,0-.94.2c-.2.08-.34.1-.43,0l-.75-.85a8.11,8.11,0,0,0-2.54-.92.89.89,0,0,0-.34.42,3.09,3.09,0,0,1-.68-.61l-.48-.57a1.43,1.43,0,0,1-.43-1.16l.08-.5,0-.17a.81.81,0,0,0-.42-.23s-.08,0-.16.26l-.5-.74a3.18,3.18,0,0,0,.53-1.14,7.12,7.12,0,0,0,.22-1.53l.06-.09a5.81,5.81,0,0,0,.46-2.42c0-.17-.06-.25-.11-.26l-.13,0,.1-.19c0-.14,0-.23,0-.28a.81.81,0,0,0-.55.1,4,4,0,0,0-.22-.84h-.09a2.38,2.38,0,0,0-.77,1.61l-.12.12A6.19,6.19,0,0,0,128.72,24a3.33,3.33,0,0,1-.23-.65,1.2,1.2,0,0,1-.07-.57.33.33,0,0,0-.08-.42,4.85,4.85,0,0,1-.4-1.45,4.49,4.49,0,0,1,.26-1,12.69,12.69,0,0,1,.8-1.67l.22-.22c.53-.14,2.88-3.35,2.64-4.85A12.9,12.9,0,0,0,133,11l.12,0,.15-.07c.51-.21,1-.44,1.35-.64l.61-.34a5.19,5.19,0,0,0,1.22-.79,1.81,1.81,0,0,0,.66-1.18c-.07-.1-.28-.15-.62-.16a1.11,1.11,0,0,0,.29-.67c-.14-.2-.53-.23-1.2-.1a5.36,5.36,0,0,0-1.82.85,7.29,7.29,0,0,0-1.43,1.3,7,7,0,0,0-1,1.59l.3-.75c.16-.35.32-.77.49-1.24a.78.78,0,0,0,0-.48c0-.09-.15-.12-.3-.08a3,3,0,0,0-.88.68,7.35,7.35,0,0,0-1.25,1.87,12.94,12.94,0,0,0-.74,1.75,3,3,0,0,0,0-1.24c-.05-.14-.16-.18-.33-.11a2,2,0,0,0-.49.53l-.47.68a10.34,10.34,0,0,0-.55.95,8.83,8.83,0,0,0-.55,1.45,13,13,0,0,0-.36,2.22,6.62,6.62,0,0,0,.13,1.9,6.87,6.87,0,0,0,.49,1.5c.16.32.31.51.46.56.09.24.21.63.36,1.18a1.77,1.77,0,0,1,.11.59.28.28,0,0,0,.1.28.63.63,0,0,1,.19.32,6.93,6.93,0,0,0,.53,1.43,4.34,4.34,0,0,0-.06.71c-.49-1.49-.89-2.62-1.19-3.38-.59-1.38-1-2-1.39-1.9a.53.53,0,0,0-.31.47c0,.1,0,.34,0,.74a11.73,11.73,0,0,0,.11,1.26,8.79,8.79,0,0,0,1.57,3.57l1.12,1.39a2.76,2.76,0,0,0,.64.52.71.71,0,0,0,.57.09,11,11,0,0,0,1,1.35c.25.4.5.59.77.57a.54.54,0,0,0,.5.38l.23,0a9.2,9.2,0,0,0,.86.78l-.29.86a10.83,10.83,0,0,1-1.41.14q-.6-.46-1.68-1.23l-.05-1a1.46,1.46,0,0,1,.17-.84c0-.19-.07-.35-.29-.5a1.16,1.16,0,0,0-.72-.21l-.11.17v.54l-1.45,0a.38.38,0,0,0-.32.16c-.09.1-.1.32,0,.65a.74.74,0,0,1,0,.3,4.13,4.13,0,0,1-.57,1.26q-.06.11.06.33a3.25,3.25,0,0,0,.57.71,6.4,6.4,0,0,0,.6.52c.28.2.75.51,1.44.93a17.85,17.85,0,0,0,2.31,1.26c.15,0,1.17-.13,3.05-.43l0,.17c-.54.43-.89.61-1,.53s-.28.19-.2.5a.51.51,0,0,0,.33.29l.2.24L134,37a1.06,1.06,0,0,0,.61,0,.63.63,0,0,0,.37-.5l.67-.71.44-.35a.94.94,0,0,0,.68-.39c0-.17.06-.28.14-.32l.53-.39c0-.05.24,0,.66.28a.73.73,0,0,0,.53,0l.4-.24a5.93,5.93,0,0,1,1.88,1.4.48.48,0,0,0,.17.34,1,1,0,0,0,.58.24l.22.42.21.08a1.29,1.29,0,0,0,.89-.35l.33-.12a.45.45,0,0,0,.23-.42l-.13-.14-.3-.08A5.5,5.5,0,0,1,142,35l-.25-.19a41.12,41.12,0,0,0,4.15.48,1.16,1.16,0,0,0,.82-.33c.34-.27,1.37-1,3.09-2.33a3.27,3.27,0,0,0,.61-1,2,2,0,0,1-.4-.64,3.08,3.08,0,0,1-.22-.71,1.19,1.19,0,0,1,0-.49.42.42,0,0,0-.14-.41c0-.08-.16-.13-.35-.15a5.14,5.14,0,0,0-1.1,0c-.19,0-.31-.07-.34-.15l0-.38c0-.18,0-.25-.14-.23a1.68,1.68,0,0,0-.81.36.33.33,0,0,0,0,.48.5.5,0,0,1,.17.37c-.07.71-.12,1.18-.17,1.43a9.5,9.5,0,0,1-1.52,1.14,3.42,3.42,0,0,1-1.43-.09,1.42,1.42,0,0,1-.36-.77,8.9,8.9,0,0,0,.81-.58l.49-.12c.14-.05.2-.18.2-.4a.53.53,0,0,0,.29-.35l.89-1.13a1.69,1.69,0,0,1,.93-.45,3.69,3.69,0,0,0,1.59-.73c.11-.12.11-.28,0-.5a4.87,4.87,0,0,0,.95-1,.92.92,0,0,0,.12-.85,3,3,0,0,0,.69-1.22,2.56,2.56,0,0,0,0-.87,2.1,2.1,0,0,0,.41-.33.56.56,0,0,0,.12-.38.55.55,0,0,0-.17-.41,1,1,0,0,0,.1-1.19c.09-.58,0-.95-.16-1.1s-.46-.1-.75.15c-.18-.1-.41,0-.7.27a.59.59,0,0,0,0-.37,1,1,0,0,0,.51-.42,1.71,1.71,0,0,0,.12-.74,3.66,3.66,0,0,1,.53-1.09c.23-.53.07-.71-.47-.55a1.14,1.14,0,0,0,.44-.73,1.34,1.34,0,0,0-.23-.74c-.07-.17-.18-.2-.32-.09a.93.93,0,0,0,.08-.39,2.8,2.8,0,0,0-.28-.95c0-.64-.17-.89-.43-.79a2.7,2.7,0,0,0-.3-.95c-.25-.39-.44-.49-.58-.3-.4-.63-.77-.89-1.12-.78a1.3,1.3,0,0,0-.26-.73,2,2,0,0,0-.34-.85c-.18-.07-.31,0-.38.32a2.87,2.87,0,0,0-.21-.74.59.59,0,0,0-.53-.4l-.27.05A.74.74,0,0,0,145,8.8c-.35-.39-.66-.42-.95-.1l0-.34c-.11-.39-.31-.48-.62-.26A4.39,4.39,0,0,0,142.12,7c-.3-.11-.49-.08-.58.08a1,1,0,0,0-.49-.31,3.51,3.51,0,0,1-.49-.15c-.23,0-.34.13-.31.41a1.35,1.35,0,0,0-.75.2.4.4,0,0,0-.11.48.92.92,0,0,0,.45.49.54.54,0,0,0-.08.36c0,.16.18.3.49.4a1.35,1.35,0,0,0,.69,0,.34.34,0,0,0,.25.46.93.93,0,0,0,1.1.25l0,.3.6.26a.76.76,0,0,0,.39.65l.24.1-.27.23c0,.06-.18.35.14.42a4.7,4.7,0,0,0,.76.05l.1.3a1.85,1.85,0,0,0,.33.44,2.35,2.35,0,0,0,.74.5,3.11,3.11,0,0,0-.15.42.94.94,0,0,0,0,.82l-.24.18c-.18.3.23.75.29.91l-.2.09c-.15.11-.1.64.31.73a4.25,4.25,0,0,1,.79.59c.05.05.17.3.36.56s.21.37.44.37a9,9,0,0,0,1,2.18,3.85,3.85,0,0,1,.54.88,4.78,4.78,0,0,0-.05.49,8.29,8.29,0,0,1-.26,1.43c-.43-.22-.5.08-.57.38l-.23.06c0-.18-.26-.34-.39-.24l-.22.17s-.06-.15-.06-.28a1.74,1.74,0,0,1,0-.5,2.88,2.88,0,0,0,.17-.27,3,3,0,0,0-.12-1.54.39.39,0,0,0-.24-.27.27.27,0,0,0-.3.18c0-.1-.17-.16-.29-.19-.34-.09-.7.59-.65,1.22-.25-.21-.57-.14-.53.21s.76,1.37.78,1.76c-.21-.19-.69-.2-.69.28a1.55,1.55,0,0,0,.16.5c-.1.52.47.89.92,1.37,0,.23.07.23.14.33s-.6,1-.6,1M129.5,25l.25-.65a5.12,5.12,0,0,0,.09,1.09Zm-1.33-9.3.13.16L127.88,17a10,10,0,0,1,.29-1.32m-.12,2.61.09-.47.25-.05-.31.87-.21.76.07-.65Zm1.54,8.23.1-.1.43.76-.05.1ZM127.24,20a6.77,6.77,0,0,1,.32-1.88c-.1.86-.19,1.53-.26,2Zm3.24,7.74.4.59.23.44.07.24a1.06,1.06,0,0,1-.36-.34l-.24-.34-.27-.37Zm-1.69-11.73.29-.07a9.21,9.21,0,0,0-.5,1.13l-.12,0Z"/><path class="cls-8" d="M145.16,26.82c.13,0,.31.07.26.19s-.09.3-.19.32-.31-.14-.31-.28a.23.23,0,0,1,.24-.23"/><path class="cls-8" d="M143.16,31l1-.66.06-.41a.52.52,0,0,0,.59.13.73.73,0,0,0,.44-.38,6.61,6.61,0,0,1,.6-.79,3.11,3.11,0,0,1,.82-.71.79.79,0,0,1,.21-.74l.5-.48a.84.84,0,0,1,.2-.94,1.17,1.17,0,0,1,0-.76c-.41.95-.68,1.53-.78,1.74s-.19.3-.26.26-.08-.2-.07-.52l-.17.32v.56a7.47,7.47,0,0,1-1.43,1.67,1,1,0,0,0-.34.25q-.22.09-.12-.12a1.2,1.2,0,0,1,.36-.27,1.5,1.5,0,0,0,.5-.65,11.59,11.59,0,0,1,1.05-2,15.16,15.16,0,0,1,1.15-1.63v-.4l-.7.79a8.74,8.74,0,0,0-.78,1,9.34,9.34,0,0,0-.69,1.16c-.13.11-.28.07-.44-.13l0,.41v.38a1.51,1.51,0,0,1-.35.65,3,3,0,0,0-.46.68c-.11.32-.52.67-1.23,1.06l-.18.16a2.55,2.55,0,0,1-.07.55Z"/><path class="cls-8" d="M141.57,31.63c.54-.22.84-.4.9-.55s.07-.46,0-.47a.72.72,0,0,0-.54.16.37.37,0,0,0-.18.44l.07.26h-.07l-.14-.23-.54.33Z"/><path class="cls-8" d="M133.86,30.55a.47.47,0,0,0,.43,0l-.11-.18-.24-.23c-.14-.07-.24,0-.32.21Z"/><path class="cls-8" d="M148.6,22.88c.13-.56.3-1.45.44-2.27a1.11,1.11,0,0,0-.33,0,16,16,0,0,1-.32,2.13Z"/><path class="cls-8" d="M128.86,25.17a9.89,9.89,0,0,0-.2,1c0,.31.06.45.29.44s.25,0,.32.18l.42.88c-.11.12-.3.09-.54-.09a2.36,2.36,0,0,1-.55-.79c-.12-.26-.22-.51-.31-.76a7.74,7.74,0,0,1-.26-.87c-.09-.33-.32-1-.7-2.1a11,11,0,0,0-.89-2.07q-.33-.45-.42-.45c-.1,0-.16,0-.22.21a4.81,4.81,0,0,0,0,.78,5.84,5.84,0,0,0,.09,1,8.93,8.93,0,0,0,.67,2.06A10.24,10.24,0,0,0,128.19,27c-.33-.61-.66-1.27-1-2-.39-.91-.66-1.59-.8-2.05a6.31,6.31,0,0,1-.23-.91c0-.14,0-.13.06,0s.16.47.32,1a30.61,30.61,0,0,0,1.27,2.82,8.65,8.65,0,0,0,.92,1.66c.4.41.72.53,1,.35l.16.13.48.86.51.64c.28.3.56.37.83.19.07.18.15.24.26.2l.25,0,.2.28,1.06.74,1.14.72.67-.12a8.36,8.36,0,0,1-.68-.52.86.86,0,0,0-.23-.36l-.18.05.07.39L134,31.1c0-.14-.09-.28-.3-.43s-.47-.34-.8-.56a5.21,5.21,0,0,1-.91-.86,2.9,2.9,0,0,1-.48-.66c-.06-.18-.11-.28-.18-.31s-.09-.11-.08-.26l0-.19.09-.63-.14-.09-.09.31c0,.16-.14.09-.31-.21a15.73,15.73,0,0,0-.93-1.35l-.49-.63,0,.18c.24.38.45.71.62,1s.3.56.41.78.31.52.57.92l.32.67.57.57v.37a1.49,1.49,0,0,0-.3-.49l-.23,0c-.2.2-.44.07-.75-.4-.15-.22-.32-.5-.51-.85,0-.07,0-.21.25-.42l-.12-.15-.17.15-.69-1.05.09-.15-.09-.14-.11.08-.18-.34-.06.18.09.22-.12.07c-.1,0-.11-.18,0-.58s.45-1.27.83-2.16a6,6,0,0,1,.07-.87,12.53,12.53,0,0,0-1,2.37"/><path class="cls-8" d="M127.7,20.54q0-.81.06-1.11c0-.19,0-.38,0-.58a6.53,6.53,0,0,1,.16-1l-.06-.06a2.9,2.9,0,0,0-.19.84c0,.34-.07.63-.09.89s-.06.59-.12,1h-.23c-.13,0-.25-.24-.35-.58a5.9,5.9,0,0,1-.12-1.65,11.58,11.58,0,0,1,1.08-5c.14-.22.15-.17,0,.14a11.24,11.24,0,0,0-.68,3,11.55,11.55,0,0,0-.15,2.77c.19-.91.35-1.65.51-2.22s.32-1.42.72-2.82a7.07,7.07,0,0,0,.29-1.34,5.79,5.79,0,0,0,0-1.25c0-.11-.15-.06-.32.14a7.82,7.82,0,0,0-1.56,3.06,15.63,15.63,0,0,0-.34,2.39,7.79,7.79,0,0,0,.13,1.77,6.85,6.85,0,0,0,.35,1.2,1.1,1.1,0,0,0,.6.65,6.12,6.12,0,0,0,.19.77c.09.29.16.5.21.64a.93.93,0,0,0,.14.3.83.83,0,0,1,.06.4c.16.54.34,1,.52,1.49l0-.17a6.37,6.37,0,0,1-.35-1.06.92.92,0,0,1-.06-.48l0-.27a2.24,2.24,0,0,1-.32-.81,5.48,5.48,0,0,1-.18-.84c.19-.52.32-.89.38-1.09a5.31,5.31,0,0,1,.38-.86c.2-.36.4-.76.6-1.18s.82-1.44,1.85-3.07c.13-.11.09,0-.11.38l-.5,1-1.06,1.81A10.16,10.16,0,0,0,131.17,15a4.27,4.27,0,0,0,.37-1,1,1,0,0,0,0-.65,1.68,1.68,0,0,0-.95.7,20.73,20.73,0,0,0-1.41,2.35l-.61,1.54-.47,1.45c-.14.39-.28.81-.4,1.25"/><path class="cls-8" d="M130.68,13.45a2.12,2.12,0,0,1,1.13-.58l.57-1.16a6.83,6.83,0,0,0,.4-1.18.85.85,0,0,0,0-.44c-.05,0-.17,0-.33.11A6,6,0,0,0,131,12l-.88,1.74-.94,1.74c-.08.13-.17.17-.25.13l-.16-.05a12.8,12.8,0,0,1,1.5-2.73c.19,0,.24-.12.13-.24l.63-1.14-.76,1.16h-.11l0,.13a15.72,15.72,0,0,0-1,1.52c-.27.51-.48.9-.62,1.19-.09,0-.19-.15-.29-.37l-.08.24.33.42L128,17.22h-.12l0,.14.06.24.12.1a.53.53,0,0,0,.46-.34c-.21.11-.34.13-.38.07l.51-1.56a1,1,0,0,0,.46-.1l1.28-2.08c.63-1.13,1.14-2,1.51-2.5a9.41,9.41,0,0,1,.7-.92c.09-.08.09,0,0,.12-.55.85-.95,1.5-1.21,1.93s-.48.81-.67,1.14"/><path class="cls-12" d="M146.22,15.27a5,5,0,0,1,.35-.9q.28-.48.09,0a3.42,3.42,0,0,0-.37,1.16l.48,1.11a3.51,3.51,0,0,1,.59-1.3c.13-.16.14-.15,0,0a3.73,3.73,0,0,0-.55,1.4l.31.91a2.91,2.91,0,0,1,.26-.66c.05-.07.06-.05,0,.07s-.1.29-.16.51a1,1,0,0,0,0,.67,8,8,0,0,0,.44.83c.19.35.35.6.45.77l.47.7.38,0,.07-.77q.41-.15.42-.45a5.44,5.44,0,0,0-.14-1.66,5.28,5.28,0,0,0-1-1.1c-.14-.15-.14-.17,0-.06a5.81,5.81,0,0,1,.92.76l-.23-1a4.44,4.44,0,0,1-.78-.94c-.11-.17-.11-.19,0-.07a3.19,3.19,0,0,0,.71.72c-.12-.36-.23-.72-.35-1.1a5.44,5.44,0,0,0-1-1c-.2-.15-.2-.19,0-.11a3,3,0,0,1,.81.58l-.4-1.06a4,4,0,0,0-.58-.67c-.08-.09-.06-.1.07,0a1.94,1.94,0,0,1,.43.4l-.2-.67c0-.18,0-.18.08,0l.21.51.34.9a1.93,1.93,0,0,0,.08-.58c0-.27.06-.27.07,0a3.09,3.09,0,0,1-.06.78c.15.4.29.83.43,1.28a2.39,2.39,0,0,0,.34-1c0-.29.07-.26.06.08a2.56,2.56,0,0,1-.29,1c.13.57.25,1.05.36,1.45a1.12,1.12,0,0,0,.34-.6c.1-.16.12-.13.05.09a2.39,2.39,0,0,1-.34.76,9.19,9.19,0,0,1,.19,1.13,5.29,5.29,0,0,1,0,1c.08,0,.12-.18.13-.43a1.71,1.71,0,0,1,.09-.47,5.56,5.56,0,0,1,.32-.71c.13-.26.13-.37,0-.35l-.27.08-.14-.15a.81.81,0,0,1,.24-.5.55.55,0,0,0,.2-.38,1.29,1.29,0,0,0-.16-.6.78.78,0,0,0-.41.25h-.11a1,1,0,0,1,.14-.39.83.83,0,0,0,.1-.56,4.11,4.11,0,0,0-.3-.83c.11-.5,0-.65-.4-.43a1.71,1.71,0,0,0-.22-1.09c-.15-.32-.31-.4-.47-.2a3.08,3.08,0,0,0-.73-.86c-.16-.07-.25-.06-.28,0a2.92,2.92,0,0,1-.15.38,1.15,1.15,0,0,0,0,.7q-.34.11-.27.36l.15.5a1.19,1.19,0,0,1,.23.5.89.89,0,0,1-.05.53c.32-.19.53-.2.64,0a1,1,0,0,1,0,.42,4.28,4.28,0,0,0,0,.67c0,.08.07.15.26.2s.24.17.16.32-.12,0-.26-.07-.23-.11-.29,0,0,.41.31.66c.66.45.92.71.81.77s-.26.16-.2.34.15.23.37.36a.6.6,0,0,1,.23.64c0,.3-.14.48-.32.53a2.15,2.15,0,0,1-.08-.59c0-.09-.06-.17-.2-.24s-.33-.55-.56-1.45l-.33,0a5.67,5.67,0,0,0,.57,1.61c.08,0,.16.13.24.34a2.9,2.9,0,0,1,0,.68c0,.28.08.42.28.41l-.13.18a.48.48,0,0,1-.28-.21.88.88,0,0,1-.14-.46c0-.15,0-.31,0-.49s-.08-.21-.23-.14-.25.08-.3,0l-.08-.17a1.13,1.13,0,0,1,.12-.44.56.56,0,0,0,0-.34c0-.07-.13-.09-.29-.07s-.2-.13-.15-.47l.18-.69c.07-.35-.07-.4-.39-.14a1,1,0,0,1,.29-.63.54.54,0,0,0,.18-.47,1.51,1.51,0,0,1,0-.52c0-.17,0-.28-.08-.33s-.49.21-.84.69l.18-.45a1.74,1.74,0,0,0,.1-1.13,1,1,0,0,0-.32-.29c-.09,0-.19.15-.32.34s-.22.19-.25.1l.08-.51a.5.5,0,0,0-.25-.44l-.53-.29a2,2,0,0,1-.14.38,1.18,1.18,0,0,0-.14.6.65.65,0,0,0,.14.5c-.36,0-.45.18-.29.53l.12.19a1.64,1.64,0,0,1,.22.44c-.22,0-.34,0-.35.14s0,.29.16.34a2.34,2.34,0,0,1,1.15.87c.18.36.33.53.44.53l-.3-.85a2.16,2.16,0,0,0-1-.69c-.16-.08-.16-.1,0-.07a4.11,4.11,0,0,1,.94.49l-.34-.83a3,3,0,0,0-.67-.54c-.13-.11-.13-.13,0,0a2.66,2.66,0,0,1,.66.45,6.78,6.78,0,0,1-.34-1.41l-.06-.17.1,0q.21.64.42,1.56m-15,6.56.09-.18c.06-.13.08-.12.08,0l-.14.4a8.75,8.75,0,0,1,.07,1.2,10.53,10.53,0,0,0,.31-1.81c0-.33,0-.41-.2-.26l-.23.31Zm0-.59a4.13,4.13,0,0,0-.08-.47l.29-.18c.13,0,.15,0,.08.19Zm18.67.46h0a3.44,3.44,0,0,1,.44-1c0-.14,0-.13-.09,0a4.68,4.68,0,0,0-.46.82.72.72,0,0,1-.14-.36c0-.2-.07-.21-.09,0a1.51,1.51,0,0,0,.14.53c-.23.37-.4.51-.54.43.08-.51.19-1,.32-1.62.24-.25.44-.33.62-.24.24-.21.45-.25.62-.12a.87.87,0,0,1,.13.48,1.7,1.7,0,0,1-.16.52c.19,0,.3.08.31.24a1.21,1.21,0,0,1-.49.79c.22.05.34.12.36.23l-.07.26a.75.75,0,0,1-.35.19l-.17-.32a1.11,1.11,0,0,0-.25-.74,1.45,1.45,0,0,1,.34-.2c.11-.05.09-.07-.06-.05a1.66,1.66,0,0,0-.38.13m-5.37-9.87c0-.13.1-.2.32-.22s.26-.08.11-.2a1.53,1.53,0,0,1-.73-.55q-.21-.27,0-.39l.22-.06.11-.15-.14-.56a.56.56,0,0,1,.23-.61,1,1,0,0,1,.81.26c0-.15.1-.2.28-.14s.35.46.5,1.2l.25.1c.08-.21.15-.31.2-.31s.16.18.24.53a1.21,1.21,0,0,1,.29.95,1.22,1.22,0,0,0-.21.68l-.13-.29a4.21,4.21,0,0,1-.09-1c0-.15,0-.15,0,0a4.45,4.45,0,0,0,0,.8,6.78,6.78,0,0,0-.89-1,2.6,2.6,0,0,1-.06-.81c0-.25-.05-.31-.08-.18a4.46,4.46,0,0,0,0,.91,8.64,8.64,0,0,1-.83-1.08c-.08-.15-.11-.18-.1-.1a5.07,5.07,0,0,0,.6,1c.22.26.39.46.53.61a4.27,4.27,0,0,0-.69-.17,1.55,1.55,0,0,1-.54-.17c-.15,0-.15,0,0,.12a1.68,1.68,0,0,0,.56.17,3.24,3.24,0,0,1,.79.28,2.16,2.16,0,0,1,.53.66l.18.43a2.89,2.89,0,0,0-.95-.33,2,2,0,0,1-.61-.18q-.39-.18-.09,0a1.83,1.83,0,0,0,.65.21,3.63,3.63,0,0,1,1.08.46l0,.1a.44.44,0,0,0-.08.35l.11.33c-.09-.12-.22-.07-.38.16a.37.37,0,0,0,0-.39,2.49,2.49,0,0,0-1-.72l-.09.17a1.16,1.16,0,0,1-.84-.83m-.77-.85-.1.19c-.2.12-.19.18-.17.25s.15.11.72.1l.16-.13A2,2,0,0,1,144,11a1.54,1.54,0,0,1-.1-.63.82.82,0,0,1-.43,0c-.12,0-.14,0,0-.08a1,1,0,0,0,.74-.26,5.93,5.93,0,0,0-.46-.56c-.17-.18-.12-.2.15-.05a1.71,1.71,0,0,1,.37.39,2.2,2.2,0,0,1,0-.63.47.47,0,0,1,.52-.4c-.28-.16-.51,0-.7.35-.44-.26-.72-.26-.83,0s.07.52.19.6.12.19,0,.34l-.27.11c0,.43.32.62.65.78m-1.14-2.34a2.31,2.31,0,0,1-1-.58,6.9,6.9,0,0,1-.48-.6c-.11-.19-.16-.19-.14,0a2.26,2.26,0,0,0,.51.66c-.17-.07-.32-.15-.46-.22a2.58,2.58,0,0,0-.89-.26c-.11,0-.12,0,0,.06A5.19,5.19,0,0,1,141,8a1,1,0,0,1,.36.25,2,2,0,0,1-.89.18c-.19,0-.28,0-.25,0l.18.07a2.51,2.51,0,0,0,1.11-.13,8.21,8.21,0,0,0,1,.43,1.71,1.71,0,0,0-.66.33c-.08.1,0,.11.12,0a1.4,1.4,0,0,1,.74-.24l.25.11a1.72,1.72,0,0,0,.2.89l-.17.06-.51-.17,0-.37-.29.06a.77.77,0,0,1-.83-.26c-.18,0-.26,0-.23-.22s0-.25-.06-.26l-.44.05a.8.8,0,0,1-.57-.26c-.06-.1,0-.24.12-.4a1,1,0,0,1-.51-.39c-.07-.14,0-.25.12-.34a1.42,1.42,0,0,1,.82,0,.39.39,0,0,1-.08-.37c0-.12.28-.06.8.21l.3.2a.3.3,0,0,1,.42-.15,3.93,3.93,0,0,1,.66.43,4.72,4.72,0,0,1,.68.71c.22-.14.37-.11.46.1l0,.39a.62.62,0,0,0-.83-.05l-.21-.1a3.07,3.07,0,0,1-.54-.85c-.06-.25-.09-.27-.09-.07a1.79,1.79,0,0,0,.37.83m-14,17.25a6,6,0,0,1,.16-.89,12.54,12.54,0,0,1,1-2.43,6.47,6.47,0,0,1,.17-1,6.79,6.79,0,0,0-1.15,2.46,7.06,7.06,0,0,0-.21,1.84M146,25.21l-.52-.44c-.25-.24-.33-.46-.24-.65a1.37,1.37,0,0,1-.19-.34.35.35,0,0,1,0-.38c.08-.12.27-.07.56.17a.89.89,0,0,0,0-.51,4.09,4.09,0,0,0-.18-.49,6.16,6.16,0,0,0-.38-.66c-.12-.24-.14-.39-.08-.41s.16,0,.29.12c.25-.29.42-.37.5-.25a1.6,1.6,0,0,1,.2.62,3,3,0,0,1,0,.9L146,23,146,23a3,3,0,0,1-.08.72L146,24a1.09,1.09,0,0,1,0-.29s.05-.18.1-.39a2.13,2.13,0,0,0,.09-.33l-.08-.06.13-.13,0-.18a2.38,2.38,0,0,1,0-.51,2.3,2.3,0,0,0-.08-.63,1.73,1.73,0,0,1-.08-.34.19.19,0,0,0-.19-.14c-.11,0-.27.11-.47.35a3,3,0,0,1,.28-.92c.1-.16.2-.2.3-.14l.2.21.14,0,.15-.1.13.19.1.31a4.21,4.21,0,0,1,0,.58.87.87,0,0,1-.1.58.51.51,0,0,0-.12.35c0,.56.06.84.12.83l.22-.13.23-.09c.07,0,.11.18.12.47s0,.32.07.09.12-.35.23-.35.14.31.07.93a6.47,6.47,0,0,0-.86.94.87.87,0,0,1,0-.56,1.79,1.79,0,0,0,.15-.37,3.79,3.79,0,0,0,.12-.36c.08-.26.06-.27-.05-.06l-.16.34-.16.29a8.61,8.61,0,0,0-.2-.92c-.09-.3-.12-.3-.08,0a13.27,13.27,0,0,1,.17,1.47,4.81,4.81,0,0,0-.52-.5,2.53,2.53,0,0,1-.47-.45c-.11-.08-.13-.06-.06,0a3.86,3.86,0,0,0,.54.6c.24.23.38.39.44.46l.09.2a5.09,5.09,0,0,1-.32.4l-.12-.22-.1-.22m-15.7.73,0-1.26v-.91a22.93,22.93,0,0,1,.29-3.44c.07-.12.08-.07,0,.14-.07.89-.12,1.68-.14,2.37s0,1.25,0,1.67,0,1,0,1.62l.2-.45a4.74,4.74,0,0,0,.41-1.74,12.36,12.36,0,0,0,0-2.28,7.29,7.29,0,0,0-.28-1.73c-.19.05-.39.53-.61,1.42a12.63,12.63,0,0,0-.27,2,11.4,11.4,0,0,0,.18,2.37ZM133,9.77l.21-.15a11.3,11.3,0,0,1,1.66-1.24,3.58,3.58,0,0,1,1.21-.53l.34-.47c.06-.13,0-.21-.11-.24a3.38,3.38,0,0,0-1,.14,6.09,6.09,0,0,0-2,1.13,9.68,9.68,0,0,0-1.6,1.82l.9-.85a21.5,21.5,0,0,1,2-1.45,6.32,6.32,0,0,1,1-.44,2.72,2.72,0,0,1-.78.5,19.27,19.27,0,0,0-2.45,1.89c.3-.16.5-.2.62-.11m0,.53,0-.2A10.84,10.84,0,0,1,135.93,8a1.41,1.41,0,0,1,.87,0,1,1,0,0,1-.36.67,5.82,5.82,0,0,1-1.33,1c-.54.29-1.23.63-2.09,1v-.09a24.22,24.22,0,0,1,2.89-2c.23-.15.21-.2-.06-.13s-.64.36-1,.59l-1.79,1.25m-4.74,4.61.06-.28.29-.48a31.59,31.59,0,0,0,1.47-3,7.82,7.82,0,0,1,.77-1.27c.1-.24,0-.24-.17,0A18.31,18.31,0,0,0,129,13l.29-.77c0-.17.22-.56.49-1.17a9,9,0,0,1,.81-1.44c.27-.35.45-.58.55-.69.37-.33.58-.49.65-.47l0,.21-.75,2a20.94,20.94,0,0,1-1.92,3.12q-.51.59-.63.75l-.2.31m-.61,5.89c.19-.52.32-.89.38-1.09a5,5,0,0,1,.38-.86c.2-.36.4-.76.6-1.18s.82-1.44,1.85-3.07c.12-.11.09,0-.11.38l-.5,1-1.06,1.81A10.39,10.39,0,0,0,131.16,15v0a4.27,4.27,0,0,0,.37-1,1,1,0,0,0,0-.65,1.68,1.68,0,0,0-.95.7,20.73,20.73,0,0,0-1.41,2.35l-.61,1.54-.47,1.45c-.14.39-.28.81-.4,1.25Zm-.2-.33-.23,0c-.13,0-.25-.24-.35-.59a5.78,5.78,0,0,1-.12-1.64,11.58,11.58,0,0,1,1.08-5c.15-.21.15-.17,0,.14a11.24,11.24,0,0,0-.68,3,10.85,10.85,0,0,0-.14,2.77c.17-.91.34-1.65.5-2.22s.32-1.42.72-2.82a7.07,7.07,0,0,0,.29-1.34,5.79,5.79,0,0,0,0-1.25c0-.11-.15-.06-.32.14a7.82,7.82,0,0,0-1.56,3.06,17,17,0,0,0-.34,2.39,8.41,8.41,0,0,0,.13,1.77,6.85,6.85,0,0,0,.35,1.2,1.18,1.18,0,0,0,.59.65l0-.36m1.59-4.73.08-.25.92-1.71L131,12a6,6,0,0,1,1.44-1.84c.16-.1.27-.13.33-.11a.86.86,0,0,1,0,.44,6.83,6.83,0,0,1-.4,1.18l-.57,1.16a2.12,2.12,0,0,0-1.13.58c.19-.33.41-.71.67-1.14s.66-1.07,1.21-1.94c.09-.15.1-.19,0-.11a9.41,9.41,0,0,0-.7.92c-.37.54-.88,1.37-1.51,2.5l-1.27,2.06m0,10.76c.14,0,.13.12.2.28l.42.88Zm-.13-.09,0,.19c-.21,0-.3-.15-.26-.44a9.89,9.89,0,0,1,.2-1,12.53,12.53,0,0,1,1-2.37,6,6,0,0,0-.07.87c-.38.89-.65,1.61-.83,2.16s-.08.59,0,.58m.75,1.25,0,.26c-.24.17-.6.06-1-.35a9,9,0,0,1-.92-1.66,30.61,30.61,0,0,1-1.27-2.82c-.16-.53-.27-.86-.32-1s-.07-.15-.06,0a6,6,0,0,0,.23.91c.14.46.41,1.14.8,2.05.33.73.66,1.39,1,2a10,10,0,0,1-1.64-2.42,8.93,8.93,0,0,1-.67-2.06,5.84,5.84,0,0,1-.09-1,4.81,4.81,0,0,1,0-.78c.06-.17.12-.23.22-.21s.2.15.42.46a9.92,9.92,0,0,1,.89,2.06c.38,1.07.61,1.77.7,2.1a8.43,8.43,0,0,0,.26.87,6.75,6.75,0,0,0,.31.76,2.26,2.26,0,0,0,.55.79q.38.27.54.09m18.07-2.13a1.42,1.42,0,0,0,.17.57c0,.06,0,.13-.13.18s-.19.12-.19.21a1.84,1.84,0,0,1-.25,1.32,3.74,3.74,0,0,0,.59-.6,2.77,2.77,0,0,0,.48-.82,1.87,1.87,0,0,0-.32-.42c-.1-.12-.1-.15,0-.1a1.19,1.19,0,0,1,.39.41,7,7,0,0,0,.42-1.29,4.47,4.47,0,0,0-.58-1.4c-.14-.27-.1-.26.11,0a4.16,4.16,0,0,1,.56,1.16,7.91,7.91,0,0,0,.3-1.15l-.2-.68a1.69,1.69,0,0,1,.24.52l.16-.57c.08-.21.09-.15,0,.18a15.32,15.32,0,0,1-.38,1.55,4.11,4.11,0,0,0,.7-.85c.13-.14.13-.09,0,.14a3.88,3.88,0,0,1-.75,1,5.21,5.21,0,0,1-.41,1.32,2.66,2.66,0,0,1,.57-.36c.1,0,.07,0-.07.13a2.07,2.07,0,0,0-.57.41,3.19,3.19,0,0,1-1.22,1.69,6.32,6.32,0,0,0,1-.45c.25-.15.33-.34.23-.55a9.18,9.18,0,0,0,.89-1,.67.67,0,0,0,.06-.69c-.08-.1.1-.4.52-.9a1.73,1.73,0,0,0,.25-.69c0-.28,0-.42,0-.46-.3,0-.43-.23-.4-.8s-.18-.57-.31-.42c-.13.31-.28.44-.44.38s-.23,0-.23.07c0,.48-.12.67-.38.56l-.4-.26c-.34-.11-.41,0-.23.47l.26.37q.13.4,0,.42c-.25,0-.37,0-.37.21a1.39,1.39,0,0,0,.3.77c.16.18.17.31,0,.4a.57.57,0,0,0-.37,0"/><path class="cls-11" d="M137,31.69a7.66,7.66,0,0,0-.81.07q-.87.1-1.68.27l-1.31.25a17.48,17.48,0,0,1-2,.22c-.49-.38-1.18-.86-2.06-1.45a19.46,19.46,0,0,0-1.94-1.17l0-.26a1.29,1.29,0,0,1,.61-.09c.14,0,.2,0,.17.12l-.19.1-.24,0a12.31,12.31,0,0,1,1.74,1v-.83a1.54,1.54,0,0,1,.18-.81q0-.27-.6-.45l-.09.05,0,.37.2-.32.13.06-.22.48-.21.1a11.73,11.73,0,0,0-1.37,0c-.27,0-.36.2-.25.57a.73.73,0,0,1,0,.35,5.37,5.37,0,0,1-.54,1.23c-.08.09.09.37.49.84a12.36,12.36,0,0,0,1.88,1.38,17.65,17.65,0,0,0,2.29,1.24c1-.13,2.1-.29,3.17-.5l1.44-.33a21.73,21.73,0,0,0,2.61-.89c.08,0,.11-.13.08-.34a5.3,5.3,0,0,0-.49-1.39,5.05,5.05,0,0,1-.91.08m-4,.36.22-.65.71.49Zm9.51-.15,1.28.25a1.72,1.72,0,0,1-.26-.63c0,.19-.2.25-.49.19Zm-1.69-.42c.19-.09.39-.21.62-.33a.45.45,0,0,0,.16-.25.57.57,0,0,1,.37-.42,1.08,1.08,0,0,1,.54-.14.54.54,0,0,0,.38-.11l.17-.12-.12-.16-.14-.05a11.25,11.25,0,0,0-1.73.79,2,2,0,0,0-.48.41l-.24.35Zm2.42,3.26a20.5,20.5,0,0,1-2.92-.68L140,34l.1-.1a2.12,2.12,0,0,0,.29-.48,2.42,2.42,0,0,0-.08-.55,2.77,2.77,0,0,0-.58-1v-.09l.23,0a8.88,8.88,0,0,1,1.69.25q.75.19,1.77.36c.66.12,1.14.2,1.44.23a1.51,1.51,0,0,0,.67,0,9.44,9.44,0,0,0,1.7-1.32,10.87,10.87,0,0,1,2.09-1.37c.17-.11.18-.19,0-.23a2.39,2.39,0,0,0-.7-.08q-.16.13,0,.21a.62.62,0,0,1,.3,0,13.16,13.16,0,0,0-1.72,1.13,11.84,11.84,0,0,0,.12-1.27,1,1,0,0,0-.19-.51c-.07-.11,0-.21.29-.29l.22-.07v.36l-.3-.09,0,.16a.53.53,0,0,0,.34.25l.83,0H149q.65,0,.63.33a2.28,2.28,0,0,0,0,.59,3.23,3.23,0,0,0,.52,1.32,2.41,2.41,0,0,1-.4.68l-.8.54c-.68.51-1.61,1.19-2.78,2a19.35,19.35,0,0,1-3-.21m-4.88-.36-.54-.27L138,34l.08.07c0,.16,0,.14.18-.07l.48-.48a2.91,2.91,0,0,0-.2-1.12,5.22,5.22,0,0,0-.37-.86c0-.1-.26-.12-.71-.07a1.17,1.17,0,0,1,.94,0l.36.17.22-.1-.38-.2.18,0,.29.29a4.72,4.72,0,0,1,.88,1.21,1.23,1.23,0,0,1,0,.63c-.2.26-.34.36-.42.29l-.07-.27-.42.55-.33.23a.53.53,0,0,1-.48.16m-2.64-2.85-.66-.48-.58-.72a1.17,1.17,0,0,0-.35-.33.52.52,0,0,0-.4-.1c-.08,0-.15.14-.23.33l0,0c0-.18.1-.29.19-.33a.36.36,0,0,1,.33,0l.73.38,1.26.5a5.05,5.05,0,0,1,.56.71c-.25,0-.53.05-.82.06"/><path class="cls-10" d="M129.39,32.72l.07.07c.14.09.28.05.37-.13s.09-.34-.06-.44-.06-.07-.13.05Zm-2-1.43c.19.14.3.24.49,0s.09-.34,0-.41l-.1-.06-.07,0Zm2.9,1.5c0-.14.06-.25,0-.35l0,0,.21.14.25.13,0,0h-.17c0,.09-.12.45-.15.56l-.11.63.43-.39.37-.42c.06-.11,0-.15-.05-.18v-.07l.18.13.18.1v0c-.14-.1-.27.09-.41.2l-.86.85-.07,0Zm-1.11.23-.12.3.11.18,0,0a2.13,2.13,0,0,0-.25-.17l-.22-.13v-.07l.18,0,.19-.27.32-.57.16-.26-.11-.17,0,0,.25.16.22.14a.41.41,0,1,1-.45.68l-.11-.07Zm-.76-1.29.16-.26-.12-.18.07,0,.76.5-.2.3,0,0c.12-.23.05-.3-.13-.43l-.11-.07-.1,0-.28.49c.21.17.31.06.41-.06h0c-.06.12-.13.19-.16.27a2,2,0,0,1-.16.26l0,0c.13-.22.06-.29-.12-.39l-.19.34-.1.22.16.21c.17.1.28.13.44-.06h0l-.19.34-.87-.61,0,0,.18,0,.19-.27Zm-.84.5.08.21,0,0-.11-.1-.14-.07,0-.18v-.58l-.08-.18-.16.23-.16.3.11.14,0,0-.22-.13-.25-.17,0,0,.18,0,.2-.26.35-.57.16-.27-.08-.13v-.08c.12.07.19.14.3.21l.18.13c.18.14.32.31.16.57a.35.35,0,0,1-.51.14Zm9.93.48-.28-.56-.09.6Zm-4.43,1.06.07.25.17.07a.29.29,0,0,0,.17-.36.43.43,0,0,0-.15-.29H133Zm0-.42h0l.17-.08.06-.29c0-.17-.11-.24-.25-.24l-.1,0v.1Zm-1.07.6.07.28.17,0c.17,0,.24-.15.2-.36l-.18-.25-.27,0h0Zm-.08-.39.07,0,.17-.08.06-.25c0-.17-.11-.27-.28-.24l-.1,0v.08Zm5.19-.63,0,.35.17.07v.07H137l-.2,0v0l.17-.18c0-.18,0-.32,0-.47l.15-1h.06l.54,1.09.15.24.16,0v.06l-.24,0-.27,0v0l.09-.15,0-.14-.15-.25-.43.09Zm-.64-.91h0l.08.46h0c-.08-.24-.25-.42-.46-.38s-.36.47-.31.83.22.7.55.66.3-.29.3-.58l0,0,.08.54-.07-.11a.56.56,0,0,1-.37.22c-.37.09-.68-.19-.76-.65s.15-.86.51-.91a.59.59,0,0,1,.42.06ZM135,32.7l.12.67v.28l-.13.11v0l.27,0h.27v-.07l-.17-.07-.08-.28-.08-.67,0-.29.13-.11v0l-.27,0-.27,0,0,0,.17.06,0,.29m-1.19.23,0-.31-.17,0,0-.07.27,0,.27,0,0,.07-.16.07,0,.33.08.67c0,.28.11.35.35.31l.24-.12.06-.28.07,0,0,.42h-.1c-.31,0-.65.12-.95.17v0l.13-.11v-.32Zm-1.08.21-.08-.28-.16-.07v0l.27,0,.2,0c.2,0,.44,0,.48.27a.36.36,0,0,1-.23.4l.28.07.21.27a.48.48,0,0,1-.13.36l-.34.12-.2,0-.3.08v-.07l.14-.11,0-.28Zm-1.14.21,0-.32-.18,0v-.07l.24,0,.24,0a.35.35,0,0,1,.48.3.34.34,0,0,1-.19.4l.27,0a.4.4,0,0,1,.18.31.38.38,0,0,1-.13.36l-.3.12-.24,0c-.14,0-.2,0-.34.05v0l.17-.11,0-.32Zm11.51.19-.11-.66-.27.59Zm2.3-.17,0-.29-.17-.06v-.08h.27l.28,0V33l-.18.08v.32l.07.66,0,.33.17.07v0h-.28l-.27,0v0l.14-.11v-.29Zm-1.35-.13,0-.33-.18-.11,0,0,.24,0,.3,0,0,.07-.18,0-.07.32-.1.69c0,.29,0,.37.21.41h.27c.14-.08.14-.15.17-.3h.07l-.1.44-.07,0c-.34-.07-.65-.1-1-.18v0l.21-.07.07-.29Zm-1.44.37-.13.33.13.14v0l-.2,0-.21,0,0,0,.21-.15c.06-.14.13-.29.2-.43l.41-.87.07,0,.2,1.24.08.29.13.11v0l-.27,0-.28,0,0-.07.13,0v-.22l0-.25-.48-.07Zm-.13-.74.07-.37-1.16-.22-.08.37.08,0c0-.29.09-.29.3-.26l.14.07-.14,1.13c0,.19-.07.22-.27.22v0l.31,0,.3.07v0c-.16-.07-.16-.11-.16-.29l.16-1.13.21,0c.17,0,.24.12.21.33Zm-1.74-.25v-.29l-.13-.11v-.07l.27.07.31,0,0,0-.17.07-.07.29-.08.69,0,.29.14.11v.07l-.27-.07-.27,0v0l.16-.07.07-.3Zm8.29-1.09-.51-.36.2.62Zm-2.31,1.76-.45-.44.1.62Zm2-1.36.11.37.17,0,0,.07-.18.11-.14.15,0-.08.06-.21c-.06-.18-.09-.33-.13-.47l-.27-.95,0,0,1,.73.21.15.21,0v.07l-.21.15-.21.18,0,0,.07-.18-.14-.11-.2-.15-.38.3Zm-1.71.27-.24,0,0-.08.14-.11.14-.07,1.34.47L148,31.9l-.21-.29h-.24l0,0,.21-.11.13-.15,0,0-.07.18.24.36.55.8,0,0-.2-.07-1.24-.43.45.64.2.26.21,0v0l-.17.15-.18.14,0,0,.07-.22-.17-.26Zm-.63,1.45.06.36h.17l0,0-.17.11-.17.11,0,0a.2.2,0,0,0,.07-.25,1.84,1.84,0,0,0-.07-.47l-.17-1h.07l.89.83.21.18h.17l0,0-.24.14-.24.15,0-.07.1-.15-.13-.14-.18-.15-.41.22Z"/><path class="cls-8" d="M149.08,19.43a2.15,2.15,0,0,1-.08-.59c0-.09-.06-.17-.2-.23a3.53,3.53,0,0,1-.57-1.46l-.32,0a5.67,5.67,0,0,0,.57,1.61c.08,0,.16.13.24.34a2.9,2.9,0,0,1,0,.68c0,.29.08.42.28.41l-.33.39.38,0,.06-.74Z"/><rect class="cls-10" x="222.15" y="6.46" width="45" height="30.56"/><rect class="cls-13" x="223.02" y="7.3" width="43.27" height="28.84"/><polygon class="cls-14" points="243.73 13.58 244.65 12.92 245.56 13.58 245.21 12.51 246.14 11.84 245 11.84 244.65 10.75 244.3 11.84 243.15 11.84 244.08 12.51 243.73 13.58"/><polygon class="cls-14" points="239.01 14.85 239.92 14.19 240.83 14.85 240.48 13.78 241.41 13.11 240.27 13.11 239.92 12.02 239.57 13.11 238.43 13.11 239.35 13.78 239.01 14.85"/><polygon class="cls-14" points="236.47 15.48 236.11 16.57 234.97 16.57 235.9 17.24 235.55 18.32 236.47 17.65 237.38 18.32 237.03 17.24 237.96 16.57 236.81 16.57 236.47 15.48"/><polygon class="cls-14" points="235.2 22.37 236.11 23.04 235.76 21.96 236.69 21.29 235.55 21.29 235.2 20.2 234.85 21.29 233.7 21.29 234.63 21.96 234.28 23.04 235.2 22.37"/><polygon class="cls-14" points="236.81 26.02 236.46 24.93 236.11 26.02 234.97 26.02 235.9 26.69 235.55 27.77 236.46 27.1 237.38 27.77 237.03 26.69 237.96 26.02 236.81 26.02"/><polygon class="cls-14" points="240.28 29.49 239.93 28.4 239.58 29.49 238.44 29.49 239.36 30.15 239.01 31.23 239.93 30.57 240.84 31.23 240.49 30.15 241.42 29.49 240.28 29.49"/><polygon class="cls-14" points="245 30.74 244.65 29.65 244.3 30.74 243.15 30.74 244.08 31.41 243.73 32.49 244.65 31.82 245.56 32.49 245.21 31.41 246.14 30.74 245 30.74"/><polygon class="cls-14" points="249.72 29.49 249.37 28.4 249.02 29.49 247.87 29.49 248.8 30.15 248.45 31.23 249.37 30.57 250.28 31.23 249.93 30.15 250.86 29.49 249.72 29.49"/><polygon class="cls-14" points="253.18 26.02 252.83 24.93 252.48 26.02 251.34 26.02 252.26 26.69 251.91 27.77 252.83 27.1 253.74 27.77 253.4 26.69 254.32 26.02 253.18 26.02"/><polygon class="cls-14" points="255.58 21.28 254.43 21.28 254.08 20.19 253.74 21.28 252.59 21.28 253.52 21.94 253.17 23.02 254.08 22.36 255 23.02 254.65 21.94 255.58 21.28"/><polygon class="cls-14" points="251.91 18.3 252.83 17.64 253.74 18.3 253.4 17.23 254.32 16.56 253.18 16.56 252.83 15.47 252.48 16.56 251.34 16.56 252.26 17.23 251.91 18.3"/><polygon class="cls-14" points="249.38 12.02 249.03 13.11 247.88 13.11 248.81 13.78 248.47 14.85 249.38 14.19 250.29 14.85 249.94 13.78 250.87 13.11 249.73 13.11 249.38 12.02"/><path class="cls-15" d="M280,17.66a4.23,4.23,0,0,1-.25,1.51,2.94,2.94,0,0,1-.73,1.12,3.09,3.09,0,0,1-1.18.7,5.08,5.08,0,0,1-1.63.24,5,5,0,0,1-1.55-.22,2.79,2.79,0,0,1-1.88-1.74,4.23,4.23,0,0,1-.25-1.53V12.17a.17.17,0,0,1,0-.12.27.27,0,0,1,.15-.09,1,1,0,0,1,.29-.06,5.07,5.07,0,0,1,.9,0,1,1,0,0,1,.28.06.27.27,0,0,1,.15.09.18.18,0,0,1,.05.12v5.41a3,3,0,0,0,.13.94,1.66,1.66,0,0,0,.39.66,1.46,1.46,0,0,0,.6.39,2.4,2.4,0,0,0,1.56,0,1.6,1.6,0,0,0,.59-.39,1.92,1.92,0,0,0,.37-.64,2.55,2.55,0,0,0,.13-.86V12.17a.25.25,0,0,1,0-.12.27.27,0,0,1,.15-.09,1,1,0,0,1,.29-.06,3,3,0,0,1,.45,0,2.82,2.82,0,0,1,.44,0,1,1,0,0,1,.28.06.27.27,0,0,1,.15.09.17.17,0,0,1,0,.12Z"/><path class="cls-15" d="M289.39,20.42a.68.68,0,0,1-.06.29.8.8,0,0,1-.15.21A.46.46,0,0,1,289,21a.75.75,0,0,1-.26,0h-.79a1.37,1.37,0,0,1-.43,0,.77.77,0,0,1-.33-.18,1.55,1.55,0,0,1-.3-.35,5.76,5.76,0,0,1-.31-.58l-2.28-4.27c-.13-.26-.27-.53-.4-.83s-.26-.58-.37-.86h0c0,.34,0,.68.05,1s0,.68,0,1v4.79a.17.17,0,0,1,0,.12.28.28,0,0,1-.13.1,1.26,1.26,0,0,1-.26.06l-.42,0-.41,0A1,1,0,0,1,282,21a.28.28,0,0,1-.13-.1.24.24,0,0,1,0-.12V12.58a.6.6,0,0,1,.19-.49.72.72,0,0,1,.48-.17h1A2,2,0,0,1,284,12a1,1,0,0,1,.33.15,1.54,1.54,0,0,1,.27.29c.08.13.17.28.26.46l1.78,3.35.31.6c.1.19.2.39.29.58l.28.58c.09.19.17.38.26.56h0c0-.33,0-.67,0-1s0-.7,0-1V12.2a.21.21,0,0,1,.05-.13.27.27,0,0,1,.14-.1.77.77,0,0,1,.26-.06l.42,0,.4,0a.7.7,0,0,1,.25.06.25.25,0,0,1,.12.1.2.2,0,0,1,0,.13Z"/><path class="cls-15" d="M293.12,20.81a.21.21,0,0,1-.05.13.27.27,0,0,1-.15.09,1.49,1.49,0,0,1-.28.06l-.46,0-.44,0a1.45,1.45,0,0,1-.29-.06.27.27,0,0,1-.15-.09.21.21,0,0,1-.05-.13V12.17a.18.18,0,0,1,.05-.12.27.27,0,0,1,.15-.09,1.05,1.05,0,0,1,.29-.06,2.89,2.89,0,0,1,.44,0,3,3,0,0,1,.46,0,1,1,0,0,1,.28.06.27.27,0,0,1,.15.09.18.18,0,0,1,.05.12Z"/><path class="cls-15" d="M303.21,16.39a6.64,6.64,0,0,1-.28,2,4.2,4.2,0,0,1-.84,1.53,3.78,3.78,0,0,1-1.39.95,5.08,5.08,0,0,1-1.9.33,5.51,5.51,0,0,1-1.86-.28,3.18,3.18,0,0,1-1.33-.85,3.73,3.73,0,0,1-.8-1.46,7.55,7.55,0,0,1-.26-2.09,6.53,6.53,0,0,1,.28-2,4.19,4.19,0,0,1,.84-1.51,3.78,3.78,0,0,1,1.39-.95,5.09,5.09,0,0,1,1.91-.33,5.68,5.68,0,0,1,1.83.27,3.28,3.28,0,0,1,1.33.85,3.65,3.65,0,0,1,.81,1.45A7,7,0,0,1,303.21,16.39Zm-1.95.1a7.45,7.45,0,0,0-.11-1.31,2.93,2.93,0,0,0-.39-1,1.88,1.88,0,0,0-.72-.65,2.56,2.56,0,0,0-1.13-.23,2.36,2.36,0,0,0-1.15.26,2,2,0,0,0-.74.69,2.85,2.85,0,0,0-.4,1,5.94,5.94,0,0,0-.12,1.22,7.84,7.84,0,0,0,.11,1.35,3.1,3.1,0,0,0,.39,1,1.71,1.71,0,0,0,.72.64,2.54,2.54,0,0,0,1.14.23,2.34,2.34,0,0,0,1.14-.26,2,2,0,0,0,.74-.69,2.9,2.9,0,0,0,.4-1A6.21,6.21,0,0,0,301.26,16.49Z"/><path class="cls-15" d="M312.17,20.42a.88.88,0,0,1-.05.29.65.65,0,0,1-.16.21.48.48,0,0,1-.22.12.84.84,0,0,1-.27,0h-.79a1.37,1.37,0,0,1-.43,0,.77.77,0,0,1-.33-.18,1.32,1.32,0,0,1-.29-.35,5.58,5.58,0,0,1-.32-.58L307,15.65l-.4-.83c-.14-.29-.26-.58-.37-.86h0c0,.34,0,.68,0,1s0,.68,0,1v4.79a.17.17,0,0,1,0,.12.28.28,0,0,1-.13.1,1.12,1.12,0,0,1-.26.06l-.41,0-.41,0a1.12,1.12,0,0,1-.26-.06.34.34,0,0,1-.13-.1.24.24,0,0,1,0-.12V12.58a.6.6,0,0,1,.19-.49.72.72,0,0,1,.48-.17h1a1.87,1.87,0,0,1,.45.05,1,1,0,0,1,.33.15,1.27,1.27,0,0,1,.27.29,3.77,3.77,0,0,1,.26.46l1.78,3.35c.11.2.21.4.31.6s.2.39.29.58l.28.58.26.56h0c0-.33,0-.67,0-1s0-.7,0-1V12.2a.2.2,0,0,1,0-.13.32.32,0,0,1,.14-.1.83.83,0,0,1,.26-.06l.42,0,.4,0A.7.7,0,0,1,312,12a.34.34,0,0,1,.13.1.28.28,0,0,1,0,.13Z"/><path class="cls-15" d="M319.46,20.34a3,3,0,0,1,0,.34,1.14,1.14,0,0,1-.05.23.62.62,0,0,1-.09.12.19.19,0,0,1-.12,0h-4.59a.61.61,0,0,1-.4-.14.58.58,0,0,1-.16-.45v-8a.58.58,0,0,1,.16-.45.61.61,0,0,1,.4-.14h4.56a.17.17,0,0,1,.12,0,.23.23,0,0,1,.08.12,1,1,0,0,1,0,.23,1.73,1.73,0,0,1,0,.35,1.62,1.62,0,0,1,0,.33.9.9,0,0,1,0,.22.32.32,0,0,1-.08.13.25.25,0,0,1-.12,0h-3.26v2.23h2.76a.19.19,0,0,1,.12,0,.62.62,0,0,1,.09.12.9.9,0,0,1,.05.22,2.92,2.92,0,0,1,0,.33,3,3,0,0,1,0,.34,1,1,0,0,1-.05.22.62.62,0,0,1-.09.12.27.27,0,0,1-.12,0h-2.76v2.58h3.29a.19.19,0,0,1,.12,0,.62.62,0,0,1,.09.12,1,1,0,0,1,.05.23A3,3,0,0,1,319.46,20.34Z"/><path class="cls-15" d="M329.52,20.34a3,3,0,0,1,0,.34,1.14,1.14,0,0,1-.05.23.62.62,0,0,1-.09.12.19.19,0,0,1-.12,0h-4.59a.61.61,0,0,1-.4-.14.58.58,0,0,1-.16-.45v-8a.58.58,0,0,1,.16-.45.61.61,0,0,1,.4-.14h4.56a.17.17,0,0,1,.12,0,.23.23,0,0,1,.08.12,1,1,0,0,1,0,.23,1.73,1.73,0,0,1,0,.35,1.62,1.62,0,0,1,0,.33.9.9,0,0,1,0,.22.32.32,0,0,1-.08.13.25.25,0,0,1-.12,0H326v2.23h2.76a.19.19,0,0,1,.12,0,.62.62,0,0,1,.09.12A.9.9,0,0,1,329,16a2.92,2.92,0,0,1,0,.33,3,3,0,0,1,0,.34,1,1,0,0,1-.05.22.62.62,0,0,1-.09.12.27.27,0,0,1-.12,0H326v2.58h3.29a.19.19,0,0,1,.12,0,.62.62,0,0,1,.09.12,1,1,0,0,1,.05.23A3,3,0,0,1,329.52,20.34Z"/><path class="cls-15" d="M338.49,17.66a4.47,4.47,0,0,1-.24,1.51,3.07,3.07,0,0,1-.73,1.12,3.13,3.13,0,0,1-1.19.7,5,5,0,0,1-1.63.24,4.9,4.9,0,0,1-1.54-.22,2.92,2.92,0,0,1-1.16-.65,2.87,2.87,0,0,1-.73-1.09,4.23,4.23,0,0,1-.25-1.53V12.17a.17.17,0,0,1,0-.12.27.27,0,0,1,.16-.09.9.9,0,0,1,.28-.06,5.07,5.07,0,0,1,.9,0,.9.9,0,0,1,.28.06.27.27,0,0,1,.15.09.18.18,0,0,1,.05.12v5.41a3,3,0,0,0,.13.94,1.66,1.66,0,0,0,.39.66,1.6,1.6,0,0,0,.6.39,2.13,2.13,0,0,0,.78.13,2.18,2.18,0,0,0,.79-.13,1.56,1.56,0,0,0,.58-.39,1.77,1.77,0,0,0,.37-.64,2.54,2.54,0,0,0,.14-.86V12.17a.17.17,0,0,1,0-.12.24.24,0,0,1,.15-.09.9.9,0,0,1,.28-.06,3,3,0,0,1,.45,0,2.76,2.76,0,0,1,.44,0,.9.9,0,0,1,.28.06.27.27,0,0,1,.15.09.17.17,0,0,1,0,.12Z"/><path class="cls-15" d="M347.14,20.83a.28.28,0,0,1,0,.13.33.33,0,0,1-.14.09,1.53,1.53,0,0,1-.31.05h-1a.9.9,0,0,1-.28-.06.22.22,0,0,1-.14-.1.31.31,0,0,1-.07-.14l-.83-2c-.09-.23-.19-.44-.28-.62a2,2,0,0,0-.32-.45,1.09,1.09,0,0,0-.4-.27,1.38,1.38,0,0,0-.52-.09h-.58v3.48a.21.21,0,0,1,0,.13A.27.27,0,0,1,342,21a1.33,1.33,0,0,1-.28.06l-.45,0-.45,0a1.45,1.45,0,0,1-.29-.06.27.27,0,0,1-.15-.09.2.2,0,0,1,0-.13v-8.3a.55.55,0,0,1,.16-.45.56.56,0,0,1,.39-.14h3l.43,0a3.69,3.69,0,0,1,1,.27,2.46,2.46,0,0,1,.75.5,2.09,2.09,0,0,1,.47.72,2.7,2.7,0,0,1,.16,1,3.11,3.11,0,0,1-.11.84,2.25,2.25,0,0,1-.35.67,2.15,2.15,0,0,1-.56.52,3.24,3.24,0,0,1-.75.35,3,3,0,0,1,.38.24,1.89,1.89,0,0,1,.34.35,2.52,2.52,0,0,1,.3.45,5.43,5.43,0,0,1,.28.59l.77,1.8a4.14,4.14,0,0,1,.14.39A1.15,1.15,0,0,1,347.14,20.83Zm-2.4-6.21a1.31,1.31,0,0,0-.21-.76,1.07,1.07,0,0,0-.67-.44l-.32-.06-.5,0h-.83v2.6h1a2.39,2.39,0,0,0,.69-.1,1.22,1.22,0,0,0,.49-.27,1,1,0,0,0,.3-.41A1.33,1.33,0,0,0,344.74,14.62Z"/><path class="cls-15" d="M356.6,16.39a7,7,0,0,1-.28,2,4.07,4.07,0,0,1-.85,1.53,3.67,3.67,0,0,1-1.38.95,5.08,5.08,0,0,1-1.9.33,5.54,5.54,0,0,1-1.87-.28A3.14,3.14,0,0,1,349,20.1a3.73,3.73,0,0,1-.8-1.46,7.55,7.55,0,0,1-.26-2.09,6.53,6.53,0,0,1,.28-2,4.19,4.19,0,0,1,.84-1.51,3.83,3.83,0,0,1,1.38-.95,5.15,5.15,0,0,1,1.92-.33,5.68,5.68,0,0,1,1.83.27,3.35,3.35,0,0,1,1.33.85,3.78,3.78,0,0,1,.81,1.45A7,7,0,0,1,356.6,16.39Zm-2,.1a6.57,6.57,0,0,0-.12-1.31,2.74,2.74,0,0,0-.38-1,1.84,1.84,0,0,0-.73-.65,2.49,2.49,0,0,0-1.13-.23,2.32,2.32,0,0,0-1.14.26,2,2,0,0,0-.74.69,2.68,2.68,0,0,0-.4,1,5.94,5.94,0,0,0-.12,1.22,7.84,7.84,0,0,0,.11,1.35,3.33,3.33,0,0,0,.38,1,1.68,1.68,0,0,0,.73.64,2.52,2.52,0,0,0,1.13.23,2.36,2.36,0,0,0,1.15-.26,2,2,0,0,0,.74-.69,2.9,2.9,0,0,0,.4-1A6.21,6.21,0,0,0,354.65,16.49Z"/><path class="cls-15" d="M364.28,14.7a3.59,3.59,0,0,1-.24,1.36,2.55,2.55,0,0,1-.7,1,3.08,3.08,0,0,1-1.13.62,5.24,5.24,0,0,1-1.57.21h-.77v2.92a.2.2,0,0,1,0,.13.27.27,0,0,1-.15.09,1.45,1.45,0,0,1-.29.06l-.45,0-.45,0a1.33,1.33,0,0,1-.28-.06.27.27,0,0,1-.15-.09.2.2,0,0,1,0-.13V12.58a.59.59,0,0,1,.62-.66h2.16l.62,0c.2,0,.43.06.7.11a3.46,3.46,0,0,1,.83.3,2.49,2.49,0,0,1,.72.56,2.16,2.16,0,0,1,.45.78A2.93,2.93,0,0,1,364.28,14.7Zm-1.94.13a1.68,1.68,0,0,0-.17-.79,1.26,1.26,0,0,0-.42-.46,1.49,1.49,0,0,0-.52-.19,5.12,5.12,0,0,0-.56,0h-.8v3.1h.84a2,2,0,0,0,.74-.12A1.2,1.2,0,0,0,362,16a1.58,1.58,0,0,0,.29-.51A2.28,2.28,0,0,0,362.34,14.83Z"/><path class="cls-15" d="M371,20.34a3,3,0,0,1,0,.34,1.14,1.14,0,0,1-.05.23.38.38,0,0,1-.09.12.17.17,0,0,1-.12,0h-4.59a.56.56,0,0,1-.39-.14.55.55,0,0,1-.16-.45v-8a.55.55,0,0,1,.16-.45.56.56,0,0,1,.39-.14h4.56a.16.16,0,0,1,.12,0,.23.23,0,0,1,.08.12.94.94,0,0,1,.06.23,3.44,3.44,0,0,1,0,.35,3.22,3.22,0,0,1,0,.33.85.85,0,0,1-.06.22.32.32,0,0,1-.08.13.21.21,0,0,1-.12,0h-3.26v2.23h2.76a.17.17,0,0,1,.12,0,.62.62,0,0,1,.09.12.9.9,0,0,1,.05.22,2.92,2.92,0,0,1,0,.33,3,3,0,0,1,0,.34,1,1,0,0,1-.05.22.62.62,0,0,1-.09.12.24.24,0,0,1-.12,0h-2.76v2.58h3.29a.17.17,0,0,1,.12,0,.38.38,0,0,1,.09.12A1,1,0,0,1,371,20,3,3,0,0,1,371,20.34Z"/><path class="cls-15" d="M380,20.37a2.88,2.88,0,0,1,.11.41.25.25,0,0,1-.06.22.43.43,0,0,1-.27.09l-.55,0h-.56a1.82,1.82,0,0,1-.31,0,.27.27,0,0,1-.15-.09,1.07,1.07,0,0,1-.07-.15L377.53,19h-3.44l-.58,1.79a.67.67,0,0,1-.07.17.28.28,0,0,1-.15.1.91.91,0,0,1-.29.06h-.49l-.51,0a.42.42,0,0,1-.25-.1.25.25,0,0,1-.05-.23,2.55,2.55,0,0,1,.1-.4l2.82-8.11a.75.75,0,0,1,.1-.2.33.33,0,0,1,.18-.11,1.37,1.37,0,0,1,.34,0h1.25a1.67,1.67,0,0,1,.38,0,.32.32,0,0,1,.2.11.64.64,0,0,1,.1.22Zm-4.2-6.7h0l-1.3,3.88h2.6Z"/><path class="cls-15" d="M274.81,26.42a.53.53,0,0,1,0,.13.29.29,0,0,1,0,.09l0,0-.05,0h-1.83v1.7h1.78l.05,0a.2.2,0,0,1,0,.09.45.45,0,0,1,0,.13.41.41,0,0,1,0,.12.2.2,0,0,1,0,.09l-.05.05-.05,0h-1.73V31a.11.11,0,0,1,0,0,.15.15,0,0,1-.06,0l-.1,0h-.32l-.1,0-.06,0a.11.11,0,0,1,0,0V26.41a.23.23,0,0,1,.08-.21.27.27,0,0,1,.17-.06h2.29l0,.05a.2.2,0,0,1,0,.09A.53.53,0,0,1,274.81,26.42Z"/><path class="cls-15" d="M278.87,29.26a2.77,2.77,0,0,1-.11.78,1.82,1.82,0,0,1-.34.61,1.4,1.4,0,0,1-.55.4,2.14,2.14,0,0,1-1.52,0,1.34,1.34,0,0,1-.53-.37,1.6,1.6,0,0,1-.32-.59,2.71,2.71,0,0,1-.1-.79,2.77,2.77,0,0,1,.11-.78,1.64,1.64,0,0,1,.33-.61,1.48,1.48,0,0,1,.55-.4,1.87,1.87,0,0,1,.78-.15,2.08,2.08,0,0,1,.74.13,1.37,1.37,0,0,1,.53.37,1.47,1.47,0,0,1,.32.59A2.69,2.69,0,0,1,278.87,29.26Zm-.66,0a2.89,2.89,0,0,0,0-.53,1.35,1.35,0,0,0-.18-.44.84.84,0,0,0-.32-.3,1,1,0,0,0-.52-.11,1.07,1.07,0,0,0-.49.1.88.88,0,0,0-.33.28,1.22,1.22,0,0,0-.2.43,2.73,2.73,0,0,0,0,1.09,1.3,1.3,0,0,0,.17.44,1,1,0,0,0,.85.4,1,1,0,0,0,.48-.1.84.84,0,0,0,.34-.28,1.32,1.32,0,0,0,.2-.43A2.38,2.38,0,0,0,278.21,29.3Z"/><path class="cls-15" d="M282.79,31a.07.07,0,0,1,0,0,.1.1,0,0,1,0,0l-.1,0h-.31l-.1,0a.1.1,0,0,1-.05,0,.07.07,0,0,1,0,0V29a2,2,0,0,0-.05-.48.88.88,0,0,0-.13-.31.55.55,0,0,0-.23-.2.7.7,0,0,0-.33-.07.78.78,0,0,0-.48.17,2.83,2.83,0,0,0-.5.49V31a.07.07,0,0,1,0,0,.1.1,0,0,1-.05,0l-.1,0H280l-.1,0a.1.1,0,0,1-.05,0,.07.07,0,0,1,0,0V27.56a.07.07,0,0,1,0,0,.08.08,0,0,1,0,0l.09,0h.29l.08,0a.1.1,0,0,1,.05,0,.07.07,0,0,1,0,0V28a2.08,2.08,0,0,1,.59-.48,1.27,1.27,0,0,1,.58-.16,1.32,1.32,0,0,1,.59.12,1.08,1.08,0,0,1,.38.32,1.14,1.14,0,0,1,.21.46,2.86,2.86,0,0,1,.06.63Z"/><path class="cls-15" d="M286.93,31a.43.43,0,0,1,0,0,.1.1,0,0,1-.05,0l-.09,0h-.26l-.09,0a.07.07,0,0,1-.05,0,.08.08,0,0,1,0,0v-.46a2.18,2.18,0,0,1-.57.46,1.28,1.28,0,0,1-.64.17,1.34,1.34,0,0,1-.66-.15,1.27,1.27,0,0,1-.43-.4,1.81,1.81,0,0,1-.25-.6,3.23,3.23,0,0,1-.07-.71,3.35,3.35,0,0,1,.09-.81,1.87,1.87,0,0,1,.29-.62,1.19,1.19,0,0,1,.47-.39,1.44,1.44,0,0,1,.64-.14,1.19,1.19,0,0,1,.56.14,2.13,2.13,0,0,1,.5.39v-2a.09.09,0,0,1,0-.05.1.1,0,0,1,.05,0l.1,0h.31l.1,0a.1.1,0,0,1,.05,0s0,0,0,.05Zm-.64-2.44a2.28,2.28,0,0,0-.5-.49.88.88,0,0,0-.5-.17.72.72,0,0,0-.42.12.87.87,0,0,0-.27.3,1.82,1.82,0,0,0-.16.43,2.63,2.63,0,0,0-.05.49,2.94,2.94,0,0,0,.05.51,1.32,1.32,0,0,0,.14.45.86.86,0,0,0,.26.31.69.69,0,0,0,.42.11,1,1,0,0,0,.24,0,.68.68,0,0,0,.24-.12,1.2,1.2,0,0,0,.26-.21,3,3,0,0,0,.29-.31Z"/><path class="cls-15" d="M288.81,26.39a.45.45,0,0,1-.7.3c-.06-.05-.08-.15-.08-.3a.43.43,0,0,1,.08-.3.48.48,0,0,1,.31-.08.43.43,0,0,1,.31.08C288.79,26.14,288.81,26.24,288.81,26.39ZM288.74,31s0,0,0,0a.07.07,0,0,1-.05,0l-.09,0h-.31l-.1,0a.07.07,0,0,1-.05,0,.08.08,0,0,1,0,0V27.56a.08.08,0,0,1,0,0,.07.07,0,0,1,.05,0l.1,0h.31l.09,0a.07.07,0,0,1,.05,0s0,0,0,0Z"/><path class="cls-15" d="M294.46,29.73a1.38,1.38,0,0,1-.49,1.09,1.73,1.73,0,0,1-.54.28,2.09,2.09,0,0,1-.67.1,3.43,3.43,0,0,1-.47,0,2.9,2.9,0,0,1-.38-.11l-.28-.12a.92.92,0,0,1-.16-.12.24.24,0,0,1-.06-.11.59.59,0,0,1,0-.2v-.14l0-.09s0,0,0,0l.05,0a.25.25,0,0,1,.15.07l.25.14a2.35,2.35,0,0,0,.38.14,1.51,1.51,0,0,0,.5.07,1.29,1.29,0,0,0,.4-.06.72.72,0,0,0,.3-.16.63.63,0,0,0,.2-.26.78.78,0,0,0,.07-.35.61.61,0,0,0-.1-.36.91.91,0,0,0-.25-.27,2.87,2.87,0,0,0-.36-.21l-.41-.19a3.36,3.36,0,0,1-.42-.22,1.93,1.93,0,0,1-.36-.28,1.25,1.25,0,0,1-.25-.38,1.18,1.18,0,0,1-.1-.52,1.43,1.43,0,0,1,.11-.56,1.17,1.17,0,0,1,.32-.41,1.57,1.57,0,0,1,.48-.25,2,2,0,0,1,.6-.09,1.87,1.87,0,0,1,.34,0l.31.08a1.69,1.69,0,0,1,.27.11l.15.09.05.06s0,0,0,.05,0,.05,0,.08v.25s0,.06,0,.09l0,.05-.05,0a.28.28,0,0,1-.13-.06l-.22-.12-.31-.12a1.31,1.31,0,0,0-.41-.06,1,1,0,0,0-.36.06.76.76,0,0,0-.25.15.6.6,0,0,0-.16.22.76.76,0,0,0-.05.27.69.69,0,0,0,.1.36.92.92,0,0,0,.26.26,1.79,1.79,0,0,0,.36.21l.42.2a3.23,3.23,0,0,1,.41.22,1.68,1.68,0,0,1,.37.27,1.42,1.42,0,0,1,.26.38A1.38,1.38,0,0,1,294.46,29.73Z"/><path class="cls-15" d="M297.13,30.77a.87.87,0,0,1,0,.18.19.19,0,0,1-.05.1l-.09.06-.14,0-.17,0h-.17a1.29,1.29,0,0,1-.47-.07.7.7,0,0,1-.31-.22.72.72,0,0,1-.18-.36,2,2,0,0,1-.06-.53V28H295a.1.1,0,0,1-.09-.07.46.46,0,0,1,0-.2.45.45,0,0,1,0-.12.19.19,0,0,1,0-.08l0-.05h.54v-.83a.09.09,0,0,1,0-.05l.05,0,.1,0H296a.22.22,0,0,1,.1,0l.05,0s0,0,0,.05v.83h.94a.1.1,0,0,1,0,.05l0,.08v.12a.46.46,0,0,1,0,.2A.09.09,0,0,1,297,28h-.89v1.93a1.1,1.1,0,0,0,.1.54.39.39,0,0,0,.38.19l.16,0a.34.34,0,0,0,.12,0l.1,0a.1.1,0,0,1,.07,0h0l0,0s0,0,0,.07Z"/><path class="cls-15" d="M300,27.79v.14a.2.2,0,0,1,0,.09.08.08,0,0,1,0,.05l0,0-.08,0-.1,0-.12,0h-.15a.58.58,0,0,0-.19,0,1,1,0,0,0-.2.13,1.29,1.29,0,0,0-.21.24,4.37,4.37,0,0,0-.25.36V31a.07.07,0,0,1,0,0,.1.1,0,0,1-.05,0l-.1,0h-.31l-.1,0a.07.07,0,0,1-.05,0,.07.07,0,0,1,0,0V27.56a.07.07,0,0,1,0,0,.08.08,0,0,1,0,0l.09,0h.29l.08,0a.1.1,0,0,1,.05,0,.07.07,0,0,1,0,0v.5a2.69,2.69,0,0,1,.27-.34,1.41,1.41,0,0,1,.24-.2.65.65,0,0,1,.22-.11.78.78,0,0,1,.22,0h.11l.14,0,.12,0a.15.15,0,0,1,.08,0s0,0,0,0a.07.07,0,0,1,0,.05s0,0,0,.08Z"/><path class="cls-15" d="M303.7,31a.07.07,0,0,1,0,0,.1.1,0,0,1-.05,0l-.09,0h-.28l-.09,0s0,0,0,0a.08.08,0,0,1,0,0v-.46a2,2,0,0,1-.58.48,1.26,1.26,0,0,1-.59.15,1.28,1.28,0,0,1-.58-.12,1,1,0,0,1-.39-.31,1.62,1.62,0,0,1-.21-.46,3,3,0,0,1-.06-.65v-2.1a.07.07,0,0,1,0,0,.09.09,0,0,1,.06,0,.22.22,0,0,1,.1,0h.3a.22.22,0,0,1,.1,0,.07.07,0,0,1,.05,0,.08.08,0,0,1,0,0v2a2.25,2.25,0,0,0,0,.49,1,1,0,0,0,.14.31.63.63,0,0,0,.23.2.66.66,0,0,0,.32.07.85.85,0,0,0,.48-.17,2.35,2.35,0,0,0,.5-.5V27.56a.08.08,0,0,1,0,0s0,0,.05,0l.1,0h.31l.09,0a.13.13,0,0,1,.06,0,.07.07,0,0,1,0,0Z"/><path class="cls-15" d="M309,30.77a.87.87,0,0,1,0,.18.19.19,0,0,1,0,.09.2.2,0,0,1-.09.06l-.14,0-.17,0h-.17a1.29,1.29,0,0,1-.47-.07.7.7,0,0,1-.31-.22.82.82,0,0,1-.18-.36,2,2,0,0,1-.06-.53V28h-1.73v1.93a1.09,1.09,0,0,0,.11.54.39.39,0,0,0,.38.19l.16,0,.12,0,.09,0a.11.11,0,0,1,.07,0h0l0,0a.41.41,0,0,0,0,.07v.22s0,.05,0,.07a.14.14,0,0,1,0,.06l0,0-.09.05-.13,0-.17,0H306a1.27,1.27,0,0,1-.46-.07.8.8,0,0,1-.32-.22.94.94,0,0,1-.18-.36A2.65,2.65,0,0,1,305,30V28h-.49a.09.09,0,0,1-.09-.07.46.46,0,0,1,0-.2.45.45,0,0,1,0-.12.19.19,0,0,1,0-.08.1.1,0,0,1,0-.05H305v-.83a.09.09,0,0,1,0-.05l0,0,.1,0h.31l.1,0,0,0a.09.09,0,0,1,0,.05v.83h1.73v-1a.13.13,0,0,1,0-.06l.06,0,.09,0h.31l.1,0,.05,0a.14.14,0,0,1,0,.06v1H309a.1.1,0,0,1,0,.05.19.19,0,0,1,0,.08.45.45,0,0,1,0,.12.46.46,0,0,1,0,.2.09.09,0,0,1-.09.07H308v1.93a1.1,1.1,0,0,0,.1.54.39.39,0,0,0,.38.19l.16,0,.12,0,.1,0a.08.08,0,0,1,.06,0h0l0,0a.56.56,0,0,1,0,.07A.37.37,0,0,1,309,30.77Z"/><path class="cls-15" d="M312.86,31a.07.07,0,0,1,0,0,.1.1,0,0,1-.05,0l-.09,0h-.28l-.09,0a.1.1,0,0,1,0,0,.43.43,0,0,1,0,0v-.46a2.2,2.2,0,0,1-.58.48,1.29,1.29,0,0,1-.59.15,1.25,1.25,0,0,1-.58-.12,1,1,0,0,1-.39-.31,1.21,1.21,0,0,1-.21-.46,3,3,0,0,1-.06-.65v-2.1a.07.07,0,0,1,0,0,.1.1,0,0,1,.05,0l.1,0h.31l.1,0a.07.07,0,0,1,.05,0,.08.08,0,0,1,0,0v2a2.25,2.25,0,0,0,0,.49,1,1,0,0,0,.14.31.56.56,0,0,0,.23.2.66.66,0,0,0,.32.07.85.85,0,0,0,.48-.17,2.61,2.61,0,0,0,.5-.5V27.56a.43.43,0,0,1,0,0,.09.09,0,0,1,.06,0l.09,0h.31a.22.22,0,0,1,.1,0,.1.1,0,0,1,0,0s0,0,0,0Z"/><path class="cls-15" d="M316.06,27.79v.14s0,.07,0,.09l0,.05,0,0-.08,0-.1,0-.12,0h-.15a.58.58,0,0,0-.19,0,1,1,0,0,0-.2.13,1.79,1.79,0,0,0-.21.24,4.37,4.37,0,0,0-.25.36V31a.07.07,0,0,1,0,0,.1.1,0,0,1-.05,0l-.1,0h-.31l-.1,0a.1.1,0,0,1-.05,0,.07.07,0,0,1,0,0V27.56a.07.07,0,0,1,0,0,.08.08,0,0,1,0,0l.09,0h.29l.08,0a.1.1,0,0,1,.05,0,.07.07,0,0,1,0,0v.5a2.69,2.69,0,0,1,.27-.34,1.41,1.41,0,0,1,.24-.2.65.65,0,0,1,.22-.11.83.83,0,0,1,.22,0h.11l.14,0,.12,0a.15.15,0,0,1,.08,0l0,0a.07.07,0,0,1,0,.05s0,0,0,.08Z"/><path class="cls-15" d="M319.25,31a.08.08,0,0,1,0,.07.19.19,0,0,1-.09,0h-.32s-.07,0-.08,0a.08.08,0,0,1,0-.07v-.34a1.67,1.67,0,0,1-.51.37,1.31,1.31,0,0,1-.59.14,1.81,1.81,0,0,1-.49-.07,1.07,1.07,0,0,1-.38-.21.9.9,0,0,1-.25-.33,1.25,1.25,0,0,1-.08-.45,1,1,0,0,1,.46-.87,1.86,1.86,0,0,1,.55-.21,3.23,3.23,0,0,1,.73-.07h.47v-.27a1.37,1.37,0,0,0,0-.36.66.66,0,0,0-.13-.25.72.72,0,0,0-.25-.16,1.27,1.27,0,0,0-.37-.05,1.33,1.33,0,0,0-.42.06,1.78,1.78,0,0,0-.33.12l-.24.12a.3.3,0,0,1-.14.06.06.06,0,0,1-.05,0,.08.08,0,0,1,0,0l0-.08V28a.66.66,0,0,1,0-.15.17.17,0,0,1,.07-.1.46.46,0,0,1,.18-.12,1.57,1.57,0,0,1,.29-.13l.36-.09a2.58,2.58,0,0,1,.4,0,1.91,1.91,0,0,1,.63.09,1.06,1.06,0,0,1,.43.25.94.94,0,0,1,.23.4,2,2,0,0,1,.08.57Zm-.64-1.58h-.54a2,2,0,0,0-.45,0,1.06,1.06,0,0,0-.32.13.54.54,0,0,0-.19.21.64.64,0,0,0-.06.28.58.58,0,0,0,.17.43.65.65,0,0,0,.48.16.82.82,0,0,0,.46-.13,1.57,1.57,0,0,0,.45-.39Z"/><path class="cls-15" d="M321.05,31a.07.07,0,0,1,0,0,.1.1,0,0,1-.05,0l-.1,0h-.31l-.1,0a.07.07,0,0,1-.05,0,.08.08,0,0,1,0,0V25.88a.14.14,0,0,1,0-.06l.05,0,.1,0h.31l.1,0,.05,0a.13.13,0,0,1,0,.06Z"/><path class="cls-15" d="M322.94,26.39a.38.38,0,0,1-.09.3.44.44,0,0,1-.62-.6.51.51,0,0,1,.32-.08c.15,0,.25,0,.3.08A.38.38,0,0,1,322.94,26.39ZM322.86,31a.07.07,0,0,1,0,0,.1.1,0,0,1-.05,0l-.1,0h-.31l-.1,0a.1.1,0,0,1-.05,0,.07.07,0,0,1,0,0V27.56a.07.07,0,0,1,0,0,.1.1,0,0,1,.05,0l.1,0h.31l.1,0a.1.1,0,0,1,.05,0,.07.07,0,0,1,0,0Z"/><path class="cls-15" d="M328.79,29.14a.29.29,0,0,1-.08.22.27.27,0,0,1-.17.06h-2.29a2.06,2.06,0,0,0,.06.52,1,1,0,0,0,.19.4.86.86,0,0,0,.36.25,1.36,1.36,0,0,0,.53.09,2,2,0,0,0,.44,0l.33-.09.24-.09a.3.3,0,0,1,.13,0h.05s0,0,0,0,0,.05,0,.08a.41.41,0,0,1,0,.12v.08a.2.2,0,0,0,0,.07s0,0,0,.05l0,.05-.12.06a1.18,1.18,0,0,1-.27.1,3,3,0,0,1-.39.08,2.25,2.25,0,0,1-.46,0,2.11,2.11,0,0,1-.75-.12,1.29,1.29,0,0,1-.54-.36,1.36,1.36,0,0,1-.33-.59,2.53,2.53,0,0,1-.12-.82,2.45,2.45,0,0,1,.12-.8,1.88,1.88,0,0,1,.33-.61,1.44,1.44,0,0,1,.53-.38,1.67,1.67,0,0,1,.69-.14,1.6,1.6,0,0,1,.69.14,1.22,1.22,0,0,1,.48.35,1.51,1.51,0,0,1,.27.52,2.2,2.2,0,0,1,.09.64Zm-.64-.19a1.17,1.17,0,0,0-.23-.78.84.84,0,0,0-.69-.29.93.93,0,0,0-.42.09.89.89,0,0,0-.3.24.92.92,0,0,0-.18.34,1.35,1.35,0,0,0-.08.4Z"/><path class="cls-15" d="M334.51,31a.07.07,0,0,1,0,0,.1.1,0,0,1-.05,0l-.08,0h-.27l-.09,0a.1.1,0,0,1-.05,0,.07.07,0,0,1,0,0v-.46a2.56,2.56,0,0,1-.57.46,1.31,1.31,0,0,1-.65.17,1.33,1.33,0,0,1-.65-.15,1.21,1.21,0,0,1-.44-.4,1.8,1.8,0,0,1-.24-.6,3.22,3.22,0,0,1-.08-.71,2.9,2.9,0,0,1,.1-.81,1.86,1.86,0,0,1,.28-.62,1.26,1.26,0,0,1,.47-.39,1.48,1.48,0,0,1,.65-.14,1.15,1.15,0,0,1,.55.14,1.94,1.94,0,0,1,.5.39v-2s0,0,0-.05,0,0,.05,0l.1,0h.31l.09,0a.13.13,0,0,1,.06,0,.09.09,0,0,1,0,.05Zm-.64-2.44a2.28,2.28,0,0,0-.5-.49.88.88,0,0,0-.5-.17.69.69,0,0,0-.41.12.81.81,0,0,0-.28.3,1.46,1.46,0,0,0-.15.43,2,2,0,0,0,0,.49,2.92,2.92,0,0,0,0,.51,1.58,1.58,0,0,0,.14.45,1,1,0,0,0,.27.31.68.68,0,0,0,.41.11,1,1,0,0,0,.25,0,.68.68,0,0,0,.24-.12,1.5,1.5,0,0,0,.26-.21,3,3,0,0,0,.28-.31Z"/><path class="cls-15" d="M336.4,26.39a.38.38,0,0,1-.09.3.41.41,0,0,1-.31.08.31.31,0,0,1-.39-.38.38.38,0,0,1,.09-.3A.46.46,0,0,1,336,26c.15,0,.25,0,.3.08A.38.38,0,0,1,336.4,26.39ZM336.32,31a.07.07,0,0,1,0,0,.1.1,0,0,1-.05,0l-.1,0h-.31l-.1,0a.1.1,0,0,1-.05,0,.07.07,0,0,1,0,0V27.56a.07.07,0,0,1,0,0,.1.1,0,0,1,.05,0l.1,0h.31l.1,0a.1.1,0,0,1,.05,0,.07.07,0,0,1,0,0Z"/><path class="cls-15" d="M340,31a.09.09,0,0,1,0,0,.15.15,0,0,1-.06,0l-.1,0h-.32l-.1,0s0,0-.06,0a.09.09,0,0,1,0,0V26.24a.07.07,0,0,1,0-.06.09.09,0,0,1,.05,0l.11,0h.31l.1,0a.09.09,0,0,1,.06,0,.13.13,0,0,1,0,.06Z"/><path class="cls-15" d="M344.26,31a.07.07,0,0,1,0,0,.1.1,0,0,1-.05,0l-.1,0h-.31l-.1,0a.1.1,0,0,1-.05,0,.07.07,0,0,1,0,0V29a2,2,0,0,0-.05-.48.88.88,0,0,0-.13-.31.55.55,0,0,0-.23-.2.72.72,0,0,0-.33-.07.78.78,0,0,0-.48.17,2.83,2.83,0,0,0-.5.49V31a.07.07,0,0,1,0,0,.1.1,0,0,1,0,0l-.1,0h-.31l-.1,0a.1.1,0,0,1,0,0,.07.07,0,0,1,0,0V27.56a.07.07,0,0,1,0,0,.08.08,0,0,1,0,0l.09,0h.29l.08,0a.1.1,0,0,1,0,0,.07.07,0,0,1,0,0V28a2.08,2.08,0,0,1,.59-.48,1.27,1.27,0,0,1,.58-.16,1.32,1.32,0,0,1,.59.12,1.08,1.08,0,0,1,.38.32,1.14,1.14,0,0,1,.21.46,2.86,2.86,0,0,1,.06.63Z"/><path class="cls-15" d="M348.14,27.55v.11l0,.05L346.93,31a.16.16,0,0,1,0,.07.15.15,0,0,1-.08,0l-.12,0h-.39l-.12,0a.16.16,0,0,1-.08-.05s0,0,0-.06l-1.18-3.3,0-.08a.43.43,0,0,0,0-.05v0s0,0,0-.05a.07.07,0,0,1,.05,0l.09,0h.33l.11,0,.05,0,0,.06,1,2.86,0,0v0l1-2.86a.14.14,0,0,1,0-.06l.06,0,.1,0H348l.09,0a.11.11,0,0,1,.05,0A.07.07,0,0,1,348.14,27.55Z"/><path class="cls-15" d="M351.76,29.14a.29.29,0,0,1-.08.22.27.27,0,0,1-.17.06h-2.29a2.06,2.06,0,0,0,.06.52,1,1,0,0,0,.19.4.93.93,0,0,0,.36.25,1.36,1.36,0,0,0,.53.09,2,2,0,0,0,.44,0l.34-.09.23-.09a.3.3,0,0,1,.14,0h0l0,0s0,.05,0,.08a.41.41,0,0,1,0,.12v.08a.2.2,0,0,0,0,.07s0,0,0,.05l0,.05-.12.06a1.18,1.18,0,0,1-.27.1,3,3,0,0,1-.39.08,2.25,2.25,0,0,1-.46,0,2.11,2.11,0,0,1-.75-.12,1.29,1.29,0,0,1-.54-.36,1.36,1.36,0,0,1-.33-.59,2.53,2.53,0,0,1-.12-.82,2.45,2.45,0,0,1,.12-.8,1.88,1.88,0,0,1,.33-.61,1.44,1.44,0,0,1,.53-.38,1.7,1.7,0,0,1,.69-.14,1.68,1.68,0,0,1,.7.14,1.26,1.26,0,0,1,.47.35,1.51,1.51,0,0,1,.27.52,2.2,2.2,0,0,1,.09.64Zm-.64-.19a1.17,1.17,0,0,0-.23-.78.84.84,0,0,0-.69-.29.93.93,0,0,0-.42.09.89.89,0,0,0-.3.24.92.92,0,0,0-.18.34,1.35,1.35,0,0,0-.08.4Z"/><path class="cls-15" d="M354.9,30.08a1.06,1.06,0,0,1-.1.48.92.92,0,0,1-.27.35,1.51,1.51,0,0,1-.44.22,2.29,2.29,0,0,1-.55.07,2,2,0,0,1-.35,0l-.3-.07a1,1,0,0,1-.23-.1l-.13-.08a.2.2,0,0,1-.06-.11.53.53,0,0,1,0-.19V30.5a.45.45,0,0,0,0-.08.1.1,0,0,1,0-.05h0a.36.36,0,0,1,.13.05l.2.11a2,2,0,0,0,.29.12,1.46,1.46,0,0,0,.38.05,1,1,0,0,0,.3,0,.55.55,0,0,0,.22-.1.35.35,0,0,0,.15-.17.49.49,0,0,0,0-.25.38.38,0,0,0-.07-.24.7.7,0,0,0-.2-.18,1.46,1.46,0,0,0-.28-.14l-.31-.12-.32-.15a1.18,1.18,0,0,1-.28-.2.84.84,0,0,1-.2-.29,1,1,0,0,1-.08-.4,1.09,1.09,0,0,1,.08-.39.82.82,0,0,1,.24-.32,1.15,1.15,0,0,1,.39-.23,1.57,1.57,0,0,1,.56-.09,1.24,1.24,0,0,1,.27,0,.83.83,0,0,1,.25.06l.2.07.11.07a.17.17,0,0,1,.06.06s0,0,0,0,0,0,0,.07,0,.06,0,.1,0,.09,0,.12a.19.19,0,0,1,0,.08l0,0h0a.16.16,0,0,1-.1,0l-.18-.09-.24-.09a1,1,0,0,0-.32,0,1.23,1.23,0,0,0-.29,0,.55.55,0,0,0-.2.11.48.48,0,0,0-.12.16.45.45,0,0,0,0,.2.41.41,0,0,0,.08.25.7.7,0,0,0,.2.18,1.46,1.46,0,0,0,.28.14l.32.13.33.14a1.42,1.42,0,0,1,.28.2,1,1,0,0,1,.2.28A.92.92,0,0,1,354.9,30.08Z"/><path class="cls-15" d="M358.74,27.46a.2.2,0,0,1,.16.05.25.25,0,0,1,.05.15V31a.08.08,0,0,1,0,0,.1.1,0,0,1-.05,0l-.1,0h-.31l-.1,0a.1.1,0,0,1-.05,0,.07.07,0,0,1,0,0V28h-1.8v1.93a1.09,1.09,0,0,0,.11.54.39.39,0,0,0,.38.19l.16,0,.12,0,.09,0a.11.11,0,0,1,.07,0h0l0,0a.56.56,0,0,1,0,.07.37.37,0,0,1,0,.11.44.44,0,0,1,0,.18.3.3,0,0,1,0,.1l-.09.06-.15,0-.16,0h-.18a1.27,1.27,0,0,1-.46-.07.74.74,0,0,1-.32-.22.94.94,0,0,1-.18-.36,2.65,2.65,0,0,1-.05-.53V28h-.49a.09.09,0,0,1-.09-.07.33.33,0,0,1,0-.2s0-.09,0-.12l0-.08a.1.1,0,0,1,0-.05h.54v-.83a.09.09,0,0,1,0-.05l.05,0,.1,0h.31l.1,0,.05,0a.09.09,0,0,1,0,.05v.83Zm.28-1.07a.38.38,0,0,1-.09.3.41.41,0,0,1-.31.08c-.15,0-.25,0-.3-.08a.54.54,0,0,1,0-.6.46.46,0,0,1,.31-.08.31.31,0,0,1,.39.38Z"/><path class="cls-15" d="M365.27,31a.07.07,0,0,1,0,0,.1.1,0,0,1-.05,0l-.1,0h-.31l-.1,0a.1.1,0,0,1-.05,0,.08.08,0,0,1,0,0V28.92a1.64,1.64,0,0,0,0-.4.72.72,0,0,0-.12-.31.53.53,0,0,0-.22-.2.56.56,0,0,0-.3-.07.66.66,0,0,0-.44.17,3.21,3.21,0,0,0-.49.49V31a.08.08,0,0,1,0,0,.1.1,0,0,1-.05,0l-.1,0h-.31l-.1,0a.1.1,0,0,1-.05,0,.43.43,0,0,1,0,0V28.92a1.64,1.64,0,0,0,0-.4.88.88,0,0,0-.13-.31A.57.57,0,0,0,362,28a.62.62,0,0,0-.31-.07.68.68,0,0,0-.44.17,3.21,3.21,0,0,0-.49.49V31a.07.07,0,0,1,0,0,.1.1,0,0,1-.05,0l-.1,0h-.31l-.1,0a.07.07,0,0,1-.05,0,.07.07,0,0,1,0,0V27.56a.07.07,0,0,1,0,0,.08.08,0,0,1,0,0l.09,0h.29l.08,0a.1.1,0,0,1,.05,0,.07.07,0,0,1,0,0V28a2.34,2.34,0,0,1,.57-.48,1.16,1.16,0,0,1,.56-.16,1.12,1.12,0,0,1,.38.06,1,1,0,0,1,.31.14,1.1,1.1,0,0,1,.22.21,1.25,1.25,0,0,1,.15.28c.12-.13.23-.23.33-.32a2.09,2.09,0,0,1,.3-.21,1.78,1.78,0,0,1,.29-.12,1.26,1.26,0,0,1,.27,0,1.16,1.16,0,0,1,.56.12,1,1,0,0,1,.37.32,1.13,1.13,0,0,1,.2.46,2.44,2.44,0,0,1,.06.55Z"/><path class="cls-15" d="M369.4,29.14a.29.29,0,0,1-.08.22.27.27,0,0,1-.17.06h-2.29a2.06,2.06,0,0,0,.06.52,1,1,0,0,0,.19.4.86.86,0,0,0,.36.25,1.36,1.36,0,0,0,.53.09,2,2,0,0,0,.44,0l.34-.09.23-.09a.3.3,0,0,1,.13,0h.05l0,0s0,.05,0,.08a.41.41,0,0,1,0,.12v.08a.2.2,0,0,0,0,.07s0,0,0,.05l0,.05-.12.06a1.18,1.18,0,0,1-.27.1,3,3,0,0,1-.39.08,2.25,2.25,0,0,1-.46,0,2.11,2.11,0,0,1-.75-.12,1.29,1.29,0,0,1-.54-.36,1.36,1.36,0,0,1-.33-.59,2.53,2.53,0,0,1-.12-.82,2.45,2.45,0,0,1,.12-.8,1.88,1.88,0,0,1,.33-.61,1.44,1.44,0,0,1,.53-.38,1.8,1.8,0,0,1,1.39,0,1.26,1.26,0,0,1,.47.35,1.51,1.51,0,0,1,.27.52,2.2,2.2,0,0,1,.09.64Zm-.64-.19a1.17,1.17,0,0,0-.23-.78.84.84,0,0,0-.69-.29.93.93,0,0,0-.42.09.89.89,0,0,0-.3.24.92.92,0,0,0-.18.34,1.35,1.35,0,0,0-.08.4Z"/><path class="cls-15" d="M373.35,31a.07.07,0,0,1,0,0,.1.1,0,0,1,0,0l-.1,0h-.31l-.1,0a.1.1,0,0,1,0,0,.07.07,0,0,1,0,0V29a2,2,0,0,0-.05-.48,1.11,1.11,0,0,0-.13-.31.55.55,0,0,0-.23-.2.72.72,0,0,0-.33-.07.78.78,0,0,0-.48.17,2.53,2.53,0,0,0-.5.49V31a.08.08,0,0,1,0,0,.07.07,0,0,1-.05,0l-.09,0h-.31l-.1,0a.07.07,0,0,1-.05,0,.08.08,0,0,1,0,0V27.56a.08.08,0,0,1,0,0s0,0,0,0l.09,0h.28l.09,0s0,0,0,0a.08.08,0,0,1,0,0V28a2,2,0,0,1,.58-.48,1.31,1.31,0,0,1,.59-.16,1.25,1.25,0,0,1,.58.12,1.12,1.12,0,0,1,.39.32,1.14,1.14,0,0,1,.21.46,2.86,2.86,0,0,1,.06.63Z"/><path class="cls-15" d="M376.25,30.77a.74.74,0,0,1,0,.18c0,.05,0,.08-.05.1l-.09.06-.14,0-.17,0h-.17a1.33,1.33,0,0,1-.47-.07.7.7,0,0,1-.31-.22.82.82,0,0,1-.18-.36,2,2,0,0,1-.06-.53V28h-.48s-.07,0-.1-.07a.46.46,0,0,1,0-.2.45.45,0,0,1,0-.12.19.19,0,0,1,0-.08l0-.05h.54v-.83s0,0,0-.05,0,0,.05,0l.09,0h.32l.09,0a.11.11,0,0,1,0,0s0,0,0,.05v.83h.94a.1.1,0,0,1,0,.05l0,.08s0,.08,0,.12a.43.43,0,0,1,0,.2.09.09,0,0,1-.09.07h-.89v1.93a1.1,1.1,0,0,0,.1.54.4.4,0,0,0,.38.19l.16,0,.13,0,.09,0a.1.1,0,0,1,.07,0h0s0,0,0,0,0,0,0,.07S376.25,30.73,376.25,30.77Z"/><path class="cls-15" d="M380.24,29.26a2.45,2.45,0,0,1-.11.78,1.64,1.64,0,0,1-.33.61,1.43,1.43,0,0,1-.56.4,1.86,1.86,0,0,1-.77.15,1.93,1.93,0,0,1-.75-.13,1.41,1.41,0,0,1-.53-.37,1.58,1.58,0,0,1-.31-.59,2.69,2.69,0,0,1-.11-.79,2.77,2.77,0,0,1,.11-.78,2,2,0,0,1,.33-.61,1.51,1.51,0,0,1,.56-.4,1.86,1.86,0,0,1,.77-.15,2.1,2.1,0,0,1,.75.13,1.45,1.45,0,0,1,.53.37,1.6,1.6,0,0,1,.32.59A2.71,2.71,0,0,1,380.24,29.26Zm-.66,0a2.22,2.22,0,0,0-.05-.53,1.16,1.16,0,0,0-.17-.44A.8.8,0,0,0,379,28a1,1,0,0,0-.51-.11,1.07,1.07,0,0,0-.49.1.84.84,0,0,0-.34.28,1.2,1.2,0,0,0-.19.43,1.93,1.93,0,0,0-.07.55,2.35,2.35,0,0,0,.06.54,1.3,1.3,0,0,0,.17.44.85.85,0,0,0,.33.29,1,1,0,0,0,.51.11,1.07,1.07,0,0,0,.49-.1.84.84,0,0,0,.34-.28,1.13,1.13,0,0,0,.19-.43A2.38,2.38,0,0,0,379.58,29.3Z"/><path class="cls-15" d="M385.82,30.85s0,.09,0,.12a.46.46,0,0,1,0,.09l0,.05-.06,0h-2.39a.27.27,0,0,1-.17-.06.26.26,0,0,1-.08-.21V26.41a.26.26,0,0,1,.08-.21.27.27,0,0,1,.17-.06h2.42a.1.1,0,0,1,0,.05.2.2,0,0,1,0,.09.79.79,0,0,1,0,.25.19.19,0,0,1,0,.08.1.1,0,0,1,0,.05l-.06,0H383.7v1.56h1.68l.05,0a.1.1,0,0,1,0,.05s0,.05,0,.08,0,.08,0,.13,0,.09,0,.12,0,.06,0,.08a.1.1,0,0,1,0,.05H383.7v1.78h2l.06,0,0,.05,0,.08S385.82,30.8,385.82,30.85Z"/><path class="cls-15" d="M389.8,31a.08.08,0,0,1,0,0,.07.07,0,0,1,0,0l-.09,0h-.28l-.09,0a.08.08,0,0,1,0,0,.07.07,0,0,1,0,0v-.46a2.22,2.22,0,0,1-.59.48,1.26,1.26,0,0,1-.59.15,1.28,1.28,0,0,1-.58-.12.9.9,0,0,1-.38-.31,1.21,1.21,0,0,1-.21-.46,2.44,2.44,0,0,1-.07-.65v-2.1a.08.08,0,0,1,0,0,.07.07,0,0,1,.05,0l.1,0h.31l.1,0a.1.1,0,0,1,.05,0,.07.07,0,0,1,0,0v2a2.17,2.17,0,0,0,.05.49,1,1,0,0,0,.13.31.63.63,0,0,0,.23.2.67.67,0,0,0,.33.07.82.82,0,0,0,.47-.17,2.35,2.35,0,0,0,.5-.5V27.56a.08.08,0,0,1,0,0,.07.07,0,0,1,.05,0l.1,0h.31l.1,0a.1.1,0,0,1,0,0,.08.08,0,0,1,0,0Z"/><path class="cls-15" d="M393,27.79v.14a.64.64,0,0,1,0,.09l0,.05-.05,0-.07,0-.1,0-.13,0h-.15l-.19,0a.92.92,0,0,0-.19.13,1.79,1.79,0,0,0-.22.24l-.24.36V31a.08.08,0,0,1,0,0,.07.07,0,0,1,0,0l-.09,0h-.32l-.09,0s-.05,0-.05,0a.08.08,0,0,1,0,0V27.56a.43.43,0,0,1,0,0,.1.1,0,0,1,0,0l.09,0h.28l.09,0a.08.08,0,0,1,0,0,.08.08,0,0,1,0,0v.5a2.71,2.71,0,0,1,.26-.34l.24-.2a.9.9,0,0,1,.22-.11l.22,0h.12l.13,0,.13,0a.2.2,0,0,1,.08,0l0,0a.43.43,0,0,1,0,.05.54.54,0,0,1,0,.08Z"/><path class="cls-15" d="M396.83,29.26a2.45,2.45,0,0,1-.11.78,1.64,1.64,0,0,1-.33.61,1.43,1.43,0,0,1-.56.4,1.86,1.86,0,0,1-.77.15,1.93,1.93,0,0,1-.75-.13,1.34,1.34,0,0,1-.53-.37,1.58,1.58,0,0,1-.31-.59,2.69,2.69,0,0,1-.11-.79,2.77,2.77,0,0,1,.11-.78,2,2,0,0,1,.33-.61,1.51,1.51,0,0,1,.56-.4,1.86,1.86,0,0,1,.77-.15,2.1,2.1,0,0,1,.75.13,1.45,1.45,0,0,1,.53.37,1.6,1.6,0,0,1,.32.59A2.71,2.71,0,0,1,396.83,29.26Zm-.66,0a2.22,2.22,0,0,0-.05-.53,1.16,1.16,0,0,0-.17-.44.8.8,0,0,0-.33-.3,1,1,0,0,0-.51-.11,1.07,1.07,0,0,0-.49.1.84.84,0,0,0-.34.28,1.2,1.2,0,0,0-.19.43,1.93,1.93,0,0,0-.07.55,3.1,3.1,0,0,0,.05.54,1.57,1.57,0,0,0,.18.44.85.85,0,0,0,.33.29,1,1,0,0,0,.51.11,1.07,1.07,0,0,0,.49-.1.84.84,0,0,0,.34-.28,1.13,1.13,0,0,0,.19-.43A2.38,2.38,0,0,0,396.17,29.3Z"/><path class="cls-15" d="M401,29.24a3.43,3.43,0,0,1-.09.82,2,2,0,0,1-.29.61,1.29,1.29,0,0,1-.48.39,1.44,1.44,0,0,1-.64.14,1.36,1.36,0,0,1-.29,0,1.3,1.3,0,0,1-.25-.1,1.32,1.32,0,0,1-.25-.16l-.26-.24v1.74s0,0,0,.05a.11.11,0,0,1-.05,0l-.09,0h-.32l-.1,0-.05,0s0,0,0-.05V27.56s0,0,0-.06l.05,0,.09,0h.26l.09,0,.05,0a.13.13,0,0,1,0,.06V28l.3-.28a1.66,1.66,0,0,1,.3-.19.94.94,0,0,1,.3-.12,1.26,1.26,0,0,1,.33-.05,1.3,1.3,0,0,1,.65.15,1.18,1.18,0,0,1,.43.4,2.1,2.1,0,0,1,.25.59A3.38,3.38,0,0,1,401,29.24Zm-.66.07a2.85,2.85,0,0,0,0-.51,1.2,1.2,0,0,0-.14-.44.72.72,0,0,0-.26-.31.7.7,0,0,0-.42-.12.67.67,0,0,0-.24,0,1.06,1.06,0,0,0-.25.11l-.26.21c-.09.09-.18.2-.28.32V30a2.28,2.28,0,0,0,.5.49.86.86,0,0,0,.49.17.79.79,0,0,0,.42-.11.93.93,0,0,0,.28-.31,1.57,1.57,0,0,0,.15-.43A2,2,0,0,0,400.3,29.31Z"/><path class="cls-15" d="M404.88,29.14a.29.29,0,0,1-.07.22.28.28,0,0,1-.18.06h-2.28a2.06,2.06,0,0,0,.06.52,1,1,0,0,0,.19.4.9.9,0,0,0,.35.25,1.4,1.4,0,0,0,.53.09,1.89,1.89,0,0,0,.44,0l.34-.09.23-.09a.33.33,0,0,1,.14,0h.05l0,0a.19.19,0,0,1,0,.08v.2a.15.15,0,0,1,0,.07.08.08,0,0,1,0,.05l0,.05-.13.06a1.18,1.18,0,0,1-.27.1l-.38.08a2.35,2.35,0,0,1-.47,0,2.19,2.19,0,0,1-.75-.12,1.42,1.42,0,0,1-.54-.36,1.6,1.6,0,0,1-.33-.59,2.86,2.86,0,0,1-.11-.82,2.76,2.76,0,0,1,.11-.8,1.72,1.72,0,0,1,.34-.61,1.4,1.4,0,0,1,.52-.38,1.74,1.74,0,0,1,.69-.14,1.62,1.62,0,0,1,.7.14,1.19,1.19,0,0,1,.47.35,1.23,1.23,0,0,1,.27.52,2.2,2.2,0,0,1,.09.64Zm-.64-.19a1.17,1.17,0,0,0-.22-.78.86.86,0,0,0-.7-.29.88.88,0,0,0-.71.33,1.11,1.11,0,0,0-.19.34,1.34,1.34,0,0,0-.07.4Z"/><path class="cls-15" d="M406.56,26.39a.38.38,0,0,1-.09.3.41.41,0,0,1-.31.08.31.31,0,0,1-.39-.38.38.38,0,0,1,.09-.3.46.46,0,0,1,.31-.08.31.31,0,0,1,.39.38ZM406.49,31a.08.08,0,0,1,0,0,.1.1,0,0,1-.05,0l-.1,0H406l-.1,0a.1.1,0,0,1-.05,0,.07.07,0,0,1,0,0V27.56a.07.07,0,0,1,0,0,.1.1,0,0,1,.05,0l.1,0h.31l.1,0a.1.1,0,0,1,.05,0,.08.08,0,0,1,0,0Z"/><line class="cls-16" x1="92.83" y1="9.45" x2="92.83" y2="33.5"/><line class="cls-16" x1="188.18" y1="9.45" x2="188.18" y2="33.5"/></g></g></svg>