<svg xmlns="http://www.w3.org/2000/svg" viewBox="0 0 240.91 50.13"><defs><style>.cls-1{isolation:isolate;}.cls-2,.cls-3{fill:#1a171b;}.cls-3,.cls-4,.cls-7{fill-rule:evenodd;}.cls-4,.cls-9{fill:#fff;}.cls-5,.cls-7{fill:#e1001a;}.cls-6{fill:#007557;}.cls-8{fill:none;stroke:#1d1d1b;stroke-miterlimit:10;stroke-width:0.75px;}.cls-10{fill:#575756;}.cls-11{fill:#1d1d1b;}.cls-12{fill:#0099a8;}.cls-12,.cls-13,.cls-14{mix-blend-mode:multiply;}.cls-13{fill:#ff671d;}.cls-14{fill:#ffcd00;}</style></defs><title>Risorsa 18@350x</title><g class="cls-1"><g id="Livello_2" data-name="Livello 2"><g id="Testata"><path class="cls-2" d="M55.21,19.86v-.35c-.58,0-.82,0-1.21,0s-.69,0-1.21,0l-2.71,6.6-2.74-6.6c-.52,0-.71,0-1.24,0s-.77,0-1.23,0v.35h.55c.49,0,.55,0,.55.34v8.08h.42V20.6l3,7.22h.4l3-7.22V27c0,1.16.37,1.46,1.17,1.46h.14v-8.2c0-.33.11-.33.56-.34Z"/><path class="cls-2" d="M58.23,28.39v-6c0-.1,0-.13-.16-.13s-1.1.08-2,.08v.32h.74c.16,0,.2.06.2.22v4.2c0,.75.27,1.26,1,1.26Z"/><path class="cls-2" d="M77.2,28.4V23.89a1.78,1.78,0,0,0-2-1.73,2.06,2.06,0,0,0-2,1.29v-1c0-.1,0-.13-.15-.13s-1.1.08-2,.08v.32h.75c.15,0,.19.06.19.22v5.35h1.19V24.67a1.85,1.85,0,0,1,1.63-2c.67,0,1.13.41,1.13,1.36v3.11c0,.74.27,1.25,1,1.25Z"/><path class="cls-2" d="M62.3,27.13V19.58c0-.11,0-.13-.16-.13s-1.09.08-2,.08v.31h.74c.16,0,.2.07.2.23v8.31h.22c.7,0,1-.51,1-1.26"/><path class="cls-3" d="M68.12,26.26c0,.86-.54,1.82-1.36,1.82s-1.17-.35-1.17-1.28.71-1.58,2-1.64h.28c.19,0,.2,0,.2.19Zm1.25,2.13c0-.29-.08-.9-.08-1.26V23.68c0-1-.93-1.53-2.09-1.53-1.51,0-2.46.85-2.46,1.23s.23.49.53.49c.86,0,.53-1.38,1.78-1.38a.94.94,0,0,1,1.07,1v1.1c0,.18,0,.2-.2.2h-.36c-1.85.07-3.26.88-3.26,2s.74,1.62,2.33,1.62a1.58,1.58,0,0,0,1.51-1.06c.06.79.45,1,1,1Z"/><path class="cls-3" d="M83.74,25.21c0,1.8-.29,2.87-1.66,2.87S80.44,27,80.44,25.21c0-1.49.26-2.71,1.64-2.71s1.66,1.22,1.66,2.71m1.35,0a3,3,0,1,0-6,0,3,3,0,1,0,6,0"/><path class="cls-3" d="M82.48,15.41c0,.76-.25,1.29-.76,1.29S81,16.15,81,15.41s.14-1.22.77-1.22.76.6.76,1.22M83,16.88V12.81c0-.05,0-.07-.07-.07s-.51,0-.91,0v.15h.34c.08,0,.1,0,.1.11v1.44a.83.83,0,0,0-.8-.49,1.39,1.39,0,0,0-1.35,1.42,1.31,1.31,0,0,0,1.31,1.48.84.84,0,0,0,.86-.6c0,.36.13.59.45.59Z"/><path class="cls-3" d="M84.72,16.88V14.12s0-.06-.07-.06-.51,0-.91,0v.14h.34c.07,0,.09,0,.09.1v2c0,.34.13.58.45.58Z"/><path class="cls-2" d="M49.58,16.14v-.43a2.44,2.44,0,0,1-1.95,1c-1.23,0-1.65-.81-1.65-2.87,0-1.75.41-2.71,1.71-2.71a1.53,1.53,0,0,1,1.67,1.39h.22c0-.19,0-.46,0-.66s0-.45,0-.66a8.93,8.93,0,0,0-1.89-.34,2.73,2.73,0,0,0-2.7,3C45,16,46.13,17,47.63,17a2.46,2.46,0,0,0,1.95-.88"/><path class="cls-3" d="M53.75,14.83c0,1.22-.19,2-1.12,2s-1.12-.73-1.12-2c0-1,.18-1.84,1.12-1.84s1.12.83,1.12,1.84m.92,0a2,2,0,0,0-2-2.08,2.06,2.06,0,0,0-2,2.08,2,2,0,1,0,4.07,0"/><path class="cls-2" d="M62.16,17V13.92a1.17,1.17,0,0,0-1.27-1.17,1.43,1.43,0,0,0-1.32.88,1.21,1.21,0,0,0-1.25-.88,1.38,1.38,0,0,0-1.3.88v-.69c0-.07,0-.09-.11-.09s-.74.06-1.34.06v.21h.51c.1,0,.13,0,.13.15v3.63H57V14.46c0-.7.49-1.36,1-1.36s.71.28.71.93v2.11c0,.5.19.85.66.85h.15V14.46c0-.69.48-1.36,1-1.36s.71.28.71.93v2.11c0,.5.19.85.66.85Z"/><path class="cls-2" d="M67.42,17V12.91h-.81v2.4a1.24,1.24,0,0,1-1.08,1.35c-.44,0-.74-.27-.74-.92v-2.8c0-.07,0-.09-.1-.09s-.75.06-1.35.06v.21h.51c.11,0,.13,0,.13.15v2.56A1.19,1.19,0,0,0,65.28,17a1.38,1.38,0,0,0,1.33-.88c0,.5.19.85.66.85Z"/><path class="cls-2" d="M72.73,17V13.92a1.2,1.2,0,0,0-1.32-1.17,1.41,1.41,0,0,0-1.36.88v-.69c0-.07,0-.09-.1-.09s-.75.06-1.35.06v.21h.51c.1,0,.13,0,.13.15v3.63h.81V14.46a1.26,1.26,0,0,1,1.1-1.36c.46,0,.77.28.77.93v2.11c0,.5.19.85.66.85Z"/><path class="cls-3" d="M76.94,14.52c0,.13,0,.15-.13.15H75.23c-.13,0-.13,0-.13-.13,0-.88.29-1.55,1-1.55s.88.68.88,1.53m.91.18a1.9,1.9,0,0,0-1.79-1.95,2,2,0,0,0-1.88,2.08A1.93,1.93,0,0,0,76.12,17a2,2,0,0,0,1.58-.66V16a1.84,1.84,0,0,1-1.53.78c-.84,0-1.09-.69-1.09-1.7,0-.13,0-.15.15-.15h2.49c.08,0,.13-.05.13-.21"/><path class="cls-4" d="M20,30.66a11.6,11.6,0,0,1,4.43-1.13A3.83,3.83,0,0,0,28,25.73V9.36H12V25.73a3.83,3.83,0,0,0,3.56,3.8A11.5,11.5,0,0,1,20,30.66"/><polygon class="cls-5" points="28.05 17.07 22.25 17.07 22.25 9.16 17.69 9.16 17.69 17.07 11.8 17.07 11.8 21.62 17.69 21.62 17.69 30.09 19.97 30.89 22.25 30.09 22.25 21.62 28.05 21.62 28.05 17.07"/><path class="cls-6" d="M8.33,7a3.27,3.27,0,0,1-.22,3.37,4.6,4.6,0,0,1-.93,1,6.59,6.59,0,0,0-1.67,2.05s0,0,0,0l0,0a12.4,12.4,0,0,1,.73-2.18A18.17,18.17,0,0,1,7.52,9a.83.83,0,0,0,.1-.51s-.06,0-.1,0a4.37,4.37,0,0,0-.76.85,12.57,12.57,0,0,0-1,1.67v0h0a11.12,11.12,0,0,0-.77,2s0,.11,0,.11c-.06-.6-.34-1.09-.42-1.68a5.26,5.26,0,0,1,2-3.32A4.22,4.22,0,0,0,7.8,6.71a.24.24,0,0,1,.22,0A1,1,0,0,1,8.33,7"/><path class="cls-6" d="M4.12,9.38c.07.11,0,.22,0,.34a5.35,5.35,0,0,0,.16,3.4,5.42,5.42,0,0,1,.06,2.47s-.06,0-.06,0A3.61,3.61,0,0,1,4,15.16a6.51,6.51,0,0,1-1-2.61c-.05-.42.08-.83,0-1.22a.18.18,0,0,0-.07-.1c-.14,0-.15.14-.22.21a4.86,4.86,0,0,0,.84,4,5.92,5.92,0,0,1,.45.91,5.69,5.69,0,0,1,.54,2.94,2.53,2.53,0,0,1-.12.56h0a2.22,2.22,0,0,0-.77-1l-.16-.07a7.3,7.3,0,0,0-.29-1.42c-.26-1-.9-1.81-1.23-2.79,0,0,0-.05,0-.08A4.64,4.64,0,0,1,1.72,12a3.83,3.83,0,0,1,1.81-2.6c.16-.06.44-.27.59,0"/><path class="cls-6" d="M8.88,11.5a4.26,4.26,0,0,1-.65,3.68c-.53.86-1.45,1.35-2.12,2.09a5.6,5.6,0,0,0-.91,1.11s0-.15,0-.22A4.84,4.84,0,0,0,5,17.21a3,3,0,0,0,.22-.31c.68-.91,1.72-1.46,2.31-2.43a3.5,3.5,0,0,0,.6-1.35c0-.08,0-.18-.08-.21s-.23.17-.33.28A7,7,0,0,1,5.87,15.4,5.55,5.55,0,0,0,4.8,16.6h0c0-.14,0-.3,0-.44a6.22,6.22,0,0,1,2.67-4A2.82,2.82,0,0,0,8.3,11s.07-.09.14-.09c.26,0,.34.34.44.55"/><path class="cls-6" d="M1.61,15.06a.58.58,0,0,1,.09.28,7.57,7.57,0,0,0,.6,2.3.37.37,0,0,1,.07.14A17.29,17.29,0,0,1,3.52,20c.08.19.13.39.19.58A4.73,4.73,0,0,1,4,21.78h0a14,14,0,0,1-1.78-1.93,5.11,5.11,0,0,1-.74-2,4.52,4.52,0,0,0-.12-.64.37.37,0,0,0-.13-.15c-.15,0-.14.21-.18.33a4.67,4.67,0,0,0,.22,1.79c.07.12.09.25.16.38A6.07,6.07,0,0,0,3,21.73a7.68,7.68,0,0,1,1.18,1.41,7.83,7.83,0,0,0-.51,1.27v0c-.16-.28-.34-.55-.52-.82a20.19,20.19,0,0,0-1.91-2.13A5.27,5.27,0,0,1,0,18.08a4.2,4.2,0,0,1,1.18-2.9c.1-.13.29-.24.43-.12"/><path class="cls-6" d="M8.48,16.59c.13.16,0,.36,0,.52C8.11,18,8.3,19,8,19.84A11.7,11.7,0,0,1,6,23c0,.13-.17.25-.24.41a5.13,5.13,0,0,0-.65,2.21h0a1.78,1.78,0,0,0-1-.74s0-.09,0-.14A8.23,8.23,0,0,1,5.63,22a7,7,0,0,0,1.76-3.37c0-.14,0-.31-.09-.39s-.24.25-.3.39a8.4,8.4,0,0,1-.55,1.27c-.21.31-.39.65-.62,1-.38.56-.89,1.06-1.25,1.64,0,0,0,0,0,0a6.34,6.34,0,0,1,2.4-5.15,6,6,0,0,1,1.11-.75c.13,0,.3-.09.43,0"/><path class="cls-6" d="M1.24,22.3A6.74,6.74,0,0,0,3.49,25a6.61,6.61,0,0,1,2,2.58s-.09,0-.13,0a7.25,7.25,0,0,1-3.6-2.89c-.1-.14-.15-.3-.34-.33s-.07.2,0,.31a4,4,0,0,0,1.55,2.09c1,.8,2.21,1.09,3.2,1.86a5.15,5.15,0,0,1,1.56,1.69s0,0-.06,0a2,2,0,0,0-.53-.19,1.35,1.35,0,0,0-.77,0h0A6.15,6.15,0,0,0,4.73,29a5.49,5.49,0,0,0-.84-.42,8,8,0,0,1-1.64-1,4.5,4.5,0,0,1-1.7-4.49,1.82,1.82,0,0,1,.34-.89.2.2,0,0,1,.2,0c.07,0,.11.11.15.17"/><path class="cls-6" d="M8.34,22.3A5.43,5.43,0,0,1,8,26.45a4.72,4.72,0,0,0-.54,2.47,1.62,1.62,0,0,1-.28-.25c-.22-.17-.45-.38-.69-.55,0-.09,0-.2.06-.29A4.24,4.24,0,0,1,6.75,27a2.35,2.35,0,0,1,.14-.37c.18-.45.43-.87.59-1.32a3.11,3.11,0,0,0,.29-1.78.16.16,0,0,0-.07-.07c-.11,0-.14.12-.19.19a11,11,0,0,1-.57,1.58A8.05,8.05,0,0,0,6,27.48s0-.05,0-.07A4.87,4.87,0,0,1,5.75,26a4.24,4.24,0,0,1,1-2.66,4.42,4.42,0,0,0,.82-1.72.24.24,0,0,1,.15-.13c.36.08.49.49.61.78"/><path class="cls-6" d="M3.28,28.89a7.42,7.42,0,0,0,2.5,1.5,7.76,7.76,0,0,1,.92.44.84.84,0,0,1,.23.12,7.88,7.88,0,0,1,1.23.9c.07.1.18.18.24.28-.29,0-.59-.08-.89-.09a.69.69,0,0,1-.2,0,5.3,5.3,0,0,1-2.93-1.35c-.11-.07-.22-.18-.36-.15s0,.27.09.39a4.8,4.8,0,0,0,3.17,1.66,10.63,10.63,0,0,1,2,.4c.05,0,0,.09.05.14a6.24,6.24,0,0,0,.46,1.1c-.06,0-.11,0-.16,0a13.89,13.89,0,0,0-2.69-.64,7.88,7.88,0,0,1-1.11-.31A5.15,5.15,0,0,1,3.28,31a4.52,4.52,0,0,1-.52-1.68c0-.23,0-.52.16-.65s.27.1.36.19"/><path class="cls-6" d="M9.3,26.33a3.72,3.72,0,0,1,.14.74c.18.76.68,1.39.82,2.16.26,1.15.3,2.37.62,3.49a5.85,5.85,0,0,0,.81,1.71,2.55,2.55,0,0,0-.84-.14,1.14,1.14,0,0,0-.32.07,8.17,8.17,0,0,1-1-4.16,13,13,0,0,0-.33-1.8A.51.51,0,0,0,9,28.12c-.13,0-.12.13-.17.21A17.16,17.16,0,0,0,9,30.48c.06.54,0,1.1.12,1.64A.11.11,0,0,1,9,32a2.1,2.1,0,0,1-.28-.34A4.59,4.59,0,0,1,8,28.58a6.29,6.29,0,0,1,.32-1.26s0-.08.05-.12A3.11,3.11,0,0,1,9,26.32c.09-.06.27-.1.32,0"/><path class="cls-6" d="M8.13,34.42a7.19,7.19,0,0,0,2.34.41,5.32,5.32,0,0,1,2.4.85l0,0c-1.27-.1-2.64.24-3.79-.25-.1,0-.23-.1-.34,0a.08.08,0,0,0,0,.08,1.48,1.48,0,0,0,.55.4,6,6,0,0,0,2.58.28,7.92,7.92,0,0,1,3.7.74v0a7.09,7.09,0,0,0-1.58.5,8.41,8.41,0,0,0-2.14-.22,2.41,2.41,0,0,1-.38,0,8.28,8.28,0,0,1-.87-.07,4.93,4.93,0,0,1-.86-.22,4.29,4.29,0,0,1-2.56-2.31.75.75,0,0,1,0-.49s.07-.07.12-.1a4.66,4.66,0,0,1,.93.38"/><path class="cls-6" d="M11.75,30.83A3.72,3.72,0,0,1,14.17,33a8.55,8.55,0,0,0,2.75,3.47.86.86,0,0,1,.19.11s-.1.06-.17.06a2.87,2.87,0,0,1-2.74-1.74c-.33-.6-.58-1.24-.95-1.83a2.69,2.69,0,0,0-.79-.89c-.05,0-.07,0-.1.07s.11.32.17.48c.62.87.82,2,1.5,2.82a.06.06,0,0,1,0,0,3.24,3.24,0,0,1-2-2,15.46,15.46,0,0,0-.85-2.54c0-.08,0-.18,0-.24s.39-.06.58,0Z"/><path class="cls-6" d="M31.88,30.81v-.49a.22.22,0,0,0,.21-.08c.39-.51.13-1.29.45-1.82a.42.42,0,0,1,.39-.28,1,1,0,0,1,.51.52c0,.11.1.24.21.26a.06.06,0,0,1,.06,0c.38-.2.45-.64.58-1a3.77,3.77,0,0,1,.31-.85A.8.8,0,0,1,35,26.7s.08,0,.11,0a.46.46,0,0,1,.28.47.29.29,0,0,0,.13.16c.23,0,.34-.18.48-.31a2.1,2.1,0,0,1,1.26-1.15.44.44,0,0,1,.44.19c.25.47,0,1-.18,1.41a.45.45,0,0,0,0,.36c.14,0,.3,0,.44.05a.31.31,0,0,1,.19.26c-.05.51-.53.82-.89,1.07a2.19,2.19,0,0,0-.84.64.57.57,0,0,0,0,.13c.06.08.15.07.22.1a.37.37,0,0,1,.35.26c0,.3-.26.45-.44.6a6,6,0,0,1-1.33.48,1.42,1.42,0,0,0-.58.39s-.05.11,0,.16.37.05.53.15a.43.43,0,0,1,.37.33c0,.36-.41.51-.7.63l-.14,0a1.55,1.55,0,0,1-.36.08,2.34,2.34,0,0,1-.7,0,1.31,1.31,0,0,0-.19-1.34l-.21-.16c.49-.42,1-.87,1.4-1.31,0,0,.06-.06.08-.09l.76-.84c.11-.12.19-.25.28-.36s.29-.41.44-.62a.11.11,0,0,1,.05-.08,2.22,2.22,0,0,0,.36-.78s0-.07,0-.1a.08.08,0,0,0-.1,0,1.27,1.27,0,0,0-.42.41,26.71,26.71,0,0,1-3.65,3.64l-.24.05c-.16,0-.27.1-.42.12a1.22,1.22,0,0,1,0-.78Z"/><path class="cls-6" d="M34.13,17c.26-.1.75.32.78-.18s-.62-1-.8-1.58a1.06,1.06,0,0,1-.11-.68.4.4,0,0,1,.14-.18c.1-.07.36,0,.42,0a.38.38,0,0,0,.3,0,.18.18,0,0,0,.07-.18,3.22,3.22,0,0,0-.45-.81c-.13-.32-.35-.69-.16-1a.21.21,0,0,1,.13-.1.52.52,0,0,1,.33,0c.13.06.31.16.47-.09.25-.41,0-1,.06-1.44a.82.82,0,0,1,.43-.7.43.43,0,0,1,.31.06c.49.29.55.92.91,1.33a.41.41,0,0,0,.23.13c.17-.09.27-.31.49-.33a.36.36,0,0,1,.3.19c.32.76-.14,1.52-.09,2.3A.41.41,0,0,0,38,14c.1,0,.18,0,.26-.09a.57.57,0,0,1,.48-.26.29.29,0,0,1,.19.21c.11.72-.39,1.24-.63,1.85,0,.12-.07.28,0,.39a.23.23,0,0,0,.25,0c.14-.07.33-.16.49,0s.09.47,0,.68a3.25,3.25,0,0,1-.25.45,1,1,0,0,0-1.09.06A2.21,2.21,0,0,0,37,18.93a1.46,1.46,0,0,0-.44-.16c.08-.5.13-1,.22-1.55,0,0,0,0,0-.07,0-.44.06-.94.07-1.4a15.37,15.37,0,0,0-.25-3c-.11-.24-.11-.57-.37-.71-.09,0-.09.11-.12.18a6.33,6.33,0,0,0,.09,1,16.39,16.39,0,0,1-.06,3.64c-.05.28-.07.59-.13.87-.16,1.07-.37,2.11-.59,3.16h0a1.22,1.22,0,0,0-.47-.13c0-.09,0-.2,0-.3a4.87,4.87,0,0,0-.64-2.11,2.11,2.11,0,0,1-.3-1.08c0-.13.09-.28.22-.32"/><path class="cls-6" d="M35.88,22.23s0,0,0-.07a1.94,1.94,0,0,0-.06-.64c.1,0,.22.14.34.07a.21.21,0,0,0,.08-.16.91.91,0,0,0,0-.49A3.77,3.77,0,0,1,36,19.83a.51.51,0,0,1,.28-.49c.31,0,.45.2.65.37.07,0,.14.05.21,0a1.31,1.31,0,0,0,.38-.85,1.8,1.8,0,0,1,.66-1.13.48.48,0,0,1,.45,0A1.45,1.45,0,0,1,39,18.91a1.21,1.21,0,0,0,0,.2.38.38,0,0,0,.13.35c.16.05.23-.12.36-.12s.15,0,.24,0,.21.21.24.37a3.64,3.64,0,0,1-.85,1.87c0,.11-.1.25,0,.35s.31,0,.45,0a.61.61,0,0,1,.18.05.36.36,0,0,1,.11.36,1.19,1.19,0,0,1-.32.58,3.59,3.59,0,0,1-.32.35.64.64,0,0,1-.13.1c-.22.27-.6.43-.67.81a.14.14,0,0,0,.09.13,5.35,5.35,0,0,1,.58,0,.43.43,0,0,1,.33.17c.13.35-.2.62-.43.82a4,4,0,0,1-.79.43s0,0,0,0a1,1,0,0,0-.92-.36,1.51,1.51,0,0,0-.72.31.87.87,0,0,0-.34-.44c.29-.41.6-.85.85-1.26.14-.19.25-.43.39-.62.16-.37.37-.7.51-1.09.06-.19.16-.4.21-.61a4.34,4.34,0,0,0,.19-1.69.32.32,0,0,0-.1-.18c-.13,0-.16.16-.2.24-.09.32-.14.64-.26.95a11.46,11.46,0,0,1-1.21,2.61.73.73,0,0,0-.84-.5c0-.09,0-.15.06-.23a1.93,1.93,0,0,0,.12-.54"/><path class="cls-6" d="M31,8.7a.86.86,0,0,1,.45,0,.26.26,0,0,0,.15,0c.25-.07.28-.39.22-.56-.13-.34-.62-.71-.56-1.15a.46.46,0,0,1,.27-.31c.56-.22,1.18.53,1.62.82.18.1.35.26.58.21s.17-.35.37-.41a.49.49,0,0,1,.46.26A4.31,4.31,0,0,1,35,9.24c0,.23,0,.46.05.69a1.92,1.92,0,0,0-.26.68,3.67,3.67,0,0,0,0,1.05,1.16,1.16,0,0,0-.34,0,8.58,8.58,0,0,0-1.29-3.1c-.13-.16-.28-.38-.49-.39a.11.11,0,0,0,0,.14c0,.07,0,.15.07.2a1.46,1.46,0,0,0,.07.19A11.62,11.62,0,0,1,34,11.85c0,.11-.1.15-.13.26a2.15,2.15,0,0,0-.09.44l0,0c-.36-.54-1.3-.63-1.66-1.16A.42.42,0,0,1,32,11c.1-.2.35-.12.54-.17a.2.2,0,0,0,.09-.15c-.09-.29-.39-.47-.63-.62a2,2,0,0,1-1.05-1A.28.28,0,0,1,31,8.7"/><path class="cls-6" d="M31.17,11.9c.12-.08.25,0,.39,0l.15.05A11.68,11.68,0,0,0,33.55,13a.26.26,0,0,0,.23-.08,1.91,1.91,0,0,0,.3.7s0,.06.06.09a.86.86,0,0,0-.55.45l0,.08a2.58,2.58,0,0,0-.92-.8.1.1,0,0,0-.12.08c0,.29.25.51.4.72a6.89,6.89,0,0,1,1,2.2.94.94,0,0,0-.34.29,1.59,1.59,0,0,0,0,1.44c.11.26.29.5.39.77a5.85,5.85,0,0,1,.38,1.36,4,4,0,0,0,0,.6s0,.05,0,.06,0-.07,0-.1C34,19.91,32.59,19,32,18.29a1.82,1.82,0,0,1-.49-1.41.31.31,0,0,1,.3-.22c.14,0,.31.06.46.05a.19.19,0,0,0,.17-.12c.07-.23-.1-.42-.22-.6a7.75,7.75,0,0,0-.63-.66s0-.05,0-.06c-.23-.25-.48-.46-.38-.84.09-.16.27-.15.42-.17s.11-.08.12-.15c0-.45-.32-.76-.51-1.11a1.4,1.4,0,0,1-.2-.84.46.46,0,0,1,.18-.26"/><path class="cls-6" d="M30.91,25.93a2.83,2.83,0,0,1,.08-.52c.05-.19.12-.4.33-.45s.5.5.73.14a1.37,1.37,0,0,0,0-.8c-.07-.27-.23-.52-.29-.81a2.3,2.3,0,0,1-.2-.82c0-.15,0-.32.16-.41s.3,0,.45-.05.09-.06.13-.1c.09-.49-.23-.86-.17-1.36a.86.86,0,0,1,.34-.71.69.69,0,0,1,.82.2,4.56,4.56,0,0,1,.51.85c.19.43.29.82.79.47.16-.11.28-.28.5-.27a.34.34,0,0,1,.26.26,1.75,1.75,0,0,1-.06.91,2.57,2.57,0,0,0-.14.61,1,1,0,0,0,0,.42c0,.05,0,.11.11.12s.22-.11.34-.12a.49.49,0,0,1,.41,0,.33.33,0,0,1,.12.3c-.06.58-.6.91-.83,1.41a.37.37,0,0,0,0,.23s.06.06.11.07,0,0,0,0,.13,0,.19,0a.46.46,0,0,1,.44.17c.11.31-.14.55-.32.76h0a.83.83,0,0,0-.75-.29c-.78.19-1,1-1.23,1.83a1.19,1.19,0,0,0-.3-.29,9.13,9.13,0,0,0,.23-4.9,1.61,1.61,0,0,0-.35-.86.14.14,0,0,0-.12.06,1.58,1.58,0,0,0,0,.49,11.47,11.47,0,0,1-.31,5.07.83.83,0,0,0-.45.15,1.73,1.73,0,0,0-.57,1.51.88.88,0,0,1-.12.46c-.35-1-.83-1.07-1.17-.89a4.41,4.41,0,0,0,.35-2.78"/><path class="cls-6" d="M26.67,31.73c.16-.19.4-.43.65-.3s.08.49.32.63.39-.32.48-.57a8.71,8.71,0,0,1,.4-1.27c.11-.21.22-.45.51-.36s.18.56.49.53.62-1.24,1.23-1.11c.3.07.58.6.59,1.29a4.9,4.9,0,0,0,0,1.32.19.19,0,0,1,.05.11c-.17.15-.36.29-.54.43a.86.86,0,0,0-.26-.37,2.4,2.4,0,0,0-.26-.18,2.33,2.33,0,0,0,.24-1.08.14.14,0,0,0-.15,0c-.22.17-.36.68-.6,1.08a2.27,2.27,0,0,0-1.42,1.37s0,0-.05-.07a.77.77,0,0,0-.76-.28c-.76.16-1.15,1-1.59,1.62-.12-.32-.35-.37-.63-.47.66-.81.81-1.69,1.34-2.29"/><path class="cls-6" d="M24,35.77a4.25,4.25,0,0,1,1.06-1.23.43.43,0,0,1,.35,0c.15.09.17.48.41.46s.78-.61,1-.93a1.35,1.35,0,0,1,.81-.66.26.26,0,0,1,.29.11c.13.2,0,.52.17.68s.32-.14.44-.27a4.61,4.61,0,0,0,.36-.54.52.52,0,0,1,.11-.19A1.67,1.67,0,0,1,30,32.4a.29.29,0,0,1,.33.15.68.68,0,0,1,.07.32s0,.05,0,.08,0,.14.1.16a.64.64,0,0,0,.43-.08c.56-.21.86-.75,1.45-.9a.88.88,0,0,1,.76.07.69.69,0,0,1,.13.72s0,.06,0,.08c-.14.38-.4.71-.57,1.07,0,0,0,.08,0,.14a.35.35,0,0,0,.09.3,1.51,1.51,0,0,0,.18.09.53.53,0,0,1,.31.26.51.51,0,0,1-.3.49c-.62.39-1.46.24-2.12.55-.19.06-.44.16-.48.37s.05.13.1.18.29.16.31.31-.26.39-.47.47l-.18.06c-1,.22-2.1-.11-3.12.07a3.08,3.08,0,0,0-.74.18c-.08,0-.14,0-.21-.07a8.26,8.26,0,0,0-1.22-.39l.83-.18s.1,0,.13,0c.2-.08.41-.07.59-.16s.14-.06.22-.05l.94-.31.79-.3a.12.12,0,0,1,.1,0,.4.4,0,0,1,.18-.07,2,2,0,0,1,.3-.14c.4-.2.82-.37,1.19-.6a3.24,3.24,0,0,0,.36-.2,4.85,4.85,0,0,0,1.41-1.18s0-.13,0-.17-.23,0-.33,0a15,15,0,0,1-1.61,1l-.88.42-.23.08c-.3.14-.62.25-.92.36l-.67.2-.42.14c-.92.26-2.2.57-2.95.72-.26,0-.52.1-.78.13,0,0,0,0,0,0a3.12,3.12,0,0,0,1-.91"/><path class="cls-7" d="M18.26,36.82a5.69,5.69,0,0,0,1.71-1,6.22,6.22,0,0,0,2,1.06h0a8.35,8.35,0,0,1-2,1.45c-.05,0-.06,0-.11-.06a7.62,7.62,0,0,1-1.62-1.16,1.73,1.73,0,0,1-.24-.23c.08,0,.18-.06.27-.1"/><path class="cls-6" d="M14.19,38.06c.06,0,.14,0,.2-.07a18.53,18.53,0,0,1,2-.51c.32-.08.66-.16,1-.27a7.13,7.13,0,0,0,.64.6,6.46,6.46,0,0,1-.78.25c-.85.28-1.77.39-2.62.68a3.67,3.67,0,0,0-1.58.93,2.07,2.07,0,0,0-.46.71c-.19-.25-.31-.53-.5-.77a4.28,4.28,0,0,1,2.14-1.55"/><path class="cls-6" d="M21.25,38.26s.05,0,.07,0a4.33,4.33,0,0,0,.54.21,12.79,12.79,0,0,0,1.64.45c.15,0,.28.07.43.07.37.09.76.16,1.11.28.07,0,.16,0,.22.09a2.75,2.75,0,0,1,1.66,1.45l0,.08-.54.86c-.06,0,0-.14-.07-.21C26.09,40.43,24.92,40,24,39.78a15.46,15.46,0,0,1-3.47-1,8.08,8.08,0,0,0,.75-.49"/><path class="cls-5" d="M22.48,37.2c.89.3,1.86.39,2.75.68A5.81,5.81,0,0,1,27.33,39a2.33,2.33,0,0,1,.42.57c-.1.09-.12.2-.2.29s-.19.32-.3.47c0,0,0-.06,0-.07a2.63,2.63,0,0,0-.8-1l-.09-.07a10.73,10.73,0,0,0-3.43-1.07,10.45,10.45,0,0,1-1.08-.35c.21-.2.45-.4.66-.61"/><path class="cls-5" d="M13.51,40a4.89,4.89,0,0,1,2.34-1s.1,0,.15,0l.27,0c.25-.07.52-.11.77-.19a10.47,10.47,0,0,0,1.46-.5c.25.18.49.37.76.53a16.45,16.45,0,0,1-3.7,1.09,4,4,0,0,0-1.66.85,2.08,2.08,0,0,0-.5,1h0c-.16-.28-.34-.57-.51-.83a2.29,2.29,0,0,1,.64-.91"/><path class="cls-6" d="M17.59,33.26A2.86,2.86,0,0,0,16.42,33a25.23,25.23,0,0,0,2.46,2.92,2.48,2.48,0,0,0,.63-.42,21.42,21.42,0,0,1-1.92-2.21"/><path class="cls-5" d="M15.57,32.75a1.91,1.91,0,0,0-1.08-.26,27.91,27.91,0,0,0,3.06,4,4.51,4.51,0,0,0,.75-.3,25.91,25.91,0,0,1-2.73-3.41"/><path class="cls-6" d="M22.36,33.26A2.85,2.85,0,0,1,23.52,33a25.23,25.23,0,0,1-2.46,2.92,2.88,2.88,0,0,1-.63-.42,21.51,21.51,0,0,0,1.93-2.21"/><path class="cls-5" d="M24.37,32.75a1.91,1.91,0,0,1,1.08-.26,27.91,27.91,0,0,1-3.06,4,4.51,4.51,0,0,1-.75-.3,25.11,25.11,0,0,0,2.73-3.41"/><path class="cls-3" d="M20,30.66a11.6,11.6,0,0,1,4.43-1.13A3.83,3.83,0,0,0,28,25.73V9.36H12V25.73a3.83,3.83,0,0,0,3.56,3.8A11.5,11.5,0,0,1,20,30.66m0,.92a2.15,2.15,0,0,0-.6-.46,13.69,13.69,0,0,0-3.92-.89,4.52,4.52,0,0,1-4.16-4.53v-17H28.66v17a4.53,4.53,0,0,1-4.17,4.53,13.69,13.69,0,0,0-3.92.89,2.31,2.31,0,0,0-.6.46"/><rect class="cls-2" x="13.27" y="1.48" width="0.71" height="1.44"/><polygon class="cls-2" points="18.98 0 19.68 0 19.68 0.74 20.26 0.74 20.26 0 20.96 0 20.96 1.45 18.98 1.45 18.98 0"/><polygon class="cls-2" points="14.56 2.39 14.56 0.74 15.26 0.74 15.26 2.18 15.97 3.27 15.97 5.52 15.26 5.52 15.26 3.48 14.56 2.39"/><polygon class="cls-2" points="16.54 1.48 17.12 1.48 17.12 2.18 15.84 2.18 15.84 0.74 16.54 0.74 16.54 1.48"/><polygon class="cls-2" points="17.76 6.8 12.7 6.8 12.7 4.22 11.99 3.13 11.99 1.48 12.7 1.48 12.7 2.92 13.41 4.01 13.41 6.09 17.76 6.09 17.76 6.8"/><rect class="cls-2" x="25.96" y="1.48" width="0.71" height="1.44"/><polygon class="cls-2" points="25.39 2.39 25.39 0.74 24.68 0.74 24.68 2.18 23.97 3.27 23.97 5.52 24.68 5.52 24.68 3.48 25.39 2.39"/><polygon class="cls-2" points="23.4 1.48 22.82 1.48 22.82 2.18 24.1 2.18 24.1 0.74 23.4 0.74 23.4 1.48"/><path class="cls-2" d="M12.7,8.08V7.37h5.64V6.09a1.64,1.64,0,0,1,3.27,0V7.37h5.63v.71H20.9v-2a.93.93,0,0,0-1.86,0v2Z"/><polygon class="cls-2" points="22.18 6.8 27.25 6.8 27.25 4.22 27.95 3.13 27.95 1.48 27.25 1.48 27.25 2.92 26.54 4.01 26.54 6.09 22.18 6.09 22.18 6.8"/><path class="cls-2" d="M19,4.08V2.43l-.64-1V0h-.71V1.65l.65,1v2a2.41,2.41,0,0,1,.7-.52"/><path class="cls-2" d="M20.9,4.08V2.43l.64-1V0h.71V1.65l-.64,1v2a2.46,2.46,0,0,0-.71-.52"/><line class="cls-8" x1="104.76" y1="11.76" x2="104.76" y2="35.81"/><path class="cls-9" d="M183.17,28.64V26.45h.48V28.2h1.09v.44Z"/><path class="cls-9" d="M187.43,28.64l-.2-.49h-.93l-.2.49h-.49l.94-2.21H187l.94,2.21ZM186.76,27l-.29.71h.59Z"/><path class="cls-9" d="M191.63,28.67a1.1,1.1,0,0,1-1.13-1.12h0a1.11,1.11,0,0,1,1.15-1.13,1.14,1.14,0,0,1,.86.34l-.31.35a.81.81,0,0,0-.56-.24.64.64,0,0,0-.63.68h0a.65.65,0,0,0,.63.69.82.82,0,0,0,.58-.25l.3.3A1.1,1.1,0,0,1,191.63,28.67Z"/><path class="cls-9" d="M193.63,28.64V26.45h.48v2.19Z"/><path class="cls-9" d="M196.35,26.89v1.75h-.48V26.89h-.67v-.44H197v.44Z"/><path class="cls-9" d="M199.07,26.89v1.75h-.48V26.89h-.67v-.44h1.82v.44Z"/><path class="cls-9" d="M202.43,28.64l-.2-.49h-.92l-.2.49h-.5l.94-2.21H202l.93,2.21Zm-.82-2.36-.4-.38.41-.18.35.56Zm.16.73-.29.71h.58Z"/><path class="cls-9" d="M206.44,28h-.37v.66h-.48V26.45h.9a.75.75,0,0,1,.84.76h0A.79.79,0,0,1,206.44,28Zm.4-.77c0-.21-.15-.33-.39-.33h-.38v.67h.39a.34.34,0,0,0,.38-.33Z"/><path class="cls-9" d="M208.38,28.64V26.45H210v.43h-1.17v.44h1v.43h-1v.46h1.19v.43Z"/><path class="cls-9" d="M212.5,28.64l-.47-.7h-.38v.7h-.48V26.45h1c.52,0,.83.27.83.72h0a.69.69,0,0,1-.47.68l.53.78Zm0-1.44c0-.21-.14-.32-.38-.32h-.48v.63h.49c.24,0,.37-.12.37-.31Z"/><path class="cls-9" d="M215.79,28.64V26.45h.48v2.19Z"/><path class="cls-9" d="M217.52,28.64V26.45H218V28.2h1.09v.44Z"/><path class="cls-9" d="M222.26,26.45v1.43l.62-.94h0l.61.93V26.45H224v2.19h-.52l-.57-.93-.58.93h-.52V26.45Z"/><path class="cls-9" d="M225.2,28.64V26.45h1.65v.43h-1.18v.44h1v.43h-1v.46h1.19v.43Z"/><path class="cls-9" d="M228,28.64V26.45h.48V28.2h1.09v.44Z"/><path class="cls-9" d="M231.1,26.89v.46h1.05v.44H231.1v.85h-.48V26.45h1.67v.44Z"/><path class="cls-9" d="M234.75,28.64l-.2-.49h-.93l-.2.49h-.49l.94-2.21h.44l.94,2.21ZM234.08,27l-.29.71h.59Z"/><path class="cls-9" d="M237.61,28.64l-.46-.7h-.38v.7h-.48V26.45h1c.51,0,.82.27.82.72h0a.69.69,0,0,1-.47.68l.54.78Zm0-1.44c0-.21-.14-.32-.37-.32h-.48v.63h.49c.23,0,.36-.12.36-.31Z"/><path class="cls-9" d="M239.24,28.64V26.45h1.65v.43h-1.17v.44h1v.43h-1v.46h1.19v.43Z"/><path class="cls-9" d="M205.59,12.76h2.47l2.74,4.41,2.74-4.41H216V23.18h-2.26v-6.8l-2.93,4.45h-.06l-2.9-4.41v6.76h-2.27Z"/><path class="cls-9" d="M218.62,12.76h2.29V23.18h-2.29Z"/><path class="cls-9" d="M193.14,23.18H192l-3.8-5.68-3.79,5.68h-1.19V12.76h1.17V21.2l3.8-5.58h.06L192,21.19V12.76h1.15Z"/><path class="cls-9" d="M195.64,12.76h7.53v1.06h-6.35v3.59h5.68v1.05h-5.68v3.67h6.43v1.05h-7.61Z"/><path class="cls-9" d="M171.41,13.35a1.06,1.06,0,1,0-1.06,1.06A1.07,1.07,0,0,0,171.41,13.35Z"/><path class="cls-9" d="M171.41,20.49a1.06,1.06,0,1,0-1.06,1.06A1.06,1.06,0,0,0,171.41,20.49Z"/><path class="cls-9" d="M171.41,27.64a1.06,1.06,0,1,0-1.06,1.06A1.07,1.07,0,0,0,171.41,27.64Z"/><path class="cls-9" d="M171.41,34.79a1.06,1.06,0,1,0-1.06,1.05A1.06,1.06,0,0,0,171.41,34.79Z"/><path class="cls-9" d="M121.39,13.35a1.06,1.06,0,1,0-1,1.06A1.06,1.06,0,0,0,121.39,13.35Z"/><path class="cls-9" d="M121.39,27.64a1.06,1.06,0,1,0-1,1.06A1.06,1.06,0,0,0,121.39,27.64Z"/><path class="cls-9" d="M121.39,34.79a1.06,1.06,0,1,0-1,1.05A1.05,1.05,0,0,0,121.39,34.79Z"/><path class="cls-9" d="M128.54,13.35a1.06,1.06,0,1,0-1.06,1.06A1.06,1.06,0,0,0,128.54,13.35Z"/><path class="cls-9" d="M128.54,20.49a1.06,1.06,0,1,0-1.06,1.06A1.05,1.05,0,0,0,128.54,20.49Z"/><path class="cls-9" d="M128.54,27.64a1.06,1.06,0,1,0-1.06,1.06A1.06,1.06,0,0,0,128.54,27.64Z"/><path class="cls-9" d="M135.68,6.21a1.06,1.06,0,1,0-1.05,1A1.05,1.05,0,0,0,135.68,6.21Z"/><path class="cls-9" d="M135.68,13.35a1.06,1.06,0,1,0-1.05,1.06A1.06,1.06,0,0,0,135.68,13.35Z"/><path class="cls-9" d="M135.68,20.49a1.06,1.06,0,1,0-1.05,1.06A1,1,0,0,0,135.68,20.49Z"/><path class="cls-9" d="M135.68,34.79a1.06,1.06,0,1,0-1.05,1.05A1.05,1.05,0,0,0,135.68,34.79Z"/><path class="cls-9" d="M142.83,13.35a1.06,1.06,0,1,0-1.06,1.06A1.06,1.06,0,0,0,142.83,13.35Z"/><path class="cls-9" d="M142.83,20.49a1.06,1.06,0,1,0-1.06,1.06A1.05,1.05,0,0,0,142.83,20.49Z"/><path class="cls-9" d="M142.83,27.64a1.06,1.06,0,1,0-1.06,1.06A1.06,1.06,0,0,0,142.83,27.64Z"/><circle class="cls-9" cx="141.77" cy="34.79" r="1.06"/><path class="cls-9" d="M142.83,41.93A1.06,1.06,0,1,0,141.77,43,1.06,1.06,0,0,0,142.83,41.93Z"/><path class="cls-9" d="M150,49.07a1.06,1.06,0,1,0-1.05,1.06A1,1,0,0,0,150,49.07Z"/><path class="cls-9" d="M150,6.21a1.06,1.06,0,1,0-1.05,1A1.05,1.05,0,0,0,150,6.21Z"/><path class="cls-9" d="M150,20.49a1.06,1.06,0,1,0-1.05,1.06A1,1,0,0,0,150,20.49Z"/><path class="cls-9" d="M150,27.64a1.06,1.06,0,1,0-1.05,1.06A1.06,1.06,0,0,0,150,27.64Z"/><path class="cls-9" d="M150,34.79a1.06,1.06,0,1,0-1.05,1.05A1.05,1.05,0,0,0,150,34.79Z"/><path class="cls-9" d="M150,41.93A1.06,1.06,0,1,0,148.92,43,1.06,1.06,0,0,0,150,41.93Z"/><path class="cls-9" d="M157.12,49.07a1.06,1.06,0,1,0-1.06,1.06A1.06,1.06,0,0,0,157.12,49.07Z"/><path class="cls-9" d="M157.12,6.21a1.06,1.06,0,1,0-1.06,1A1.06,1.06,0,0,0,157.12,6.21Z"/><path class="cls-9" d="M157.12,13.35a1.06,1.06,0,1,0-1.06,1.06A1.07,1.07,0,0,0,157.12,13.35Z"/><path class="cls-9" d="M157.12,20.49a1.06,1.06,0,1,0-1.06,1.06A1.06,1.06,0,0,0,157.12,20.49Z"/><path class="cls-9" d="M157.12,27.64a1.06,1.06,0,1,0-1.06,1.06A1.07,1.07,0,0,0,157.12,27.64Z"/><path class="cls-9" d="M157.12,41.93A1.06,1.06,0,1,0,156.06,43,1.07,1.07,0,0,0,157.12,41.93Z"/><path class="cls-9" d="M164.26,6.21a1.06,1.06,0,1,0-1.06,1A1.05,1.05,0,0,0,164.26,6.21Z"/><path class="cls-9" d="M164.26,13.35a1.06,1.06,0,1,0-1.06,1.06A1.06,1.06,0,0,0,164.26,13.35Z"/><path class="cls-9" d="M164.26,20.49a1.06,1.06,0,1,0-1.06,1.06A1.05,1.05,0,0,0,164.26,20.49Z"/><path class="cls-9" d="M164.26,27.64a1.06,1.06,0,1,0-1.06,1.06A1.06,1.06,0,0,0,164.26,27.64Z"/><path class="cls-9" d="M164.26,34.79a1.06,1.06,0,1,0-1.06,1.05A1.05,1.05,0,0,0,164.26,34.79Z"/><path class="cls-9" d="M164.26,41.93A1.06,1.06,0,1,0,163.2,43,1.06,1.06,0,0,0,164.26,41.93Z"/><path class="cls-9" d="M162.15,13.34a13.24,13.24,0,1,0-13.24,13.24A13.23,13.23,0,0,0,162.15,13.34Z"/><path class="cls-9" d="M165.42,34.79a9.36,9.36,0,1,0-9.36,9.35A9.36,9.36,0,0,0,165.42,34.79Z"/><path class="cls-9" d="M144,27.64A9.36,9.36,0,1,0,134.63,37,9.35,9.35,0,0,0,144,27.64Z"/><polygon class="cls-9" points="135.87 27.02 135.25 26.39 134.63 27.02 134 26.39 133.38 27.02 134.01 27.64 133.38 28.27 134 28.89 134.63 28.27 135.25 28.89 135.87 28.27 135.25 27.64 135.87 27.02"/><rect class="cls-9" x="154.96" y="33.68" width="2.21" height="2.21"/><polygon class="cls-9" points="148.92 13.71 149.63 14.42 150.34 13.71 148.92 12.28 147.49 13.71 148.2 14.42 148.92 13.71"/><path class="cls-10" d="M183.17,28.64V26.45h.48V28.2h1.09v.44Z"/><path class="cls-10" d="M187.43,28.64l-.2-.49h-.93l-.2.49h-.49l.94-2.21H187l.94,2.21ZM186.76,27l-.29.71h.59Z"/><path class="cls-10" d="M191.63,28.67a1.1,1.1,0,0,1-1.13-1.12h0a1.11,1.11,0,0,1,1.15-1.13,1.14,1.14,0,0,1,.86.34l-.31.35a.81.81,0,0,0-.56-.24.64.64,0,0,0-.63.68h0a.65.65,0,0,0,.63.69.82.82,0,0,0,.58-.25l.3.3A1.1,1.1,0,0,1,191.63,28.67Z"/><path class="cls-10" d="M193.63,28.64V26.45h.48v2.19Z"/><path class="cls-10" d="M196.35,26.89v1.75h-.48V26.89h-.67v-.44H197v.44Z"/><path class="cls-10" d="M199.07,26.89v1.75h-.48V26.89h-.67v-.44h1.82v.44Z"/><path class="cls-10" d="M202.43,28.64l-.2-.49h-.92l-.2.49h-.5l.94-2.21H202l.93,2.21Zm-.82-2.36-.4-.38.41-.18.35.56Zm.16.73-.29.71h.58Z"/><path class="cls-11" d="M206.44,28h-.37v.66h-.48V26.45h.9a.75.75,0,0,1,.84.76h0A.79.79,0,0,1,206.44,28Zm.4-.77c0-.21-.15-.33-.39-.33h-.38v.67h.39a.34.34,0,0,0,.38-.33Z"/><path class="cls-11" d="M208.38,28.64V26.45H210v.43h-1.17v.44h1v.43h-1v.46h1.19v.43Z"/><path class="cls-11" d="M212.5,28.64l-.47-.7h-.38v.7h-.48V26.45h1c.52,0,.83.27.83.72h0a.69.69,0,0,1-.47.68l.53.78Zm0-1.44c0-.21-.14-.32-.38-.32h-.48v.63h.49c.24,0,.37-.12.37-.31Z"/><path class="cls-11" d="M215.79,28.64V26.45h.48v2.19Z"/><path class="cls-11" d="M217.52,28.64V26.45H218V28.2h1.09v.44Z"/><path class="cls-11" d="M222.26,26.45v1.43l.62-.94h0l.61.93V26.45H224v2.19h-.52l-.57-.93-.58.93h-.52V26.45Z"/><path class="cls-11" d="M225.2,28.64V26.45h1.65v.43h-1.18v.44h1v.43h-1v.46h1.19v.43Z"/><path class="cls-11" d="M228,28.64V26.45h.48V28.2h1.09v.44Z"/><path class="cls-11" d="M231.1,26.89v.46h1.05v.44H231.1v.85h-.48V26.45h1.67v.44Z"/><path class="cls-11" d="M234.75,28.64l-.2-.49h-.93l-.2.49h-.49l.94-2.21h.44l.94,2.21ZM234.08,27l-.29.71h.59Z"/><path class="cls-11" d="M237.61,28.64l-.46-.7h-.38v.7h-.48V26.45h1c.51,0,.82.27.82.72h0a.69.69,0,0,1-.47.68l.54.78Zm0-1.44c0-.21-.14-.32-.37-.32h-.48v.63h.49c.23,0,.36-.12.36-.31Z"/><path class="cls-11" d="M239.24,28.64V26.45h1.65v.43h-1.17v.44h1v.43h-1v.46h1.19v.43Z"/><path class="cls-11" d="M205.59,12.76h2.47l2.74,4.41,2.74-4.41H216V23.18h-2.26v-6.8l-2.93,4.45h-.06l-2.9-4.41v6.76h-2.27Z"/><path class="cls-11" d="M218.62,12.76h2.29V23.18h-2.29Z"/><path class="cls-10" d="M193.14,23.18H192l-3.8-5.68-3.79,5.68h-1.19V12.76h1.17V21.2l3.8-5.58h.06L192,21.19V12.76h1.15Z"/><path class="cls-10" d="M195.64,12.76h7.53v1.06h-6.35v3.59h5.68v1.05h-5.68v3.67h6.43v1.05h-7.61Z"/><path class="cls-10" d="M171.41,13.35a1.06,1.06,0,1,0-1.06,1.06A1.07,1.07,0,0,0,171.41,13.35Z"/><path class="cls-10" d="M171.41,20.49a1.06,1.06,0,1,0-1.06,1.06A1.06,1.06,0,0,0,171.41,20.49Z"/><path class="cls-10" d="M171.41,27.64a1.06,1.06,0,1,0-1.06,1.06A1.07,1.07,0,0,0,171.41,27.64Z"/><path class="cls-11" d="M171.41,34.79a1.06,1.06,0,1,0-1.06,1.05A1.06,1.06,0,0,0,171.41,34.79Z"/><path class="cls-11" d="M121.39,13.35a1.06,1.06,0,1,0-1,1.06A1.06,1.06,0,0,0,121.39,13.35Z"/><path class="cls-11" d="M121.39,27.64a1.06,1.06,0,1,0-1,1.06A1.06,1.06,0,0,0,121.39,27.64Z"/><path class="cls-10" d="M121.39,34.79a1.06,1.06,0,1,0-1,1.05A1.05,1.05,0,0,0,121.39,34.79Z"/><path class="cls-10" d="M128.54,13.35a1.06,1.06,0,1,0-1.06,1.06A1.06,1.06,0,0,0,128.54,13.35Z"/><path class="cls-10" d="M128.54,20.49a1.06,1.06,0,1,0-1.06,1.06A1.05,1.05,0,0,0,128.54,20.49Z"/><path class="cls-10" d="M128.54,27.64a1.06,1.06,0,1,0-1.06,1.06A1.06,1.06,0,0,0,128.54,27.64Z"/><path class="cls-11" d="M135.68,6.21a1.06,1.06,0,1,0-1.05,1A1.05,1.05,0,0,0,135.68,6.21Z"/><path class="cls-10" d="M135.68,13.35a1.06,1.06,0,1,0-1.05,1.06A1.06,1.06,0,0,0,135.68,13.35Z"/><path class="cls-10" d="M135.68,20.49a1.06,1.06,0,1,0-1.05,1.06A1,1,0,0,0,135.68,20.49Z"/><path class="cls-10" d="M135.68,34.79a1.06,1.06,0,1,0-1.05,1.05A1.05,1.05,0,0,0,135.68,34.79Z"/><path class="cls-10" d="M142.83,13.35a1.06,1.06,0,1,0-1.06,1.06A1.06,1.06,0,0,0,142.83,13.35Z"/><path class="cls-10" d="M142.83,20.49a1.06,1.06,0,1,0-1.06,1.06A1.05,1.05,0,0,0,142.83,20.49Z"/><path class="cls-11" d="M142.83,27.64a1.06,1.06,0,1,0-1.06,1.06A1.06,1.06,0,0,0,142.83,27.64Z"/><circle class="cls-10" cx="141.77" cy="34.79" r="1.06"/><path class="cls-10" d="M142.83,41.93A1.06,1.06,0,1,0,141.77,43,1.06,1.06,0,0,0,142.83,41.93Z"/><path class="cls-10" d="M150,49.07a1.06,1.06,0,1,0-1.05,1.06A1,1,0,0,0,150,49.07Z"/><path class="cls-10" d="M150,6.21a1.06,1.06,0,1,0-1.05,1A1.05,1.05,0,0,0,150,6.21Z"/><path class="cls-10" d="M150,20.49a1.06,1.06,0,1,0-1.05,1.06A1,1,0,0,0,150,20.49Z"/><path class="cls-10" d="M150,27.64a1.06,1.06,0,1,0-1.05,1.06A1.06,1.06,0,0,0,150,27.64Z"/><path class="cls-10" d="M150,34.79a1.06,1.06,0,1,0-1.05,1.05A1.05,1.05,0,0,0,150,34.79Z"/><path class="cls-10" d="M150,41.93A1.06,1.06,0,1,0,148.92,43,1.06,1.06,0,0,0,150,41.93Z"/><path class="cls-11" d="M157.12,49.07a1.06,1.06,0,1,0-1.06,1.06A1.06,1.06,0,0,0,157.12,49.07Z"/><path class="cls-11" d="M157.12,6.21a1.06,1.06,0,1,0-1.06,1A1.06,1.06,0,0,0,157.12,6.21Z"/><path class="cls-10" d="M157.12,13.35a1.06,1.06,0,1,0-1.06,1.06A1.07,1.07,0,0,0,157.12,13.35Z"/><path class="cls-11" d="M157.12,20.49a1.06,1.06,0,1,0-1.06,1.06A1.06,1.06,0,0,0,157.12,20.49Z"/><path class="cls-10" d="M157.12,27.64a1.06,1.06,0,1,0-1.06,1.06A1.07,1.07,0,0,0,157.12,27.64Z"/><path class="cls-10" d="M157.12,41.93A1.06,1.06,0,1,0,156.06,43,1.07,1.07,0,0,0,157.12,41.93Z"/><path class="cls-10" d="M164.26,6.21a1.06,1.06,0,1,0-1.06,1A1.05,1.05,0,0,0,164.26,6.21Z"/><path class="cls-10" d="M164.26,13.35a1.06,1.06,0,1,0-1.06,1.06A1.06,1.06,0,0,0,164.26,13.35Z"/><path class="cls-10" d="M164.26,20.49a1.06,1.06,0,1,0-1.06,1.06A1.05,1.05,0,0,0,164.26,20.49Z"/><path class="cls-10" d="M164.26,27.64a1.06,1.06,0,1,0-1.06,1.06A1.06,1.06,0,0,0,164.26,27.64Z"/><path class="cls-10" d="M164.26,34.79a1.06,1.06,0,1,0-1.06,1.05A1.05,1.05,0,0,0,164.26,34.79Z"/><path class="cls-10" d="M164.26,41.93A1.06,1.06,0,1,0,163.2,43,1.06,1.06,0,0,0,164.26,41.93Z"/><path class="cls-12" d="M162.15,13.34a13.24,13.24,0,1,0-13.24,13.24A13.23,13.23,0,0,0,162.15,13.34Z"/><path class="cls-13" d="M165.42,34.79a9.36,9.36,0,1,0-9.36,9.35A9.36,9.36,0,0,0,165.42,34.79Z"/><path class="cls-14" d="M144,27.64A9.36,9.36,0,1,0,134.63,37,9.35,9.35,0,0,0,144,27.64Z"/><polygon class="cls-9" points="135.87 27.02 135.25 26.39 134.63 27.02 134 26.39 133.38 27.02 134.01 27.64 133.38 28.27 134 28.89 134.63 28.27 135.25 28.89 135.87 28.27 135.25 27.64 135.87 27.02"/><rect class="cls-9" x="154.96" y="33.68" width="2.21" height="2.21"/><polygon class="cls-9" points="148.92 13.71 149.63 14.42 150.34 13.71 148.92 12.28 147.49 13.71 148.2 14.42 148.92 13.71"/></g></g></g></svg>