<svg width="19" height="19" viewBox="0 0 19 19" fill="none" xmlns="http://www.w3.org/2000/svg">
<path fill-rule="evenodd" clip-rule="evenodd" d="M9.5 19C14.7467 19 19 14.7467 19 9.5C19 4.25329 14.7467 0 9.5 0C4.25329 0 0 4.25329 0 9.5C0 14.7467 4.25329 19 9.5 19ZM7.77063 9.49991C7.77063 8.5484 8.54712 7.7719 9.49861 7.7719C10.4501 7.7719 11.2266 8.5484 11.2266 9.49991C11.2266 10.4514 10.4501 11.2279 9.49861 11.2279C8.54712 11.2279 7.77063 10.4514 7.77063 9.49991ZM14.6814 9.23814C14.6813 9.32531 14.6812 9.41256 14.6812 9.49991C14.6812 9.59758 14.6814 9.69513 14.6815 9.79259C14.6824 10.4092 14.6834 11.0221 14.6475 11.6389C14.6074 12.4685 14.4194 13.2035 13.8114 13.8115C13.2047 14.4182 12.4684 14.6074 11.6388 14.6476C11.0117 14.6829 10.3886 14.6822 9.76164 14.6815C9.67447 14.6814 9.58724 14.6813 9.49991 14.6813C9.41275 14.6813 9.32567 14.6814 9.23865 14.6815C8.6125 14.6822 7.98925 14.6829 7.361 14.6476C6.53136 14.6074 5.79636 14.4195 5.18839 13.8115C4.58172 13.2048 4.39246 12.4685 4.35227 11.6389C4.31699 11.0117 4.31768 10.3876 4.31838 9.7612C4.31847 9.67415 4.31857 9.58706 4.31857 9.49991C4.31857 9.41274 4.31847 9.32565 4.31838 9.23862C4.31768 8.61247 4.31699 7.98921 4.35227 7.36096C4.39246 6.53131 4.58042 5.79629 5.18839 5.18831C5.79506 4.58163 6.53136 4.39236 7.361 4.35218C7.98808 4.3169 8.61117 4.31759 9.23816 4.31828C9.32532 4.31838 9.41257 4.31847 9.49991 4.31847C9.58707 4.31847 9.67415 4.31838 9.76118 4.31828C10.3873 4.31759 11.0106 4.3169 11.6388 4.35218C12.4684 4.39236 13.2035 4.58033 13.8114 5.18831C14.4181 5.79499 14.6074 6.53131 14.6475 7.36096C14.6828 7.98805 14.6821 8.61115 14.6814 9.23814ZM6.83989 9.49991C6.83989 10.9712 8.0273 12.1587 9.49861 12.1587C10.9699 12.1587 12.1573 10.9712 12.1573 9.49991C12.1573 8.02857 10.9699 6.84113 9.49861 6.84113C8.0273 6.84113 6.83989 8.02857 6.83989 9.49991ZM11.6453 6.73224C11.6453 7.07577 11.9227 7.35318 12.2662 7.35318C12.3478 7.35328 12.4286 7.33729 12.504 7.30612C12.5793 7.27496 12.6478 7.22922 12.7055 7.17154C12.7632 7.11386 12.8089 7.04537 12.8401 6.96999C12.8713 6.8946 12.8873 6.81381 12.8872 6.73224C12.8872 6.38871 12.6097 6.1113 12.2662 6.1113C11.9227 6.1113 11.6453 6.38871 11.6453 6.73224Z" fill="#55565A"/>
</svg>
