<svg width="19" height="19" viewBox="0 0 19 19" fill="none" xmlns="http://www.w3.org/2000/svg">
<path d="M11.0863 9.33474L8.8637 8.29766C8.66974 8.2076 8.51042 8.30854 8.51042 8.52328V10.4767C8.51042 10.6915 8.66974 10.7924 8.8637 10.7023L11.0853 9.66526C11.2803 9.57422 11.2803 9.42578 11.0863 9.33474ZM9.5 0C4.25323 0 0 4.25323 0 9.5C0 14.7468 4.25323 19 9.5 19C14.7468 19 19 14.7468 19 9.5C19 4.25323 14.7468 0 9.5 0ZM9.5 13.3594C4.63719 13.3594 4.55208 12.921 4.55208 9.5C4.55208 6.07901 4.63719 5.64062 9.5 5.64062C14.3628 5.64062 14.4479 6.07901 14.4479 9.5C14.4479 12.921 14.3628 13.3594 9.5 13.3594Z" fill="#55565A"/>
</svg>
