<svg xmlns="http://www.w3.org/2000/svg" viewBox="0 0 296.67 61"><defs><style>.cls-1,.cls-2{fill:#fff;}.cls-2{fill-rule:evenodd;}.cls-3{fill:#dd0932;}</style></defs><title>Risorsa 17@350x</title><g id="Livello_2" data-name="Livello 2"><g id="Testata"><path class="cls-1" d="M10.14,8.54a4,4,0,0,1-.27,4.09A5.48,5.48,0,0,1,8.74,13.9a8,8,0,0,0-2,2.49s0,0-.06,0v0a14.55,14.55,0,0,1,.88-2.66A20.84,20.84,0,0,1,9.15,11a.91.91,0,0,0,.12-.62s-.07,0-.12,0a5.35,5.35,0,0,0-.93,1,16.46,16.46,0,0,0-1.26,2v0h0A14.83,14.83,0,0,0,6,15.9S6,16,6,16c-.08-.71-.42-1.32-.51-2A6.41,6.41,0,0,1,7.93,10,4.93,4.93,0,0,0,9.49,8.17a.31.31,0,0,1,.27-.06c.18.09.26.27.38.43"/><path class="cls-1" d="M5,11.42c.08.13,0,.27,0,.41A6.45,6.45,0,0,0,5.19,16a6.6,6.6,0,0,1,.07,3s-.07,0-.08,0a2.77,2.77,0,0,1-.26-.48,7.77,7.77,0,0,1-1.19-3.18c-.06-.5.08-1,0-1.48a.17.17,0,0,0-.08-.12c-.17,0-.19.16-.27.26-.6,1.75.2,3.47,1,4.88a7.64,7.64,0,0,1,.55,1.11,7,7,0,0,1,.66,3.59,3.18,3.18,0,0,1-.15.68h0A2.69,2.69,0,0,0,4.49,23l-.2-.09a8.17,8.17,0,0,0-.35-1.73c-.32-1.23-1.09-2.2-1.5-3.4,0,0,0-.05,0-.1a5.55,5.55,0,0,1-.31-3,4.7,4.7,0,0,1,2.2-3.18c.2-.06.54-.32.72-.05"/><path class="cls-1" d="M10.8,14A5.14,5.14,0,0,1,10,18.48c-.64,1-1.76,1.64-2.58,2.54a6.71,6.71,0,0,0-1.1,1.35c-.06-.05,0-.18,0-.27a6.25,6.25,0,0,0-.21-1.16,2.33,2.33,0,0,0,.27-.37c.83-1.11,2.1-1.78,2.81-3A4.18,4.18,0,0,0,9.89,16c0-.09,0-.21-.09-.26s-.29.21-.4.34a8.49,8.49,0,0,1-2.25,2.69,6.74,6.74,0,0,0-1.31,1.47h0a5.06,5.06,0,0,1,0-.55,7.6,7.6,0,0,1,3.25-4.81,3.46,3.46,0,0,0,1-1.41c.05,0,.08-.12.17-.11.32,0,.41.41.53.67"/><path class="cls-1" d="M2,18.33a.64.64,0,0,1,.1.33,9.18,9.18,0,0,0,.74,2.8.76.76,0,0,1,.09.18,21.52,21.52,0,0,1,1.39,2.7c.1.23.16.47.24.71a5.83,5.83,0,0,1,.29,1.45h0a16.93,16.93,0,0,1-2.16-2.34,6.19,6.19,0,0,1-.9-2.38c-.07-.26-.06-.54-.15-.78a.42.42,0,0,0-.16-.19c-.17,0-.17.26-.21.4a5.48,5.48,0,0,0,.27,2.18c.08.14.1.31.18.46a7.24,7.24,0,0,0,2,2.59,10.08,10.08,0,0,1,1.45,1.72,9.5,9.5,0,0,0-.63,1.55v0c-.2-.34-.41-.67-.64-1a22.81,22.81,0,0,0-2.32-2.6A6.37,6.37,0,0,1,0,22a5.17,5.17,0,0,1,1.44-3.53c.12-.15.35-.29.52-.14"/><path class="cls-1" d="M10.32,20.19c.16.19,0,.43-.05.64-.4,1-.17,2.29-.57,3.32A14.35,14.35,0,0,1,7.34,28c-.06.17-.21.32-.29.5a6.15,6.15,0,0,0-.79,2.69h0a2.08,2.08,0,0,0-1.16-.9c0-.06,0-.12,0-.18a10.13,10.13,0,0,1,1.75-3.37A8.42,8.42,0,0,0,9,22.66c0-.17,0-.38-.11-.47s-.29.3-.36.48a11,11,0,0,1-.67,1.54c-.26.38-.47.79-.76,1.16-.46.68-1.08,1.3-1.52,2,0,0-.05,0-.05,0A7.74,7.74,0,0,1,8.45,21.1a6.48,6.48,0,0,1,1.35-.9c.16-.05.36-.13.52,0"/><path class="cls-1" d="M1.51,27.14a8.07,8.07,0,0,0,2.73,3.22A8.06,8.06,0,0,1,6.63,33.5s-.1,0-.15,0A8.79,8.79,0,0,1,2.09,30c-.12-.17-.19-.36-.41-.4s-.08.25-.06.37a4.85,4.85,0,0,0,1.89,2.55c1.16,1,2.68,1.33,3.89,2.27a6.25,6.25,0,0,1,1.9,2.06s-.06,0-.07,0a3.07,3.07,0,0,0-.64-.23,1.66,1.66,0,0,0-.94,0H7.6a7.14,7.14,0,0,0-1.85-1.41,6.07,6.07,0,0,0-1-.51,9.54,9.54,0,0,1-2-1.19A5.47,5.47,0,0,1,.67,28.07,2.17,2.17,0,0,1,1.09,27a.23.23,0,0,1,.23-.05c.09,0,.14.14.19.21"/><path class="cls-1" d="M10.16,27.14a6.61,6.61,0,0,1-.49,5,5.78,5.78,0,0,0-.66,3c-.13-.06-.21-.19-.33-.3s-.55-.46-.85-.67c.06-.1,0-.24.08-.35a5.41,5.41,0,0,1,.3-1,2.45,2.45,0,0,1,.17-.45c.22-.54.52-1.05.73-1.6a3.92,3.92,0,0,0,.35-2.17.24.24,0,0,0-.09-.08c-.13,0-.17.14-.24.22a11.62,11.62,0,0,1-.68,1.93,9.61,9.61,0,0,0-1.11,2.71s0-.06,0-.08A5.92,5.92,0,0,1,7,31.68a5.16,5.16,0,0,1,1.22-3.24,5.49,5.49,0,0,0,1-2.09.32.32,0,0,1,.18-.16c.43.1.59.59.75.95"/><path class="cls-1" d="M4,35.16A9.19,9.19,0,0,0,7,37a8.7,8.7,0,0,1,1.11.53,1.55,1.55,0,0,1,.29.14,9.52,9.52,0,0,1,1.49,1.1c.08.12.23.22.29.35-.35,0-.72-.1-1.08-.11a1.09,1.09,0,0,1-.25,0,6.5,6.5,0,0,1-3.55-1.65c-.14-.08-.27-.22-.45-.18s.06.33.11.48a5.86,5.86,0,0,0,3.86,2,13.47,13.47,0,0,1,2.42.49c.06,0,0,.11.06.17a8.25,8.25,0,0,0,.56,1.34c-.07,0-.13,0-.19-.06a17.63,17.63,0,0,0-3.28-.78,9.94,9.94,0,0,1-1.35-.37A6.25,6.25,0,0,1,4,37.77a5.51,5.51,0,0,1-.63-2.05c0-.29,0-.64.2-.79s.32.12.43.23"/><path class="cls-1" d="M11.32,32.05a5.12,5.12,0,0,1,.17.9c.21.92.83,1.68,1,2.63.32,1.39.38,2.88.76,4.24a7,7,0,0,0,1,2.08,2.91,2.91,0,0,0-1-.17,1.59,1.59,0,0,0-.39.09,9.88,9.88,0,0,1-1.28-5.07,19.49,19.49,0,0,0-.4-2.18.78.78,0,0,0-.21-.35c-.16,0-.15.16-.21.25a19.3,19.3,0,0,0,.22,2.63c.08.66,0,1.34.14,2A.18.18,0,0,1,11,39a3.13,3.13,0,0,1-.34-.42,5.59,5.59,0,0,1-1-3.8,7,7,0,0,1,.39-1.53c.05,0,.05-.09.07-.15A3.4,3.4,0,0,1,10.93,32c.11-.07.33-.12.39,0"/><path class="cls-1" d="M9.89,41.89a9.27,9.27,0,0,0,2.85.5,6.26,6.26,0,0,1,2.92,1l0,0c-1.55-.12-3.21.28-4.61-.3-.13,0-.29-.12-.42,0s0,.06,0,.09a1.71,1.71,0,0,0,.67.49,7.31,7.31,0,0,0,3.14.34,9.75,9.75,0,0,1,4.51.91v0a9.42,9.42,0,0,0-1.93.6,10.16,10.16,0,0,0-2.6-.26,3.53,3.53,0,0,1-.46,0c-.37,0-.71-.06-1.06-.08A7,7,0,0,1,11.78,45a5.22,5.22,0,0,1-3.11-2.82.92.92,0,0,1-.06-.59.35.35,0,0,1,.15-.12,5.83,5.83,0,0,1,1.13.46"/><path class="cls-1" d="M14.3,37.52a4.54,4.54,0,0,1,3,2.63,10.18,10.18,0,0,0,3.33,4.22,1.16,1.16,0,0,1,.24.14c0,.06-.13.07-.22.07a3.5,3.5,0,0,1-3.33-2.11c-.4-.74-.71-1.52-1.15-2.23a3.35,3.35,0,0,0-1-1.09.11.11,0,0,0-.12.08,1.22,1.22,0,0,0,.2.59c.75,1.06,1,2.41,1.83,3.43,0,0,0,0,0,0a3.92,3.92,0,0,1-2.49-2.39,18.7,18.7,0,0,0-1-3.09c0-.09,0-.21,0-.29s.47-.07.7,0Z"/><path class="cls-1" d="M38.79,37.49a5.8,5.8,0,0,0,0-.59.29.29,0,0,0,.26-.1c.48-.62.16-1.56.55-2.22a.51.51,0,0,1,.47-.33,1.16,1.16,0,0,1,.62.63c.05.13.12.29.26.32a.06.06,0,0,1,.08,0c.45-.25.54-.78.7-1.22a4.25,4.25,0,0,1,.38-1,.84.84,0,0,1,.51-.45s.1,0,.14,0a.61.61,0,0,1,.34.58.35.35,0,0,0,.15.19c.27,0,.42-.22.59-.38a2.56,2.56,0,0,1,1.52-1.4.54.54,0,0,1,.54.24c.31.57,0,1.18-.21,1.71a.52.52,0,0,0,0,.44c.17.05.37,0,.54.06a.37.37,0,0,1,.23.32c-.06.62-.64,1-1.09,1.29a3,3,0,0,0-1,.78,1,1,0,0,0,0,.17c.06.09.17.08.26.11a.48.48,0,0,1,.43.32c0,.37-.32.55-.53.74a9.19,9.19,0,0,1-1.62.58,1.8,1.8,0,0,0-.71.47c0,.06-.06.14,0,.2s.45.06.65.17a.53.53,0,0,1,.44.42c0,.43-.5.61-.85.75l-.17.06a1.64,1.64,0,0,1-.44.09,3,3,0,0,1-.85.05,1.6,1.6,0,0,0-.23-1.64l-.25-.2c.59-.51,1.15-1,1.7-1.58,0-.05.07-.08.1-.11.3-.35.62-.7.92-1a4.26,4.26,0,0,0,.34-.43c.2-.23.35-.49.54-.75a.17.17,0,0,1,.06-.1,2.75,2.75,0,0,0,.44-1s0-.09,0-.13a.11.11,0,0,0-.12,0A1.56,1.56,0,0,0,44,34a31.13,31.13,0,0,1-4.45,4.44l-.28.06c-.2,0-.34.12-.51.15a1.58,1.58,0,0,1,0-1Z"/><path class="cls-1" d="M41.53,20.67c.33-.13.92.39,1-.23-.12-.75-.76-1.24-1-1.92a1.29,1.29,0,0,1-.13-.82.41.41,0,0,1,.17-.22c.12-.09.44,0,.51,0a.42.42,0,0,0,.36.05.22.22,0,0,0,.09-.23,5,5,0,0,0-.54-1c-.17-.38-.43-.84-.2-1.27a.24.24,0,0,1,.16-.11.6.6,0,0,1,.4,0c.16.07.38.2.56-.1.31-.51,0-1.18.08-1.77a1,1,0,0,1,.52-.84.46.46,0,0,1,.38.07c.6.36.67,1.12,1.11,1.62a.43.43,0,0,0,.27.15c.22-.11.34-.37.61-.39a.41.41,0,0,1,.36.23c.39.93-.17,1.84-.11,2.8a.46.46,0,0,0,.18.32c.13.05.22,0,.32-.11a.69.69,0,0,1,.58-.31.36.36,0,0,1,.24.25c.13.87-.48,1.51-.77,2.25,0,.15-.09.35,0,.48a.27.27,0,0,0,.3,0c.18-.08.41-.18.6,0s.11.58,0,.82a2.29,2.29,0,0,1-.31.55,1.24,1.24,0,0,0-1.31.08,2.67,2.67,0,0,0-1,2,1.7,1.7,0,0,0-.53-.2c.1-.61.15-1.25.25-1.88a.14.14,0,0,1,0-.09c0-.54.09-1.15.1-1.71a18.72,18.72,0,0,0-.31-3.59c-.13-.3-.13-.69-.44-.87-.12,0-.12.13-.15.22a7.22,7.22,0,0,0,.11,1.2,19.86,19.86,0,0,1-.08,4.43c-.06.34-.08.71-.15,1.06-.2,1.3-.46,2.56-.73,3.83l0,0a1.29,1.29,0,0,0-.56-.15c0-.12,0-.25,0-.37a5.9,5.9,0,0,0-.78-2.57,2.56,2.56,0,0,1-.36-1.32c0-.15.1-.34.26-.38"/><path class="cls-1" d="M43.67,27.06s0-.06,0-.09a2.49,2.49,0,0,0-.08-.78c.12,0,.27.17.42.08a.27.27,0,0,0,.1-.19,1.07,1.07,0,0,0,0-.59,4.17,4.17,0,0,1-.27-1.36.61.61,0,0,1,.35-.59c.37-.05.53.24.79.45.08,0,.17.06.25,0a1.66,1.66,0,0,0,.46-1,2.15,2.15,0,0,1,.81-1.37.58.58,0,0,1,.54,0,1.81,1.81,0,0,1,.47,1.4,1,1,0,0,0,0,.24.52.52,0,0,0,.16.44c.19.06.28-.15.44-.15s.18-.05.28-.05.27.26.31.45a4.54,4.54,0,0,1-1,2.28c0,.12-.12.3,0,.42s.38,0,.55,0a.5.5,0,0,1,.21.05.45.45,0,0,1,.15.44,1.45,1.45,0,0,1-.4.71,3.89,3.89,0,0,1-.38.42,1,1,0,0,1-.16.12c-.28.34-.73.53-.81,1a.15.15,0,0,0,.1.15c.23,0,.45-.07.71,0a.6.6,0,0,1,.39.22c.16.42-.24.75-.52,1a4.68,4.68,0,0,1-1,.53,0,0,0,0,1-.06,0,1.24,1.24,0,0,0-1.12-.44,1.82,1.82,0,0,0-.87.39,1,1,0,0,0-.41-.54c.35-.5.72-1,1-1.53.17-.23.3-.52.47-.76.2-.45.46-.85.62-1.32.08-.24.2-.49.26-.75a5.06,5.06,0,0,0,.23-2.06c0-.07,0-.17-.12-.21s-.19.19-.25.29c-.11.38-.16.78-.3,1.16a14.23,14.23,0,0,1-1.48,3.16.85.85,0,0,0-.68-.6,1,1,0,0,0-.35,0c0-.1.07-.18.08-.28a2.92,2.92,0,0,0,.15-.65"/><path class="cls-1" d="M37.77,10.59a1,1,0,0,1,.55,0,.41.41,0,0,0,.19,0c.29-.08.34-.48.26-.68-.16-.42-.76-.87-.67-1.4a.53.53,0,0,1,.32-.38c.68-.26,1.44.65,2,1,.22.13.42.33.71.27s.21-.43.45-.5a.58.58,0,0,1,.55.31,5.28,5.28,0,0,1,.51,2.1c0,.28,0,.56,0,.84a2.45,2.45,0,0,0-.31.82,4.55,4.55,0,0,0,0,1.28,1.68,1.68,0,0,0-.41,0,10.58,10.58,0,0,0-1.58-3.77c-.16-.19-.34-.46-.6-.48a.16.16,0,0,0-.05.17.66.66,0,0,0,.08.26c0,.08.07.14.08.22a14.13,14.13,0,0,1,1.41,3.87c0,.13-.13.19-.17.31a5.12,5.12,0,0,0-.1.54l0,0c-.44-.64-1.59-.75-2-1.41a.54.54,0,0,1-.11-.51c.13-.24.44-.14.66-.21a.2.2,0,0,0,.12-.18,1.62,1.62,0,0,0-.78-.75A2.37,2.37,0,0,1,37.64,11a.35.35,0,0,1,.13-.38"/><path class="cls-1" d="M37.93,14.48c.14-.09.31,0,.48,0l.18.06a14.75,14.75,0,0,0,2.24,1.29.32.32,0,0,0,.28-.1,2.57,2.57,0,0,0,.36.85.32.32,0,0,1,.08.12,1,1,0,0,0-.67.54l-.06.1a3.12,3.12,0,0,0-1.11-1c-.05,0-.14.05-.15.1,0,.35.31.62.49.88A8.48,8.48,0,0,1,41.27,20a1.08,1.08,0,0,0-.42.35,1.94,1.94,0,0,0,0,1.74c.14.32.36.62.48,1a7.08,7.08,0,0,1,.46,1.65,4.45,4.45,0,0,0,0,.73s0,.07,0,.08,0-.09-.07-.13c-.33-1.12-2.05-2.25-2.77-3.1a2.23,2.23,0,0,1-.61-1.72.4.4,0,0,1,.36-.26c.18,0,.38.07.57.06a.27.27,0,0,0,.21-.14c.08-.3-.13-.53-.27-.74s-.51-.51-.77-.8c0,0,0-.06,0-.07-.27-.31-.58-.57-.46-1,.1-.2.33-.18.51-.2a.33.33,0,0,0,.15-.18c0-.55-.4-.93-.62-1.36a1.67,1.67,0,0,1-.25-1,.62.62,0,0,1,.22-.32"/><path class="cls-1" d="M37.62,31.56a3.29,3.29,0,0,1,.09-.64c.07-.22.15-.48.41-.54s.61.6.88.16a1.51,1.51,0,0,0-.06-1c-.09-.34-.28-.64-.35-1a2.77,2.77,0,0,1-.24-1,.66.66,0,0,1,.2-.5c.15-.17.36.05.53-.06s.12-.07.17-.12c.11-.59-.29-1.05-.2-1.66a1,1,0,0,1,.4-.85.84.84,0,0,1,1,.23,5.5,5.5,0,0,1,.62,1c.23.52.36,1,1,.57.18-.13.33-.34.6-.33a.42.42,0,0,1,.32.32,2.21,2.21,0,0,1-.08,1.11,3.05,3.05,0,0,0-.16.74,1.22,1.22,0,0,0,0,.51c.05.06.07.13.14.14s.26-.13.41-.15a.62.62,0,0,1,.5,0A.45.45,0,0,1,44,29c-.08.7-.73,1.1-1,1.71a.39.39,0,0,0,0,.28.15.15,0,0,0,.13.09s0,0,0,0,.17,0,.24-.07.43,0,.53.2c.14.38-.16.68-.38.93h0a1,1,0,0,0-.91-.35c-1,.23-1.25,1.23-1.5,2.23a1.16,1.16,0,0,0-.37-.36,11,11,0,0,0,.29-6,2,2,0,0,0-.43-1,.18.18,0,0,0-.14.08,1.69,1.69,0,0,0,0,.6A14.17,14.17,0,0,1,40,33.45a1,1,0,0,0-.55.17,2.18,2.18,0,0,0-.7,1.85,1.12,1.12,0,0,1-.14.55c-.43-1.18-1-1.3-1.44-1.08.66-1,.49-2.11.44-3.38"/><path class="cls-1" d="M32.45,38.62c.21-.23.49-.53.8-.37s.1.6.39.77.48-.4.58-.7a13.57,13.57,0,0,1,.48-1.54c.14-.25.28-.54.63-.44s.22.69.6.64.74-1.5,1.49-1.34c.37.08.71.72.72,1.56a5.86,5.86,0,0,0-.06,1.61s.07.08.07.13c-.21.19-.44.36-.66.53a1,1,0,0,0-.31-.45,2.27,2.27,0,0,0-.32-.22,2.72,2.72,0,0,0,.29-1.31.14.14,0,0,0-.17,0c-.28.21-.45.83-.74,1.32a2.72,2.72,0,0,0-1.73,1.66s0-.06,0-.09a1,1,0,0,0-.93-.33c-.93.18-1.4,1.15-1.94,2-.14-.38-.42-.44-.77-.56.82-1,1-2.06,1.63-2.79"/><path class="cls-1" d="M29.22,43.53A5.56,5.56,0,0,1,30.52,42,.5.5,0,0,1,31,42c.18.1.2.58.49.56s.95-.75,1.22-1.14a1.76,1.76,0,0,1,1-.81.34.34,0,0,1,.36.14c.15.24,0,.64.2.83.25,0,.39-.17.53-.33a6.87,6.87,0,0,0,.45-.65.57.57,0,0,1,.12-.23,2.08,2.08,0,0,1,1.14-1,.36.36,0,0,1,.4.19.74.74,0,0,1,.08.39s0,.05,0,.09a.21.21,0,0,0,.12.19.74.74,0,0,0,.53-.1c.68-.25,1.05-.91,1.77-1.08a1.06,1.06,0,0,1,.92.08c.26.19.23.6.15.88,0,0,0,.06,0,.09-.17.46-.49.86-.69,1.3,0,.07,0,.11,0,.17a.47.47,0,0,0,.11.38,1.6,1.6,0,0,0,.23.1.67.67,0,0,1,.37.31A.65.65,0,0,1,40,43c-.77.47-1.79.3-2.59.67-.23.07-.53.19-.58.44s.06.17.12.23.36.19.37.38-.31.47-.56.57l-.22.07c-1.22.27-2.56-.13-3.79.09a3.46,3.46,0,0,0-.91.22c-.1,0-.17-.07-.26-.09a10.21,10.21,0,0,0-1.48-.47l1-.22c.05,0,.13,0,.17,0,.24-.1.49-.08.72-.19s.17-.08.26-.07l1.15-.37c.3-.13.63-.25,1-.36a.22.22,0,0,1,.13-.06c.08,0,.13-.08.22-.08a2.48,2.48,0,0,1,.37-.17,15,15,0,0,0,1.44-.74,3.18,3.18,0,0,0,.44-.24,5.88,5.88,0,0,0,1.71-1.43c0-.06.06-.15,0-.21s-.28,0-.41.06a18.76,18.76,0,0,1-2,1.17l-1.06.51-.29.1c-.37.17-.75.3-1.12.44l-.8.25-.52.16c-1.12.32-2.68.7-3.59.87-.32.06-.64.14-.95.17,0,0,0,0,0,0a3.69,3.69,0,0,0,1.23-1.11"/><path class="cls-2" d="M22.22,44.81a7.09,7.09,0,0,0,2.09-1.18,7.44,7.44,0,0,0,2.38,1.29v0a10.55,10.55,0,0,1-2.39,1.75c-.07,0-.09,0-.14-.06a10.11,10.11,0,0,1-2-1.42,3.58,3.58,0,0,1-.29-.27c.11-.06.22-.08.33-.13"/><path class="cls-1" d="M17.27,46.33c.07-.06.17,0,.24-.1a24.28,24.28,0,0,1,2.41-.61c.4-.1.8-.21,1.19-.33a8.52,8.52,0,0,0,.78.72,6.09,6.09,0,0,1-.94.31c-1,.34-2.17.47-3.19.83a4.43,4.43,0,0,0-1.93,1.13,2.65,2.65,0,0,0-.56.87c-.23-.31-.37-.65-.6-.94a5.12,5.12,0,0,1,2.6-1.88"/><path class="cls-1" d="M25.86,46.56a.06.06,0,0,1,.08,0c.2.11.45.16.66.25a15.12,15.12,0,0,0,2,.54c.18,0,.34.09.52.1.45.1.93.19,1.35.33.09.06.19,0,.27.11a3.35,3.35,0,0,1,2,1.77l0,.1c-.24.36-.44.68-.67,1-.06-.05,0-.17-.07-.25-.3-1.32-1.72-1.81-2.88-2.1A18.09,18.09,0,0,1,25,47.15a7.87,7.87,0,0,0,.91-.59"/><path class="cls-1" d="M27.36,45.27c1.08.37,2.27.48,3.34.84a7,7,0,0,1,2.56,1.37,2.86,2.86,0,0,1,.5.71c-.11.1-.14.23-.24.34s-.23.4-.36.57c0,0,0-.06,0-.08a3.38,3.38,0,0,0-1-1.2s-.07,0-.12-.08a13,13,0,0,0-4.17-1.3A12.63,12.63,0,0,1,26.55,46c.26-.24.55-.49.81-.75"/><path class="cls-1" d="M16.44,48.67a6,6,0,0,1,2.85-1.2c.05,0,.12,0,.18,0s.22,0,.33-.07c.3-.09.64-.13.94-.23a13.79,13.79,0,0,0,1.78-.6,9.88,9.88,0,0,0,.91.64,19.48,19.48,0,0,1-4.5,1.33,4.9,4.9,0,0,0-2,1,2.35,2.35,0,0,0-.61,1.24h0c-.21-.34-.42-.69-.63-1a2.85,2.85,0,0,1,.78-1.11"/><path class="cls-1" d="M21.4,40.48A3.37,3.37,0,0,0,20,40.12a29.47,29.47,0,0,0,3,3.55,3.38,3.38,0,0,0,.77-.5,27.43,27.43,0,0,1-2.35-2.69"/><path class="cls-1" d="M19,39.85a2.42,2.42,0,0,0-1.32-.31,34.27,34.27,0,0,0,3.73,4.83,5.56,5.56,0,0,0,.91-.36A31.06,31.06,0,0,1,19,39.85"/><path class="cls-1" d="M27.21,40.48a3.37,3.37,0,0,1,1.41-.36,29.47,29.47,0,0,1-3,3.55,3.18,3.18,0,0,1-.77-.5,27.43,27.43,0,0,0,2.35-2.69"/><path class="cls-1" d="M29.66,39.85A2.4,2.4,0,0,1,31,39.54a34.21,34.21,0,0,1-3.72,4.83,5.23,5.23,0,0,1-.91-.36,31.06,31.06,0,0,0,3.32-4.16"/><path class="cls-2" d="M24.3,37.31c1.58-1,3.54-1.09,5.39-1.37A4.66,4.66,0,0,0,34,31.31V11.39H14.59V31.31c0,2.58,1.86,4.26,4.33,4.63,1.85.28,3.81.4,5.38,1.37m0,1.12a2.49,2.49,0,0,0-.73-.55A15.71,15.71,0,0,0,18.8,36.8a5.52,5.52,0,0,1-5.06-5.52V10.54H34.87V31.28c0,2.95-2,5.06-5.07,5.52A15.65,15.65,0,0,0,25,37.88a2.71,2.71,0,0,0-.74.55"/><rect class="cls-1" x="16.16" y="1.8" width="0.86" height="1.76"/><polygon class="cls-1" points="23.09 0 23.95 0 23.95 0.9 24.66 0.9 24.66 0 25.51 0 25.51 1.76 23.09 1.76 23.09 0"/><polygon class="cls-1" points="17.71 2.91 17.71 0.9 18.57 0.9 18.57 2.66 19.43 3.98 19.43 6.72 18.57 6.72 18.57 4.24 17.71 2.91"/><polygon class="cls-1" points="20.13 1.8 20.84 1.8 20.84 2.66 19.27 2.66 19.27 0.9 20.13 0.9 20.13 1.8"/><polygon class="cls-1" points="21.61 8.28 15.45 8.28 15.45 5.13 14.59 3.81 14.59 1.8 15.45 1.8 15.45 3.56 16.31 4.88 16.31 7.42 21.61 7.42 21.61 8.28"/><rect class="cls-1" x="31.59" y="1.8" width="0.86" height="1.76"/><polygon class="cls-1" points="30.89 2.91 30.89 0.9 30.03 0.9 30.03 2.66 29.17 3.98 29.17 6.72 30.03 6.72 30.03 4.24 30.89 2.91"/><polygon class="cls-1" points="28.48 1.8 27.77 1.8 27.77 2.66 29.33 2.66 29.33 0.9 28.48 0.9 28.48 1.8"/><path class="cls-1" d="M15.45,9.83V9h6.86V7.42a2,2,0,1,1,4,0V9h6.86v.85H25.43V7.42a1.13,1.13,0,0,0-2.26,0V9.83Z"/><polygon class="cls-1" points="26.99 8.28 33.15 8.28 33.15 5.13 34.02 3.81 34.02 1.8 33.15 1.8 33.15 3.56 32.3 4.88 32.3 7.42 26.99 7.42 26.99 8.28"/><path class="cls-1" d="M23.17,5V3l-.78-1.2V0h-.86V2l.78,1.21V5.6A3,3,0,0,1,23.17,5"/><path class="cls-1" d="M25.43,5V3l.78-1.2V0h.86V2l-.78,1.21V5.6A2.85,2.85,0,0,0,25.43,5"/><path class="cls-1" d="M21.38,35.49a8,8,0,0,1,2.9.83,7.7,7.7,0,0,1,2.89-.84h.1l.57-.1.25,0,.3,0c2-.16,4.83-1,4.83-4.48V26.33l0-14.15H15.37l0,18.63c0,3.43,2.78,4.24,4.79,4.48h.08c.08,0,.55.1.63.1Z"/><path class="cls-3" d="M21.4,20.53h-6v5.79h6v9.17a7.88,7.88,0,0,1,2.88.83,7.8,7.8,0,0,1,2.91-.84V26.32h6V20.53h-6V12.18H21.4Z"/><path class="cls-1" d="M67.45,24.22V23.8c-.7,0-1,0-1.46,0s-.85,0-1.47,0l-3.3,8-3.34-8c-.62,0-.86,0-1.49,0s-.94,0-1.5,0v.42h.67c.59,0,.67.05.67.42v9.82h.5V25.13l3.66,8.77h.48l3.65-8.77v7.71c0,1.41.44,1.77,1.42,1.77h.17v-10c0-.4.13-.4.68-.42Z"/><path class="cls-1" d="M71.13,34.59V27.35c0-.13,0-.16-.19-.16s-1.34.1-2.41.1v.38l.91,0c.19,0,.24.07.24.27v5.11c0,.9.33,1.52,1.18,1.52Z"/><path class="cls-1" d="M94.19,34.61V29.12A2.16,2.16,0,0,0,91.81,27a2.51,2.51,0,0,0-2.42,1.58V27.36c0-.13,0-.16-.19-.16s-1.34.1-2.4.1v.38l.91,0c.18,0,.23.08.23.27v6.49h1.45V30.07a2.26,2.26,0,0,1,2-2.42c.81,0,1.37.49,1.37,1.65v3.78c0,.91.33,1.53,1.17,1.53Z"/><path class="cls-1" d="M76.08,33.07V23.88c0-.13,0-.16-.19-.16s-1.34.1-2.41.1v.38h.91c.2,0,.24.08.24.28v10.1h.27c.85,0,1.18-.62,1.18-1.52"/><path class="cls-2" d="M83.15,32c0,1-.65,2.21-1.66,2.21s-1.41-.42-1.41-1.56.86-1.91,2.49-2h.34c.23,0,.24,0,.24.23Zm1.52,2.59c0-.35-.1-1.1-.1-1.52V28.86C84.57,27.67,83.44,27,82,27c-1.85,0-3,1-3,1.5s.28.6.64.6c1,0,.65-1.69,2.17-1.69a1.16,1.16,0,0,1,1.3,1.26V30c0,.22,0,.24-.24.24l-.44,0c-2.25.07-4,1.06-4,2.4s.91,2,2.84,2a1.89,1.89,0,0,0,1.83-1.29c.08,1,.56,1.24,1.26,1.24Z"/><path class="cls-2" d="M102.13,30.73c0,2.18-.35,3.48-2,3.48s-2-1.3-2-3.48c0-1.82.32-3.3,2-3.3s2,1.48,2,3.3m1.65,0a3.65,3.65,0,1,0-7.29,0,3.65,3.65,0,1,0,7.29,0"/><path class="cls-2" d="M100.61,18.81c0,.92-.31,1.57-.93,1.57s-.93-.67-.93-1.57.17-1.48.93-1.48.93.73.93,1.48m.66,1.79v-5c0-.05,0-.07-.09-.07s-.62,0-1.11,0v.18h.42c.09,0,.11,0,.11.13v1.75a1,1,0,0,0-1-.6A1.7,1.7,0,0,0,98,18.81a1.61,1.61,0,0,0,1.59,1.81,1,1,0,0,0,1.06-.74c0,.44.15.72.54.72Z"/><path class="cls-2" d="M103.34,20.6V17.24s0-.07-.09-.07-.62,0-1.12,0v.18h.42c.09,0,.12,0,.12.12v2.37c0,.42.15.71.54.71Z"/><path class="cls-1" d="M60.62,19.69v-.52a3,3,0,0,1-2.38,1.23c-1.49,0-2-1-2-3.48,0-2.13.5-3.3,2.08-3.3a1.84,1.84,0,0,1,2,1.68h.28c0-.22,0-.55,0-.79s0-.55,0-.81a11.45,11.45,0,0,0-2.3-.4A3.32,3.32,0,0,0,55,16.92c0,2.59,1.4,3.85,3.21,3.85a3,3,0,0,0,2.38-1.08"/><path class="cls-2" d="M65.69,18.11c0,1.48-.24,2.36-1.37,2.36S63,19.59,63,18.11c0-1.24.22-2.24,1.36-2.24s1.37,1,1.37,2.24m1.11,0a2.47,2.47,0,0,0-2.48-2.53,2.5,2.5,0,0,0-2.47,2.53,2.48,2.48,0,1,0,4.95,0"/><path class="cls-1" d="M75.91,20.74V17a1.42,1.42,0,0,0-1.55-1.42,1.71,1.71,0,0,0-1.6,1.07,1.47,1.47,0,0,0-1.52-1.07,1.69,1.69,0,0,0-1.59,1.07v-.84c0-.08,0-.1-.12-.1s-.91.06-1.64.06V16h.62c.13,0,.16.06.16.18v4.42h1v-3c0-.84.6-1.64,1.28-1.64s.87.33.87,1.12v2.56c0,.62.22,1,.8,1h.18V17.65c0-.83.58-1.64,1.28-1.64.54,0,.86.33.86,1.12v2.56c0,.62.23,1,.8,1Z"/><path class="cls-1" d="M82.3,20.74v-5h-1v2.92A1.5,1.5,0,0,1,80,20.33c-.55,0-.9-.33-.9-1.12v-3.4c0-.08,0-.1-.13-.1s-.91.06-1.64.06V16H78c.13,0,.16.06.16.18v3.12a1.45,1.45,0,0,0,1.58,1.43,1.65,1.65,0,0,0,1.61-1.08c0,.62.23,1,.81,1Z"/><path class="cls-1" d="M88.75,20.74V17a1.45,1.45,0,0,0-1.6-1.42,1.7,1.7,0,0,0-1.65,1.07v-.84c0-.08,0-.1-.13-.1s-.91.06-1.63.06V16h.61c.13,0,.17.06.17.18v4.42h1v-3A1.53,1.53,0,0,1,86.84,16c.55,0,.93.33.93,1.12v2.56c0,.62.23,1,.8,1Z"/><path class="cls-2" d="M93.88,17.73c0,.16,0,.18-.16.18H91.8c-.17,0-.17,0-.17-.16,0-1.06.36-1.88,1.17-1.88s1.08.83,1.08,1.86m1.09.21a2.3,2.3,0,0,0-2.17-2.36,2.45,2.45,0,0,0-2.28,2.53c0,1.53.81,2.66,2.36,2.66A2.45,2.45,0,0,0,94.8,20V19.5a2.22,2.22,0,0,1-1.86.95c-1,0-1.33-.84-1.33-2.06,0-.17,0-.19.19-.19h3c.1,0,.15-.05.15-.26"/><polygon class="cls-1" points="226.25 34.78 226.25 32.12 226.83 32.12 226.83 34.25 228.16 34.25 228.16 34.78 226.25 34.78"/><path class="cls-1" d="M231.44,34.78l-.24-.6h-1.13l-.24.6h-.6l1.14-2.68h.54l1.15,2.68Zm-.8-2-.36.87H231Z"/><path class="cls-1" d="M236.57,34.83a1.35,1.35,0,0,1-1.37-1.37h0a1.35,1.35,0,0,1,1.39-1.38,1.39,1.39,0,0,1,1,.41l-.37.43a1,1,0,0,0-.68-.3.79.79,0,0,0-.78.83h0a.8.8,0,0,0,.78.84.94.94,0,0,0,.7-.32l.37.38a1.34,1.34,0,0,1-1.09.48"/><rect class="cls-1" x="239.01" y="32.12" width="0.59" height="2.67"/><polygon class="cls-1" points="242.32 32.66 242.32 34.78 241.74 34.78 241.74 32.66 240.92 32.66 240.92 32.12 243.13 32.12 243.13 32.66 242.32 32.66"/><polygon class="cls-1" points="245.65 32.66 245.65 34.78 245.06 34.78 245.06 32.66 244.25 32.66 244.25 32.12 246.46 32.12 246.46 32.66 245.65 32.66"/><path class="cls-1" d="M249.74,34.78l-.24-.6h-1.13l-.24.6h-.6l1.14-2.68h.54l1.15,2.68Zm-1-2.87-.49-.46.5-.22.43.68Zm.19.89-.36.87h.71Z"/><path class="cls-1" d="M254.63,34h-.44v.8h-.59V32.12h1.09a.91.91,0,0,1,1,.92h0a1,1,0,0,1-1.08.93m.49-.93c0-.26-.18-.4-.48-.4h-.45v.81h.46a.42.42,0,0,0,.47-.4Z"/><polygon class="cls-1" points="257 34.78 257 32.12 259.01 32.12 259.01 32.64 257.58 32.64 257.58 33.18 258.84 33.18 258.84 33.7 257.58 33.7 257.58 34.26 259.03 34.26 259.03 34.78 257 34.78"/><path class="cls-1" d="M262,34.78l-.57-.85H261v.85h-.59V32.12h1.22c.63,0,1,.32,1,.87h0a.83.83,0,0,1-.57.83l.65,1ZM262,33c0-.26-.18-.39-.46-.39H261v.77h.6c.28,0,.45-.15.45-.38Z"/><rect class="cls-1" x="266.04" y="32.12" width="0.59" height="2.67"/><polygon class="cls-1" points="268.14 34.78 268.14 32.12 268.73 32.12 268.73 34.25 270.06 34.25 270.06 34.78 268.14 34.78"/><polygon class="cls-1" points="273.93 32.12 273.93 33.86 274.68 32.72 274.7 32.72 275.44 33.84 275.44 32.12 276.02 32.12 276.02 34.78 275.38 34.78 274.68 33.66 273.98 34.78 273.35 34.78 273.35 32.12 273.93 32.12"/><polygon class="cls-1" points="277.51 34.78 277.51 32.12 279.52 32.12 279.52 32.64 278.09 32.64 278.09 33.18 279.35 33.18 279.35 33.7 278.09 33.7 278.09 34.26 279.54 34.26 279.54 34.78 277.51 34.78"/><polygon class="cls-1" points="280.92 34.78 280.92 32.12 281.5 32.12 281.5 34.25 282.83 34.25 282.83 34.78 280.92 34.78"/><polygon class="cls-1" points="284.71 32.65 284.71 33.22 285.99 33.22 285.99 33.75 284.71 33.75 284.71 34.78 284.13 34.78 284.13 32.12 286.16 32.12 286.16 32.65 284.71 32.65"/><path class="cls-1" d="M289.16,34.78l-.24-.6h-1.13l-.25.6H287l1.14-2.68h.54l1.14,2.68Zm-.81-2-.35.87h.71Z"/><path class="cls-1" d="M292.66,34.78l-.58-.85h-.46v.85H291V32.12h1.22c.63,0,1,.32,1,.87h0a.83.83,0,0,1-.57.83l.65,1Zm0-1.75c0-.26-.18-.39-.46-.39h-.59v.77h.6c.28,0,.45-.15.45-.38Z"/><polygon class="cls-1" points="294.64 34.78 294.64 32.12 296.66 32.12 296.66 32.64 295.23 32.64 295.23 33.18 296.49 33.18 296.49 33.7 295.23 33.7 295.23 34.26 296.67 34.26 296.67 34.78 294.64 34.78"/><polygon class="cls-1" points="253.6 15.42 256.61 15.42 259.95 20.8 263.29 15.42 266.31 15.42 266.31 28.13 263.55 28.13 263.55 19.84 259.97 25.26 259.9 25.26 256.36 19.89 256.36 28.13 253.6 28.13 253.6 15.42"/><rect class="cls-1" x="269.49" y="15.42" width="2.8" height="12.71"/><polygon class="cls-1" points="238.41 28.13 236.96 28.13 232.33 21.2 227.7 28.13 226.25 28.13 226.25 15.42 227.68 15.42 227.68 25.72 232.31 18.91 232.38 18.91 237.01 25.7 237.01 15.42 238.41 15.42 238.41 28.13"/><polygon class="cls-1" points="241.46 15.42 250.65 15.42 250.65 16.71 242.9 16.71 242.9 21.09 249.83 21.09 249.83 22.38 242.9 22.38 242.9 26.84 250.74 26.84 250.74 28.13 241.46 28.13 241.46 15.42"/><path class="cls-1" d="M211.9,16.14a1.29,1.29,0,1,0-1.29,1.29,1.29,1.29,0,0,0,1.29-1.29"/><path class="cls-1" d="M211.9,24.85a1.29,1.29,0,1,0-1.29,1.29,1.29,1.29,0,0,0,1.29-1.29"/><path class="cls-1" d="M211.9,33.57a1.29,1.29,0,1,0-1.29,1.29,1.29,1.29,0,0,0,1.29-1.29"/><path class="cls-1" d="M211.9,42.28a1.29,1.29,0,1,0-1.29,1.29,1.29,1.29,0,0,0,1.29-1.29"/><path class="cls-1" d="M150.91,16.14a1.29,1.29,0,1,0-1.29,1.29,1.29,1.29,0,0,0,1.29-1.29"/><path class="cls-1" d="M150.91,33.57a1.29,1.29,0,1,0-1.29,1.29,1.29,1.29,0,0,0,1.29-1.29"/><path class="cls-1" d="M150.91,42.28a1.29,1.29,0,1,0-1.29,1.29,1.29,1.29,0,0,0,1.29-1.29"/><path class="cls-1" d="M159.62,16.14a1.29,1.29,0,1,0-1.29,1.29,1.29,1.29,0,0,0,1.29-1.29"/><path class="cls-1" d="M159.62,24.85a1.29,1.29,0,1,0-1.29,1.29,1.29,1.29,0,0,0,1.29-1.29"/><path class="cls-1" d="M159.62,33.57a1.29,1.29,0,1,0-1.29,1.29,1.29,1.29,0,0,0,1.29-1.29"/><path class="cls-1" d="M168.33,7.42A1.29,1.29,0,1,0,167,8.71a1.28,1.28,0,0,0,1.29-1.29"/><path class="cls-1" d="M168.33,16.14A1.29,1.29,0,1,0,167,17.43a1.29,1.29,0,0,0,1.29-1.29"/><path class="cls-1" d="M168.33,24.85A1.29,1.29,0,1,0,167,26.14a1.29,1.29,0,0,0,1.29-1.29"/><path class="cls-1" d="M168.33,42.28A1.29,1.29,0,1,0,167,43.57a1.29,1.29,0,0,0,1.29-1.29"/><path class="cls-1" d="M177.05,16.14a1.29,1.29,0,1,0-1.29,1.29,1.29,1.29,0,0,0,1.29-1.29"/><path class="cls-1" d="M177.05,24.85a1.29,1.29,0,1,0-1.29,1.29,1.29,1.29,0,0,0,1.29-1.29"/><path class="cls-1" d="M177.05,33.57a1.29,1.29,0,1,0-1.29,1.29,1.29,1.29,0,0,0,1.29-1.29"/><path class="cls-1" d="M177.05,42.28a1.29,1.29,0,1,0-1.29,1.29,1.29,1.29,0,0,0,1.29-1.29"/><path class="cls-1" d="M177.05,51a1.29,1.29,0,1,0-1.29,1.29A1.28,1.28,0,0,0,177.05,51"/><path class="cls-1" d="M185.76,59.71A1.29,1.29,0,1,0,184.47,61a1.29,1.29,0,0,0,1.29-1.29"/><path class="cls-1" d="M185.76,7.42a1.29,1.29,0,1,0-1.29,1.29,1.28,1.28,0,0,0,1.29-1.29"/><path class="cls-1" d="M185.76,24.85a1.29,1.29,0,1,0-1.29,1.29,1.29,1.29,0,0,0,1.29-1.29"/><path class="cls-1" d="M185.76,33.57a1.29,1.29,0,1,0-1.29,1.29,1.29,1.29,0,0,0,1.29-1.29"/><path class="cls-1" d="M185.76,42.28a1.29,1.29,0,1,0-1.29,1.29,1.29,1.29,0,0,0,1.29-1.29"/><path class="cls-1" d="M185.76,51a1.29,1.29,0,1,0-1.29,1.29A1.28,1.28,0,0,0,185.76,51"/><path class="cls-1" d="M194.48,59.71A1.29,1.29,0,1,0,193.19,61a1.29,1.29,0,0,0,1.29-1.29"/><path class="cls-1" d="M194.48,7.42a1.29,1.29,0,1,0-1.29,1.29,1.28,1.28,0,0,0,1.29-1.29"/><path class="cls-1" d="M194.48,16.14a1.29,1.29,0,1,0-1.29,1.29,1.29,1.29,0,0,0,1.29-1.29"/><path class="cls-1" d="M194.48,24.85a1.29,1.29,0,1,0-1.29,1.29,1.29,1.29,0,0,0,1.29-1.29"/><path class="cls-1" d="M194.48,33.57a1.29,1.29,0,1,0-1.29,1.29,1.29,1.29,0,0,0,1.29-1.29"/><path class="cls-1" d="M194.48,51a1.29,1.29,0,1,0-1.29,1.29A1.28,1.28,0,0,0,194.48,51"/><path class="cls-1" d="M203.19,7.42a1.29,1.29,0,1,0-1.29,1.29,1.28,1.28,0,0,0,1.29-1.29"/><path class="cls-1" d="M203.19,16.14a1.29,1.29,0,1,0-1.29,1.29,1.29,1.29,0,0,0,1.29-1.29"/><path class="cls-1" d="M203.19,24.85a1.29,1.29,0,1,0-1.29,1.29,1.29,1.29,0,0,0,1.29-1.29"/><path class="cls-1" d="M203.19,33.57a1.29,1.29,0,1,0-1.29,1.29,1.29,1.29,0,0,0,1.29-1.29"/><path class="cls-1" d="M203.19,42.28a1.29,1.29,0,1,0-1.29,1.29,1.29,1.29,0,0,0,1.29-1.29"/><path class="cls-1" d="M203.19,51a1.29,1.29,0,1,0-1.29,1.29A1.28,1.28,0,0,0,203.19,51"/><path class="cls-1" d="M200.61,16.12a16.14,16.14,0,1,0-16.14,16.16,16.13,16.13,0,0,0,16.14-16.16"/><path class="cls-1" d="M204.6,42.28a11.41,11.41,0,1,0-11.41,11.41A11.42,11.42,0,0,0,204.6,42.28"/><path class="cls-1" d="M178.46,33.57A11.41,11.41,0,1,0,167.05,45a11.41,11.41,0,0,0,11.41-11.41"/><polygon class="cls-3" points="168.57 32.8 167.81 32.04 167.05 32.8 166.29 32.04 165.53 32.8 166.29 33.57 165.53 34.33 166.28 35.09 167.05 34.33 167.81 35.09 168.57 34.33 167.8 33.57 168.57 32.8"/><rect class="cls-3" x="191.84" y="40.93" width="2.7" height="2.7"/><polygon class="cls-3" points="184.47 16.58 185.35 17.45 186.22 16.58 184.47 14.83 182.73 16.58 183.6 17.45 184.47 16.58"/><rect class="cls-1" x="125.99" y="14.85" width="1" height="28.78"/></g></g></svg>