<svg width="306" height="58" viewBox="0 0 306 58" fill="none" xmlns="http://www.w3.org/2000/svg">
<path d="M134.703 57.6002L119 52.3882V5.21209L134.703 0V57.6002Z" fill="url(#paint0_radial)"/>
<path d="M194.241 33.1156V33.6502H189.697V33.1156H191.234V23.4933L187.292 33.4497H187.025L183.416 23.4933V31.7124C183.416 32.247 183.55 32.7147 183.817 32.982C183.951 33.1156 184.285 33.1156 184.953 33.1156V33.6502H181.345V33.1156C181.946 33.1156 182.347 33.0488 182.414 32.982C182.748 32.7147 182.882 32.3138 182.882 31.7124V23.226C182.882 22.9587 182.681 22.8251 182.414 22.8251H181.478V22.2905H184.686L187.693 30.8437L191.168 22.2905H194.308V22.8251H192.771V33.1156H194.241Z" fill="black"/>
<path d="M200.789 33.1156V33.6502H196.112V33.1156H197.649V22.8251H196.112V22.2905H200.789V22.8251H199.252V33.1156H200.789Z" fill="black"/>
<path d="M213.152 22.3573V22.8919C212.55 22.8919 212.149 22.9587 212.016 23.0256C211.748 23.2929 211.615 23.7606 211.615 24.2952L211.682 33.9175H211.281L204.331 23.226V31.7124C204.331 32.3138 204.465 32.7147 204.732 32.982C204.866 33.1156 205.2 33.1156 205.868 33.1156V33.6502H202.193V33.1156C202.794 33.1156 203.195 33.0488 203.262 32.982C203.596 32.7147 203.73 32.3138 203.73 31.7124V23.226C203.73 22.9587 203.529 22.8251 203.262 22.8251H202.327V22.2905H205.601L211.013 30.7101V24.2284C211.013 23.6938 210.88 23.226 210.546 22.9587C210.412 22.8919 210.078 22.8251 209.476 22.8251V22.2905C209.543 22.3573 213.152 22.3573 213.152 22.3573Z" fill="black"/>
<path d="M219.032 33.1156V33.6502H214.354V33.1156H215.891V22.8251H214.354V22.2905H219.032V22.8251H217.495V33.1156H219.032Z" fill="black"/>
<path d="M227.853 30.0429C227.853 31.3125 227.318 32.248 226.316 32.9163C225.447 33.5177 224.311 33.7849 223.041 33.7849C222.24 33.7849 221.371 33.5845 220.369 33.2504V30.6443H220.836C220.903 31.513 221.17 32.1144 221.638 32.5153C221.839 32.7158 222.173 32.8494 222.574 32.9831C222.975 33.1167 223.375 33.1836 223.643 33.1167C224.378 33.1167 225.046 32.9163 225.647 32.5153C226.182 32.1144 226.516 31.5798 226.516 30.9116C226.516 30.1766 226.249 29.642 225.781 29.1743C225.313 28.7733 224.578 28.506 223.71 28.3724C221.371 28.1051 220.235 27.1028 220.235 25.4322C220.235 24.2963 220.703 23.3608 221.571 22.7594C222.306 22.2248 223.242 21.9575 224.311 21.9575C224.645 21.9575 224.979 22.0243 225.447 22.0912C225.915 22.158 226.182 22.2248 226.316 22.2248C226.449 22.2248 226.516 22.158 226.583 21.9575H227.051V24.8977H226.583C226.516 24.0958 226.249 23.4944 225.848 23.1603C225.447 22.8262 224.846 22.6257 224.044 22.6257C222.44 22.6257 221.638 23.3608 221.705 24.764C221.705 26.0336 222.574 26.7687 224.311 26.9023C226.65 27.3032 227.853 28.3056 227.853 30.0429Z" fill="black"/>
<path d="M238.744 22.3563L238.811 25.6974H238.277C238.21 24.7619 237.942 24.0937 237.542 23.6259C237.141 23.1582 236.339 22.9577 235.27 22.8909H234.535V33.1814H236.071V33.716H231.528V33.1814H233.065V22.8241H232.329C231.26 22.8909 230.525 23.0913 230.124 23.4923C229.723 23.8932 229.456 24.6282 229.322 25.5637H228.855V22.2227H238.744V22.3563Z" fill="black"/>
<path d="M249.169 29.7077H249.703L249.503 33.6502H239.947V33.1156H241.484V22.8251H239.947V22.2905H249.235L249.302 25.6316H248.768C248.701 24.6961 248.434 23.9611 247.966 23.5601C247.498 23.0924 246.763 22.8919 245.761 22.8919H242.954V27.6363H244.959C245.427 27.6363 245.761 27.5026 246.028 27.2353C246.295 26.9012 246.429 26.3666 246.429 25.6984H246.964V30.2423H246.429C246.429 29.5741 246.295 29.1063 246.028 28.7054C245.761 28.3713 245.427 28.1708 245.026 28.1708H243.021V33.1156L246.095 33.0488C246.429 33.0488 246.763 32.982 247.231 32.7815C247.632 32.6479 247.966 32.4474 248.166 32.2469C248.768 31.6456 249.102 30.7769 249.169 29.7077Z" fill="black"/>
<path d="M258.323 32.7815L255.182 28.3045H254.18V33.1825H255.717V33.717H251.173V33.1825H252.71V22.8251H251.173V22.2905H256.118C257.454 22.2905 258.457 22.5578 259.125 23.0924C259.793 23.627 260.127 24.2952 260.127 25.1639C260.127 26.0325 259.793 26.7676 259.192 27.3021C258.59 27.7699 257.855 28.104 256.853 28.1708L260.194 32.7147C260.394 32.9152 260.729 33.0488 261.33 33.1156V33.5834C260.528 33.5834 259.259 33.5834 257.521 33.5834V33.0488H257.989C258.123 32.982 258.189 32.982 258.189 32.8483C258.39 32.8483 258.323 32.7815 258.323 32.7815ZM255.583 27.7699C257.588 27.7699 258.523 26.9012 258.523 25.1639C258.457 23.5601 257.588 22.7583 255.917 22.7583H254.18V27.7031H255.583V27.7699Z" fill="black"/>
<path d="M270.952 23.6935C271.821 24.7626 272.289 26.1659 272.289 27.9033C272.289 29.6406 271.821 31.0439 270.885 32.1798C269.95 33.3158 268.747 33.8504 267.344 33.8504C265.941 33.8504 264.738 33.249 263.735 32.113C262.733 30.977 262.265 29.507 262.265 27.8364C262.265 26.1659 262.8 24.7626 263.735 23.6267C264.671 22.5575 265.874 22.0229 267.344 22.0229C268.881 22.0229 270.017 22.5575 270.952 23.6935ZM267.344 33.3158C268.346 33.3158 269.148 32.8481 269.683 31.8457C270.217 30.8434 270.484 29.5738 270.484 27.9701C270.484 26.3664 270.284 25.0967 269.816 24.1612C269.282 23.0921 268.413 22.5575 267.277 22.5575C266.141 22.5575 265.339 23.0921 264.805 24.0944C264.337 24.9631 264.136 26.2327 264.136 27.9701C264.07 31.5116 265.206 33.3158 267.344 33.3158Z" fill="black"/>
<path d="M191.702 46.1455C191.702 47.6824 191.167 49.0188 190.165 50.088C189.163 51.224 187.96 51.6917 186.69 51.6917C184.686 51.6249 182.815 51.6249 181.077 51.6249V51.0903H182.614V40.8666H181.077V40.332C182.079 40.3989 182.948 40.3989 183.683 40.3989C184.418 40.3989 185.421 40.3989 186.757 40.3989C188.294 40.3989 189.497 40.9334 190.432 41.9358C191.234 43.0049 191.702 44.4082 191.702 46.1455ZM189.163 49.6202C189.697 48.7516 189.964 47.6156 189.964 46.0787C189.964 44.5418 189.764 43.4058 189.296 42.604C188.762 41.5348 187.893 41.0002 186.69 40.8666C185.688 40.7998 184.819 40.8666 184.084 40.9334V51.1571C184.819 51.224 185.354 51.224 185.755 51.224C186.156 51.224 186.423 51.224 186.69 51.224C187.826 51.0903 188.628 50.5557 189.163 49.6202Z" fill="black"/>
<path d="M202.727 47.7492H203.262L203.061 51.6917H193.506V51.1571H195.043V40.8666H193.506V40.332H202.794V43.6731H202.259C202.193 42.7376 201.925 42.0026 201.458 41.6016C200.99 41.1339 200.255 40.9334 199.253 40.9334L196.446 40.8666V45.6109H198.451C198.918 45.6109 199.253 45.4773 199.52 45.21C199.787 44.8759 199.921 44.3413 199.921 43.6731H200.455V48.217H199.921C199.921 47.5488 199.787 47.081 199.52 46.6801C199.253 46.346 198.918 46.1455 198.517 46.1455H196.513V51.0903L199.587 51.0235C199.921 51.0235 200.255 50.9567 200.723 50.7562C201.124 50.6226 201.458 50.4221 201.658 50.2216C202.326 49.6871 202.727 48.8852 202.727 47.7492Z" fill="black"/>
<path d="M213.486 47.7492H214.02L213.82 51.6917H204.866V51.1571H206.403V40.8666H204.866V40.332H209.41V40.8666H207.873V51.1571L210.412 51.0903C210.679 51.0903 211.08 51.0235 211.481 50.823C211.949 50.6894 212.216 50.4889 212.417 50.2885C213.152 49.6871 213.486 48.8852 213.486 47.7492Z" fill="black"/>
<path d="M224.111 47.7492H224.645L224.445 51.6917H215.491V51.1571H217.028V40.8666H215.491V40.332H220.035V40.8666H218.498V51.1571L221.037 51.0903C221.304 51.0903 221.705 51.0235 222.106 50.823C222.507 50.6894 222.841 50.4889 223.042 50.2885C223.71 49.6871 224.044 48.8852 224.111 47.7492Z" fill="black"/>
<path d="M228.12 40.1318C228.521 40.1318 228.855 40.3323 229.122 40.6664C229.389 41.0005 229.456 41.4014 229.456 41.8692C229.456 42.2701 229.256 42.8047 228.788 43.2725C228.387 43.807 227.986 44.1411 227.518 44.3416L227.318 44.0075C227.585 43.8738 227.919 43.6734 228.253 43.2725C228.587 42.8715 228.721 42.5374 228.721 42.2701C228.721 42.0697 228.654 42.0028 228.454 42.0028L227.919 42.0697C227.318 42.0028 226.984 41.7356 226.984 41.2678C227.05 40.4659 227.451 40.1318 228.12 40.1318Z" fill="black"/>
<path d="M236.539 51.1571V51.6917H231.861V51.1571H233.398V40.8666H231.861V40.332H236.539V40.8666H235.002V51.1571H236.539Z" fill="black"/>
<path d="M248.834 40.3989V40.9334C248.233 40.9334 247.832 41.0003 247.698 41.0671C247.431 41.3344 247.297 41.8021 247.297 42.3367V51.959H246.963L240.014 41.2675V49.7539C240.014 50.3553 240.147 50.7562 240.415 51.0235C240.548 51.1571 240.882 51.1571 241.551 51.1571V51.6917H237.942V51.1571C238.544 51.1571 238.944 51.0903 239.011 51.0235C239.345 50.7562 239.479 50.3553 239.479 49.7539V41.2675C239.412 41.0002 239.279 40.8666 239.011 40.8666H238.076V40.332H241.35L246.763 48.7516V42.2699C246.763 41.7353 246.629 41.2675 246.295 41.0002C246.161 40.9334 245.827 40.8666 245.226 40.8666V40.332C245.226 40.3989 248.834 40.3989 248.834 40.3989Z" fill="black"/>
<path d="M259.793 40.3989L259.86 43.7399H259.392C259.325 42.8044 259.058 42.1362 258.657 41.6685C258.256 41.2007 257.454 41.0002 256.385 40.9334L255.65 40.8666V51.1571H257.187V51.6917H252.643V51.1571H254.18V40.8666L253.445 40.9334C252.376 41.0002 251.641 41.2007 251.24 41.6016C250.839 42.0026 250.572 42.7376 250.438 43.6731H249.97L250.037 40.332L259.793 40.3989Z" fill="black"/>
<path d="M270.284 47.7492H270.819L270.618 51.6917H261.063V51.1571H262.6V40.8666H261.063V40.332H270.351V43.6731H269.816C269.75 42.7376 269.482 42.0026 269.015 41.6016C268.547 41.1339 267.812 40.9334 266.809 40.9334L264.003 40.8666V45.6109H266.008C266.475 45.6109 266.809 45.4773 267.077 45.21C267.344 44.8759 267.478 44.3413 267.478 43.6731H268.012V48.217H267.478C267.478 47.5488 267.344 47.081 267.077 46.6801C266.809 46.346 266.475 46.1455 266.074 46.1455H264.07V51.0903L267.144 51.0235C267.478 51.0235 267.812 50.9567 268.279 50.7562C268.68 50.6226 269.015 50.4221 269.215 50.2216C269.883 49.6871 270.217 48.8852 270.284 47.7492Z" fill="black"/>
<path d="M279.372 50.823L276.231 46.346H275.229V51.224H276.766V51.7585H272.222V51.224H273.759V40.8666H272.222V40.332H277.167C278.503 40.332 279.506 40.5993 280.174 41.1339C280.842 41.6685 281.176 42.3367 281.176 43.2054C281.176 44.074 280.842 44.8091 280.241 45.3437C279.639 45.8114 278.904 46.1455 277.902 46.2123L281.243 50.7562C281.444 50.9567 281.778 51.0903 282.379 51.1571V51.6249C281.577 51.6249 280.308 51.6249 278.57 51.6249V51.0903H279.038C279.172 51.0235 279.238 51.0235 279.238 50.8899C279.439 50.8899 279.439 50.823 279.372 50.823ZM276.699 45.8114C278.704 45.8114 279.639 44.9427 279.639 43.2054C279.573 41.6016 278.704 40.7998 277.033 40.7998H275.296V45.7446L276.699 45.8114Z" fill="black"/>
<path d="M294.072 40.3989V40.9334C293.404 40.9334 293.07 41.0003 292.936 41.0671C292.669 41.3344 292.535 41.8021 292.535 42.3367L292.602 51.959H292.201L285.252 41.2675V49.7539C285.252 50.3553 285.386 50.7562 285.653 51.0235C285.786 51.1571 286.121 51.1571 286.789 51.1571V51.6917H283.18V51.1571C283.782 51.1571 284.183 51.0903 284.25 51.0235C284.584 50.7562 284.717 50.3553 284.717 49.7539V41.2675C284.717 41.0002 284.517 40.8666 284.25 40.8666H283.314V40.332H286.588L292.001 48.7516V42.2699C292.001 41.7353 291.867 41.2675 291.533 41.0002C291.399 40.9334 291.065 40.8666 290.464 40.8666V40.332C290.464 40.3989 294.072 40.3989 294.072 40.3989Z" fill="black"/>
<path d="M304.029 41.736C304.897 42.8051 305.365 44.2084 305.365 45.9457C305.365 47.6831 304.897 49.0863 303.962 50.2223C303.026 51.3583 301.823 51.8929 300.42 51.8929C299.017 51.8929 297.814 51.2915 296.812 50.1555C295.81 49.0195 295.342 47.5494 295.342 45.8789C295.342 44.2084 295.876 42.8051 296.812 41.6691C297.747 40.6 298.95 40.0654 300.487 40.0654C301.957 40.0654 303.16 40.6 304.029 41.736ZM300.42 51.3583C301.423 51.3583 302.224 50.8905 302.759 49.8882C303.294 48.8859 303.561 47.6163 303.561 46.0125C303.561 44.4088 303.36 43.1392 302.893 42.2037C302.358 41.1346 301.489 40.6 300.353 40.6C299.217 40.6 298.416 41.1346 297.881 42.1369C297.413 43.0056 297.213 44.2752 297.213 46.0125C297.213 49.5541 298.282 51.3583 300.42 51.3583Z" fill="black"/>
<path d="M150.673 5.21191H134.703V52.3212H150.673V5.21191Z" fill="white"/>
<path d="M166.109 5.21191H150.406V52.3212H166.109V5.21191Z" fill="url(#paint1_radial)"/>
<g clip-path="url(#clip0)">
<path d="M75.0862 0.443359H0V50.7129H75.0862V0.443359Z" fill="#003399"/>
<path d="M37.5431 6.02881L36.922 7.95581H34.9011L36.5326 9.14738L35.9115 11.0837L37.5431 9.89212L39.1746 11.0837L38.5535 9.14738L40.185 7.95581H38.1641L37.5431 6.02881Z" fill="#FFCC00"/>
<path d="M38.1641 41.469L37.5431 39.542L36.922 41.469H34.9011L36.5326 42.6606L35.9115 44.5969L37.5431 43.4053L39.1746 44.5969L38.5535 42.6606L40.185 41.469H38.1641Z" fill="#FFCC00"/>
<path d="M20.8573 26.6485L22.4888 27.84L21.8677 25.9037L23.4992 24.7122H21.4783L20.8573 22.7852L20.2362 24.7122H18.2153L19.8468 25.9037L19.2258 27.84L20.8573 26.6485Z" fill="#FFCC00"/>
<path d="M29.2003 8.27246L28.5792 10.1995H26.5583L28.1899 11.4003L27.5688 13.3274L29.2003 12.1358L30.8318 13.3274L30.2107 11.4003L31.8422 10.1995H29.8214L29.2003 8.27246Z" fill="#FFCC00"/>
<path d="M23.0914 14.4072L22.4703 16.3342H20.4495L22.081 17.5258L21.4599 19.4621L23.0914 18.2705L24.7229 19.4621L24.1018 17.5258L25.7333 16.3342H23.7217L23.0914 14.4072Z" fill="#FFCC00"/>
<path d="M23.7217 33.0906L23.0914 31.1636L22.4703 33.0906H20.4495L22.081 34.2822L21.4599 36.2185L23.0914 35.0269L24.7229 36.2185L24.1018 34.2822L25.7333 33.0906H23.7217Z" fill="#FFCC00"/>
<path d="M29.8214 39.2253L29.2003 37.2983L28.5792 39.2253H26.5583L28.1899 40.4169L27.5688 42.3532L29.2003 41.1523L30.8318 42.3532L30.2107 40.4169L31.8422 39.2253H29.8214Z" fill="#FFCC00"/>
<path d="M56.8708 24.7122H54.8499L54.2288 22.7852L53.6078 24.7122H51.5869L53.2184 25.9037L52.5973 27.84L54.2288 26.6485L55.8603 27.84L55.2393 25.9037L56.8708 24.7122Z" fill="#FFCC00"/>
<path d="M45.8861 8.27246L45.265 10.1995H43.2441L44.8756 11.4003L44.2546 13.3274L45.8861 12.1358L47.5176 13.3274L46.8965 11.4003L48.528 10.1995H46.5072L45.8861 8.27246Z" fill="#FFCC00"/>
<path d="M50.9845 17.5258L50.3634 19.4621L51.995 18.2705L53.6265 19.4621L53.0054 17.5258L54.6369 16.3342H52.616L51.995 14.4072L51.3646 16.3342H49.353L50.9845 17.5258Z" fill="#FFCC00"/>
<path d="M52.616 33.0906L51.995 31.1636L51.3646 33.0906H49.353L50.9845 34.2822L50.3634 36.2185L51.995 35.0269L53.6265 36.2185L53.0054 34.2822L54.6369 33.0906H52.616Z" fill="#FFCC00"/>
<path d="M46.5072 39.2253L45.8861 37.2983L45.265 39.2253H43.2441L44.8756 40.4169L44.2546 42.3532L45.8861 41.1523L47.5176 42.3532L46.8965 40.4169L48.528 39.2253H46.5072Z" fill="#FFCC00"/>
</g>
<defs>
<radialGradient id="paint0_radial" cx="0" cy="0" r="1" gradientUnits="userSpaceOnUse" gradientTransform="translate(150.291 15.698) scale(30.483)">
<stop stop-color="white"/>
<stop offset="1" stop-color="#00684A"/>
</radialGradient>
<radialGradient id="paint1_radial" cx="0" cy="0" r="1" gradientUnits="userSpaceOnUse" gradientTransform="translate(150.291 15.6985) scale(30.4826)">
<stop stop-color="white"/>
<stop offset="1" stop-color="#CE0006"/>
</radialGradient>
<clipPath id="clip0">
<rect width="75.0862" height="50.2696" fill="white" transform="translate(0 0.443359)"/>
</clipPath>
</defs>
</svg>
